<?xml version="1.0" standalone="no"?>
<!DOCTYPE svg PUBLIC "-//W3C//DTD SVG 1.1//EN" "http://www.w3.org/Graphics/SVG/1.1/DTD/svg11.dtd" >
<svg>
<metadata>
Created by FontForge 20090914 at Mon Aug 29 15:03:56 2022
 By www-data
Copyright (c) Font Awesome
</metadata>
<defs>
<font id="FontAwesome6Free-Regular" horiz-adv-x="512" >
  <font-face 
    font-family="Font Awesome 6 Free Regular"
    font-weight="400"
    font-stretch="normal"
    units-per-em="512"
    panose-1="2 0 5 3 0 0 0 0 0 0"
    ascent="448"
    descent="-64"
    x-height="410"
    bbox="-1 -64.143 640.143 448.266"
    underline-thickness="25"
    underline-position="-25"
    unicode-range="U+0030-U+1F9ED"
  />
<missing-glyph horiz-adv-x="384" 
d="M336 448h-288c-13.333 -0.666992 -24.666 -5.33398 -33.999 -14.001c-8.66699 -9.33301 -13.334 -20.666 -14.001 -33.999v-416c0.666992 -13.333 5.33398 -24.666 14.001 -33.999c9.33301 -8.66699 20.666 -13.334 33.999 -14.001h288
c13.333 0.666992 24.666 5.33398 33.999 14.001c8.66699 9.33301 13.334 20.666 14.001 33.999v416c-0.666992 13.333 -5.33398 24.666 -14.001 33.999c-9.33301 8.66699 -20.666 13.334 -33.999 14.001v0zM336 358v-332l-115 166l115 166v0zM192 234l-115 166h230
l-115 -166v0zM163 192l-115 -166v332l115 -166v0zM192 150l115 -166h-230l115 166v0z" />
    <glyph glyph-name=".notdef" horiz-adv-x="384" 
d="M336 448h-288c-13.333 -0.666992 -24.666 -5.33398 -33.999 -14.001c-8.66699 -9.33301 -13.334 -20.666 -14.001 -33.999v-416c0.666992 -13.333 5.33398 -24.666 14.001 -33.999c9.33301 -8.66699 20.666 -13.334 33.999 -14.001h288
c13.333 0.666992 24.666 5.33398 33.999 14.001c8.66699 9.33301 13.334 20.666 14.001 33.999v416c-0.666992 13.333 -5.33398 24.666 -14.001 33.999c-9.33301 8.66699 -20.666 13.334 -33.999 14.001v0zM336 358v-332l-115 166l115 166v0zM192 234l-115 166h230
l-115 -166v0zM163 192l-115 -166v332l115 -166v0zM192 150l115 -166h-230l115 166v0z" />
    <glyph glyph-name="hashtag" unicode="&#xf292;" horiz-adv-x="448" 
d="M424 312l-74.001 -0.000976562l14 76c0.666992 14.667 -6 24 -20 28c-14.667 0.666992 -24 -6 -28 -20l-15 -84h-111l14 76c0.666992 14.667 -6 24 -20 28c-14.667 0.666992 -24 -6 -28 -20l-15 -84h-85c-14.667 -1.33301 -22.667 -9.33301 -24 -24
c1.33301 -14.667 9.33301 -22.667 24 -24h77l-26 -144h-83c-14.667 -1.33301 -22.667 -9.33301 -24 -24c1.33301 -14.667 9.33301 -22.667 24 -24h74l-14 -76c-0.666992 -14.667 6 -24 20 -28h4c12.667 0.666992 20.667 7.33398 24 20.001l15 84h111l-14 -76
c-1.33301 -14.667 5.33398 -24 20.001 -28h4c12.667 0.666992 20.667 7.33398 24 20.001l15 84h85c14.667 1.33301 22.667 9 24 23c-1.33301 14.667 -9.33301 22.667 -24 24h-77l26 144l83 1c14.667 1.33301 22.667 9 24 23c-1.33301 15.333 -9.33301 23.666 -24 24.999v0z
M266.999 120.999h-111l25 144h112l-26 -144v0z" />
    <glyph glyph-name="hashtag" unicode="#" horiz-adv-x="448" 
d="M424 312l-74.001 -0.000976562l14 76c0.666992 14.667 -6 24 -20 28c-14.667 0.666992 -24 -6 -28 -20l-15 -84h-111l14 76c0.666992 14.667 -6 24 -20 28c-14.667 0.666992 -24 -6 -28 -20l-15 -84h-85c-14.667 -1.33301 -22.667 -9.33301 -24 -24
c1.33301 -14.667 9.33301 -22.667 24 -24h77l-26 -144h-83c-14.667 -1.33301 -22.667 -9.33301 -24 -24c1.33301 -14.667 9.33301 -22.667 24 -24h74l-14 -76c-0.666992 -14.667 6 -24 20 -28h4c12.667 0.666992 20.667 7.33398 24 20.001l15 84h111l-14 -76
c-1.33301 -14.667 5.33398 -24 20.001 -28h4c12.667 0.666992 20.667 7.33398 24 20.001l15 84h85c14.667 1.33301 22.667 9 24 23c-1.33301 14.667 -9.33301 22.667 -24 24h-77l26 144l83 1c14.667 1.33301 22.667 9 24 23c-1.33301 15.333 -9.33301 23.666 -24 24.999v0z
M266.999 120.999h-111l25 144h112l-26 -144v0z" />
    <glyph glyph-name="0" unicode="0" horiz-adv-x="320" 
d="M160 368c32 -0.666992 58.333 -11.667 79 -33v0c21.333 -20.667 32.333 -47 33 -79v-128c-0.666992 -32 -11.667 -58.333 -33 -79c-20.667 -21.333 -47 -32.333 -79 -33c-32 0.666992 -58.333 11.667 -79 33c-21.333 20.667 -32.333 47 -33 79v128
c0.666992 32 11.667 58.333 33 79c20.667 21.333 47 32.333 79 33v0zM160 416c-45.333 -1.33301 -83 -17 -113 -47v0c-30 -30 -45.667 -67.667 -47 -113v-127c1.33301 -45.333 17 -83 47 -113s67.667 -45.667 113 -47c45.333 1.33301 83 17 113 47s45.667 67.667 47 113v127
c-1.33301 45.333 -17 83 -47 113s-67.667 45.667 -113 47v0z" />
    <glyph glyph-name="1" unicode="1" horiz-adv-x="256" 
d="M256 -8c-1.33301 -14.667 -9.33203 -22.666 -23.999 -23.999h-208c-14.667 1.33301 -22.667 9.33301 -24 24c1.33301 14.667 9.33301 22.667 24 24h80v333l-67 -41c-13.333 -6.66699 -24.333 -4.33398 -33 6.99902c-6.66699 13.333 -4.33398 24.333 6.99902 33l104 64
c8 4.66699 16.333 5 25 1c8 -4.66699 12 -11.667 12 -21v-376h80c14.667 -1.33301 22.667 -9.33301 24 -24v0z" />
    <glyph glyph-name="2" unicode="2" horiz-adv-x="320" 
d="M296 -32l-271.999 0.000976562c-10.667 0.666992 -18 5.66699 -22 15c-3.33301 10.667 -1.33301 19.667 6 27l206 186c20.667 19.333 32 41.666 34 66.999s-5.66699 48.666 -23 69.999c-18 20.667 -41 32.334 -69 35.001c-28 2 -52.667 -6 -74 -24l-39 -35
c-11.333 -8.66699 -22.666 -8 -33.999 2c-8.66699 12 -8 23.333 2 34l40 35c31.333 26.667 67.666 38.667 108.999 36c40.667 -4 74.667 -21.333 102 -52c25.333 -32 36.333 -67 33 -105c-2.66699 -38 -19.334 -70.667 -50.001 -98l-159 -145h210
c14.667 -1.33301 22.667 -9.33301 24 -24c-1.33301 -14.667 -9.33301 -22.667 -24 -24v0z" />
    <glyph glyph-name="3" unicode="3" horiz-adv-x="320" 
d="M188 -32l-90.001 0.000976562c-22.667 0 -42.667 6.33301 -60 19s-29.666 29.667 -36.999 51c-3.33301 14 1.66699 24 15 30c14.667 3.33301 25 -1.66699 31 -15c4 -11.333 10.333 -20.333 19 -27c9.33301 -6.66699 20 -10 32 -10h90c24 0.666992 43.667 9 59 25
c16 15.333 24.333 35 25 59c-0.666992 23.333 -9 43 -25 59c-15.333 15.333 -35 23.333 -59 24h-100c-10.667 0.666992 -18 5.66699 -22 15c-3.33301 10 -1.66602 19 5.00098 27l149 143h-196c-14.667 1.33301 -22.667 9.33301 -24 24c1.33301 14.667 9.33301 22.667 24 24
h256c10.667 -0.666992 18 -5.66699 22 -15c3.33301 -10 1.66602 -18.667 -5.00098 -26l-149 -144h40c37.333 -0.666992 68.333 -13.334 93 -38.001c25.333 -24.667 38.333 -55.667 39 -93c-0.666992 -37.333 -13.667 -68.333 -39 -93
c-24.667 -25.333 -55.667 -38.333 -93 -39v0z" />
    <glyph glyph-name="4" unicode="4" horiz-adv-x="384" 
d="M384 120c-1.33301 -14.667 -9.33301 -22.667 -24 -24h-39l-1 -104c-1.33301 -14.667 -9.33301 -22.667 -24 -24c-14.667 1.33301 -22.667 9.33301 -24 24v104h-248c-8.66699 0 -15.667 4 -21 12c-4 7.33301 -4 15 0 23l144 272c8 12.667 18.667 16 32 10
c12.667 -8 16 -18.667 10 -32l-125 -237h208v152c1.33301 14.667 9.33301 22.667 24 24c14.667 -1.33301 22.667 -9.33301 24 -24v-152h40c14.667 -1.33301 22.667 -9.33301 24 -24v0z" />
    <glyph glyph-name="5" unicode="5" horiz-adv-x="320" 
d="M188 -32l-81.999 -0.00195312c-24.667 0 -46.334 7 -65.001 21c-18.667 13.333 -32 31.333 -40 54c-3.33301 14.667 1.66699 25 15 31c14.667 3.33301 25 -2 31 -16c4 -12.667 11.333 -22.667 22 -30c10.667 -8 23 -12 37 -12h82c23.333 0.666992 43 9 59 25
s24.333 35.667 25 59c-0.666992 24 -9 44 -25 60s-35.667 24.333 -59 25h-164c-7.33301 0 -13.333 2.66699 -18 8c-4.66699 6 -6.66699 12.667 -6 20l32 183c3.33301 12.667 11.333 19.334 24 20.001h208c14.667 -1.33301 22.667 -9.33301 24 -24
c-1.33301 -14.667 -9.33301 -22.667 -24 -24h-188l-23 -135h135c37.333 -1.33301 68.333 -14.333 93 -39c25.333 -25.333 38.333 -56.666 39 -93.999c-0.666992 -37.333 -13.667 -68.333 -39 -93c-24.667 -25.333 -55.667 -38.333 -93 -39v0z" />
    <glyph glyph-name="6" unicode="6" horiz-adv-x="320" 
d="M0 128c1.33301 -45.333 17 -83 47 -113v0c30 -30 67.667 -45.667 113 -47c45.333 1.33301 83 17 113 47s45.667 67.667 47 113c-1.33301 45.333 -17 83 -47 113s-67.667 45.667 -113 47c-3.33301 0 -7 -0.333008 -11 -1c-1.33301 0 -3 -0.333008 -5 -1l75 91
c8 12 6.66699 23.333 -4 34c-4.66699 3.33301 -9.66699 5 -15 5c-7.33301 0 -13.333 -3 -18 -9l-64 -76c-30.667 -36 -54.334 -65 -71.001 -87c-17.333 -22.667 -29.666 -42.667 -36.999 -60c-6.66699 -17.333 -10 -36 -10 -56v0zM272 128
c-0.666992 -32 -11.667 -58.334 -33 -79.001v0c-20.667 -21.333 -47 -32.333 -79 -33c-32 0.666992 -58.333 11.667 -79 33c-21.333 20.667 -32.333 47 -33 79c0.666992 32 11.667 58.333 33 79c20.667 21.333 47 32.333 79 33c32 -0.666992 58.333 -11.667 79 -33
c21.333 -21.333 32.333 -47.666 33 -78.999v0z" />
    <glyph glyph-name="7" unicode="7" horiz-adv-x="320" 
d="M56 -32c-4 0 -8 1 -12 3c-12 8.66699 -15 19.667 -9 33l219 364h-230c-14.667 1.33301 -22.667 9.33301 -24 24c1.33301 14.667 9.33301 22.667 24 24h272c9.33301 0 16.333 -4 21 -12c4 -8 4 -16 0 -24l-240 -400c-5.33301 -8 -12.333 -12 -21 -12v0z" />
    <glyph glyph-name="8" unicode="8" horiz-adv-x="320" 
d="M260 198c28 24 42.667 55.333 44 94c-0.666992 35.333 -12.667 64.666 -36 87.999s-52.666 35.333 -87.999 36h-40c-35.333 -0.666992 -64.666 -12.667 -87.999 -36s-35.333 -52.666 -36 -87.999c1.33301 -38.667 16 -70 44 -94c-18 -11.333 -32.333 -26 -43 -44
c-11.333 -18.667 -17 -39.334 -17 -62.001c0.666992 -35.333 12.667 -64.666 36 -87.999s52.666 -35.333 87.999 -36h72c35.333 0.666992 64.666 12.667 87.999 36s35.333 52.666 36 87.999c0 22.667 -5.66699 43.334 -17 62.001c-10.667 18 -25 32.667 -43 44v0zM140 368
h40c21.333 -0.666992 39.333 -8 54 -22c14 -14.667 21.333 -32.667 22 -54c-0.666992 -21.333 -8 -39.333 -22 -54c-14.667 -14 -32.667 -21.333 -54 -22h-40c-21.333 0.666992 -39.333 8 -54 22c-14 14.667 -21.333 32.667 -22 54c0.666992 21.333 8 39.333 22 54
c14.667 14 32.667 21.333 54 22v0zM196 16h-72c-21.333 0.666992 -39.333 8 -54 22c-14 14.667 -21.333 32.667 -22 54c0.666992 21.333 8 39.333 22 54c14.667 14 32.667 21.333 54 22h72c21.333 -0.666992 39.333 -8 54 -22c14 -14.667 21.333 -32.667 22 -54
c-0.666992 -21.333 -8 -39.333 -22 -54c-14.667 -14 -32.667 -21.333 -54 -22v0z" />
    <glyph glyph-name="9" unicode="9" horiz-adv-x="320" 
d="M320 256c-1.33301 45.333 -16.999 83 -46.999 113v0c-30 30 -67.667 45.667 -113 47c-45.333 -1.33301 -83 -17 -113 -47s-45.667 -67.667 -47 -113c1.33301 -45.333 17 -83 47 -113s67.667 -45.667 113 -47c4 0 7.66699 0.333008 11 1c1.33301 0 3 0.333008 5 1l-74 -91
c-8.66699 -12 -7.66699 -23 3 -33c4.66699 -4 9.66699 -6 15 -6c7.33301 0 13.666 3 18.999 9l63 76c30.667 35.333 54.334 64.333 71.001 87c17.333 22.667 29.666 42.667 36.999 60c6.66699 17.333 10 36 10 56v0zM48.001 256c0.666992 32 11.667 58.333 33 79v0
c20.667 21.333 47 32.333 79 33c32 -0.666992 58.333 -11.667 79 -33c21.333 -20.667 32.333 -47 33 -79c-0.666992 -32 -11.667 -58.333 -33 -79c-20.667 -21.333 -47 -32.333 -79 -33c-32 0.666992 -58.333 11.667 -79 33c-21.333 20.667 -32.333 47 -33 79v0z" />
    <glyph glyph-name="a" unicode="a" horiz-adv-x="384" 
d="M382 1l-167.998 400.001c-4.66699 9.33301 -12 14 -22 14s-17.333 -4.66699 -22 -14l-168 -400c-4.66699 -14 -0.333984 -24.333 12.999 -31c14 -4.66699 24.333 -0.333984 31 12.999l34 80h224l34 -80c4.66699 -10 12 -15 22 -15c3.33301 0 6.33301 0.666992 9 2
c13.333 6.66699 17.666 17 12.999 31v0zM100.002 111.001l92 220l92 -219h-184v-1z" />
    <glyph glyph-name="a" unicode="A" horiz-adv-x="384" 
d="M382 1l-167.998 400.001c-4.66699 9.33301 -12 14 -22 14s-17.333 -4.66699 -22 -14l-168 -400c-4.66699 -14 -0.333984 -24.333 12.999 -31c14 -4.66699 24.333 -0.333984 31 12.999l34 80h224l34 -80c4.66699 -10 12 -15 22 -15c3.33301 0 6.33301 0.666992 9 2
c13.333 6.66699 17.666 17 12.999 31v0zM100.002 111.001l92 220l92 -219h-184v-1z" />
    <glyph glyph-name="b" unicode="b" horiz-adv-x="320" 
d="M250 203c24.667 23.333 37.333 53.002 38 89.002c-0.666992 35.333 -12.667 64.666 -36 87.999s-52.666 35.333 -87.999 36h-140c-14.667 -1.33301 -22.667 -9.33301 -24 -24v-400c1.33301 -14.667 9.33301 -22.667 24 -24h172c35.333 0.666992 64.666 12.667 87.999 36
s35.333 52.666 36 87.999c-0.666992 24.667 -7 46.667 -19 66c-12.667 19.333 -29.667 34.333 -51 45v0zM47.999 368.002h116c21.333 -0.666992 39.333 -8 54 -22c14 -14.667 21.333 -32.667 22 -54c-0.666992 -21.333 -8 -39.333 -22 -54
c-14.667 -14 -32.667 -21.333 -54 -22h-116v152v0zM195.999 16.002h-148v152h148c21.333 -0.666992 39.333 -8 54 -22c14 -14.667 21.333 -32.667 22 -54c-0.666992 -21.333 -8 -39.333 -22 -54c-14.667 -14 -32.667 -21.333 -54 -22v0z" />
    <glyph glyph-name="b" unicode="B" horiz-adv-x="320" 
d="M250 203c24.667 23.333 37.333 53.002 38 89.002c-0.666992 35.333 -12.667 64.666 -36 87.999s-52.666 35.333 -87.999 36h-140c-14.667 -1.33301 -22.667 -9.33301 -24 -24v-400c1.33301 -14.667 9.33301 -22.667 24 -24h172c35.333 0.666992 64.666 12.667 87.999 36
s35.333 52.666 36 87.999c-0.666992 24.667 -7 46.667 -19 66c-12.667 19.333 -29.667 34.333 -51 45v0zM47.999 368.002h116c21.333 -0.666992 39.333 -8 54 -22c14 -14.667 21.333 -32.667 22 -54c-0.666992 -21.333 -8 -39.333 -22 -54
c-14.667 -14 -32.667 -21.333 -54 -22h-116v152v0zM195.999 16.002h-148v152h148c21.333 -0.666992 39.333 -8 54 -22c14 -14.667 21.333 -32.667 22 -54c-0.666992 -21.333 -8 -39.333 -22 -54c-14.667 -14 -32.667 -21.333 -54 -22v0z" />
    <glyph glyph-name="c" unicode="c" horiz-adv-x="384" 
d="M221 -32c-46.667 0.666992 -86.333 12.0059 -119 34.0059v0c-32.667 22 -57.667 50 -75 84v0c-18 33.333 -27 68.333 -27 105s9 72 27 106c17.333 34 42.333 62.333 75 85c33.333 22 73 33.333 119 34v0v0c32 -0.666992 60 -6.33398 84 -17.001
c24.667 -10.667 44 -22.334 58 -35.001c14 -13.333 21 -23.666 21 -30.999c0 -4.66699 -2 -9.66699 -6 -15c-3.33301 -5.33301 -9.33301 -8.33301 -18 -9c-8 1.33301 -17 6.66602 -27 15.999s-23.667 18.666 -41 27.999c-18 9.33301 -41.667 14.333 -71 15
c-54.667 -2 -97 -20.667 -127 -56s-45.333 -75.333 -46 -120c0.666992 -44 16 -83.667 46 -119c30 -36 72.333 -55 127 -57c29.333 0.666992 53 5.66699 71 15c17.333 9.33301 31 18.666 41 27.999s19 14.666 27 15.999c5.33301 0 10.333 -2 15 -6
c5.33301 -4 8.33301 -10 9 -18c0 -7.33301 -7 -17.666 -21 -30.999c-14 -12.667 -33 -24.334 -57 -35.001c-24.667 -10.667 -53 -16.334 -85 -17.001v0z" />
    <glyph glyph-name="c" unicode="C" horiz-adv-x="384" 
d="M221 -32c-46.667 0.666992 -86.333 12.0059 -119 34.0059v0c-32.667 22 -57.667 50 -75 84v0c-18 33.333 -27 68.333 -27 105s9 72 27 106c17.333 34 42.333 62.333 75 85c33.333 22 73 33.333 119 34v0v0c32 -0.666992 60 -6.33398 84 -17.001
c24.667 -10.667 44 -22.334 58 -35.001c14 -13.333 21 -23.666 21 -30.999c0 -4.66699 -2 -9.66699 -6 -15c-3.33301 -5.33301 -9.33301 -8.33301 -18 -9c-8 1.33301 -17 6.66602 -27 15.999s-23.667 18.666 -41 27.999c-18 9.33301 -41.667 14.333 -71 15
c-54.667 -2 -97 -20.667 -127 -56s-45.333 -75.333 -46 -120c0.666992 -44 16 -83.667 46 -119c30 -36 72.333 -55 127 -57c29.333 0.666992 53 5.66699 71 15c17.333 9.33301 31 18.666 41 27.999s19 14.666 27 15.999c5.33301 0 10.333 -2 15 -6
c5.33301 -4 8.33301 -10 9 -18c0 -7.33301 -7 -17.666 -21 -30.999c-14 -12.667 -33 -24.334 -57 -35.001c-24.667 -10.667 -53 -16.334 -85 -17.001v0z" />
    <glyph glyph-name="d" unicode="d" horiz-adv-x="384" 
d="M155 -32h-131c-14.667 1.33301 -22.667 9.33301 -24 24v400c1.33301 14.667 9.33301 22.667 24 24h131c42.667 -0.666992 81 -11 115 -31c34.667 -20 62.334 -46.667 83.001 -80c20 -34 30.333 -71.667 31 -113c-0.666992 -41.333 -11 -79 -31 -113
c-20.667 -33.333 -48.334 -60 -83.001 -80c-34 -20 -72.333 -30.333 -115 -31v0zM48 16l107 0.00195312c51.333 1.33301 94 18.666 128 51.999c34 32.667 51.667 74 53 124c-1.33301 50 -19 91.333 -53 124c-34 33.333 -76.667 50.666 -128 51.999h-107v-352v0z" />
    <glyph glyph-name="d" unicode="D" horiz-adv-x="384" 
d="M155 -32h-131c-14.667 1.33301 -22.667 9.33301 -24 24v400c1.33301 14.667 9.33301 22.667 24 24h131c42.667 -0.666992 81 -11 115 -31c34.667 -20 62.334 -46.667 83.001 -80c20 -34 30.333 -71.667 31 -113c-0.666992 -41.333 -11 -79 -31 -113
c-20.667 -33.333 -48.334 -60 -83.001 -80c-34 -20 -72.333 -30.333 -115 -31v0zM48 16l107 0.00195312c51.333 1.33301 94 18.666 128 51.999c34 32.667 51.667 74 53 124c-1.33301 50 -19 91.333 -53 124c-34 33.333 -76.667 50.666 -128 51.999h-107v-352v0z" />
    <glyph glyph-name="e" unicode="e" horiz-adv-x="320" 
d="M320 -8c-1.33301 -14.667 -9.33301 -22.667 -24 -24h-272c-14.667 1.33301 -22.667 9.33301 -24 24v400c1.33301 14.667 9.33301 22.667 24 24h272c14.667 -1.33301 22.667 -9.33301 24 -24c-1.33301 -14.667 -9.33301 -22.667 -24 -24h-248v-152h184
c14.667 -1.33301 22.667 -9.33301 24 -24c-1.33301 -14.667 -9.33301 -22.667 -24 -24h-184v-152h248c14.667 -1.33301 22.667 -9.33301 24 -24v0z" />
    <glyph glyph-name="e" unicode="E" horiz-adv-x="320" 
d="M320 -8c-1.33301 -14.667 -9.33301 -22.667 -24 -24h-272c-14.667 1.33301 -22.667 9.33301 -24 24v400c1.33301 14.667 9.33301 22.667 24 24h272c14.667 -1.33301 22.667 -9.33301 24 -24c-1.33301 -14.667 -9.33301 -22.667 -24 -24h-248v-152h184
c14.667 -1.33301 22.667 -9.33301 24 -24c-1.33301 -14.667 -9.33301 -22.667 -24 -24h-184v-152h248c14.667 -1.33301 22.667 -9.33301 24 -24v0z" />
    <glyph glyph-name="f" unicode="f" horiz-adv-x="320" 
d="M320 392c-1.33301 -14.667 -9.33301 -22.667 -24 -24h-248v-152h184c14.667 -1.33301 22.667 -9.33301 24 -24c-1.33301 -14.667 -9.33301 -22.667 -24 -24h-184v-176c-1.33301 -14.667 -9.33301 -22.667 -24 -24c-14.667 1.33301 -22.667 9.33301 -24 24v400
c1.33301 14.667 9.33301 22.667 24 24h272c14.667 -1.33301 22.667 -9.33301 24 -24v0z" />
    <glyph glyph-name="f" unicode="F" horiz-adv-x="320" 
d="M320 392c-1.33301 -14.667 -9.33301 -22.667 -24 -24h-248v-152h184c14.667 -1.33301 22.667 -9.33301 24 -24c-1.33301 -14.667 -9.33301 -22.667 -24 -24h-184v-176c-1.33301 -14.667 -9.33301 -22.667 -24 -24c-14.667 1.33301 -22.667 9.33301 -24 24v400
c1.33301 14.667 9.33301 22.667 24 24h272c14.667 -1.33301 22.667 -9.33301 24 -24v0z" />
    <glyph glyph-name="g" unicode="g" horiz-adv-x="448" 
d="M222 -32c-44 0.666992 -82.666 11.333 -115.999 32v0c-33.333 20.667 -59.333 48 -78 82v0c-18.667 33.333 -28 69.666 -28 108.999c0.666992 42 11 80 31 114c19.333 33.333 46 60 80 80c33.333 20 70.666 30.333 111.999 31
c32.667 -0.666992 61.334 -6.33398 86.001 -17.001s44 -22.334 58 -35.001c14 -13.333 21.333 -23.666 22 -30.999c-0.666992 -9.33301 -4 -15.666 -10 -18.999s-11 -5 -15 -5c-7.33301 0.666992 -16.333 6 -27 16c-10 9.33301 -24 18.666 -42 27.999
c-17.333 9.33301 -41.333 14.333 -72 15c-49.333 -1.33301 -90.666 -18.333 -123.999 -51c-32.667 -33.333 -49.667 -75.333 -51 -126c-0.666992 -14 3.66602 -34.667 12.999 -62s26.666 -52.666 51.999 -75.999s62 -35.666 110 -36.999
c18.667 -0.666992 40.667 3.66602 66 12.999s48.666 25 69.999 47c20.667 22 33.667 52.333 39 91h-150c-14.667 1.33301 -22.667 9.33301 -24 24c1.33301 14.667 9 22.667 23 24h175c14.667 -1.33301 22.334 -9.33301 23.001 -24c0 -47.333 -11 -87.666 -33 -120.999
c-22 -32.667 -50 -57.667 -84 -75s-69.333 -26.333 -106 -27v0z" />
    <glyph glyph-name="g" unicode="G" horiz-adv-x="448" 
d="M222 -32c-44 0.666992 -82.666 11.333 -115.999 32v0c-33.333 20.667 -59.333 48 -78 82v0c-18.667 33.333 -28 69.666 -28 108.999c0.666992 42 11 80 31 114c19.333 33.333 46 60 80 80c33.333 20 70.666 30.333 111.999 31
c32.667 -0.666992 61.334 -6.33398 86.001 -17.001s44 -22.334 58 -35.001c14 -13.333 21.333 -23.666 22 -30.999c-0.666992 -9.33301 -4 -15.666 -10 -18.999s-11 -5 -15 -5c-7.33301 0.666992 -16.333 6 -27 16c-10 9.33301 -24 18.666 -42 27.999
c-17.333 9.33301 -41.333 14.333 -72 15c-49.333 -1.33301 -90.666 -18.333 -123.999 -51c-32.667 -33.333 -49.667 -75.333 -51 -126c-0.666992 -14 3.66602 -34.667 12.999 -62s26.666 -52.666 51.999 -75.999s62 -35.666 110 -36.999
c18.667 -0.666992 40.667 3.66602 66 12.999s48.666 25 69.999 47c20.667 22 33.667 52.333 39 91h-150c-14.667 1.33301 -22.667 9.33301 -24 24c1.33301 14.667 9 22.667 23 24h175c14.667 -1.33301 22.334 -9.33301 23.001 -24c0 -47.333 -11 -87.666 -33 -120.999
c-22 -32.667 -50 -57.667 -84 -75s-69.333 -26.333 -106 -27v0z" />
    <glyph glyph-name="h" unicode="h" horiz-adv-x="384" 
d="M384 392v-400c-1.33301 -14.667 -9.33301 -22.667 -24 -24c-14.667 1.33301 -22.667 9.33301 -24 24v200h-288v-200c-1.33301 -14.667 -9.33301 -22.667 -24 -24c-14.667 1.33301 -22.667 9.33301 -24 24v400c1.33301 14.667 9.33301 22.667 24 24
c14.667 -1.33301 22.667 -9.33301 24 -24v-152h288v152c1.33301 14.667 9.33301 22.667 24 24c14.667 -1.33301 22.667 -9.33301 24 -24v0z" />
    <glyph glyph-name="h" unicode="H" horiz-adv-x="384" 
d="M384 392v-400c-1.33301 -14.667 -9.33301 -22.667 -24 -24c-14.667 1.33301 -22.667 9.33301 -24 24v200h-288v-200c-1.33301 -14.667 -9.33301 -22.667 -24 -24c-14.667 1.33301 -22.667 9.33301 -24 24v400c1.33301 14.667 9.33301 22.667 24 24
c14.667 -1.33301 22.667 -9.33301 24 -24v-152h288v152c1.33301 14.667 9.33301 22.667 24 24c14.667 -1.33301 22.667 -9.33301 24 -24v0z" />
    <glyph glyph-name="i" unicode="i" horiz-adv-x="320" 
d="M320 -8c-1.33301 -14.667 -9.33301 -22.667 -24 -24h-272c-14.667 1.33301 -22.667 9.33301 -24 24c1.33301 14.667 9.33301 22.667 24 24h112v352h-112c-14.667 1.33301 -22.667 9.33301 -24 24c1.33301 14.667 9.33301 22.667 24 24h272
c14.667 -1.33301 22.667 -9.33301 24 -24c-1.33301 -14.667 -9.33301 -22.667 -24 -24h-112v-352h112c14.667 -1.33301 22.667 -9.33301 24 -24v0z" />
    <glyph glyph-name="i" unicode="I" horiz-adv-x="320" 
d="M320 -8c-1.33301 -14.667 -9.33301 -22.667 -24 -24h-272c-14.667 1.33301 -22.667 9.33301 -24 24c1.33301 14.667 9.33301 22.667 24 24h112v352h-112c-14.667 1.33301 -22.667 9.33301 -24 24c1.33301 14.667 9.33301 22.667 24 24h272
c14.667 -1.33301 22.667 -9.33301 24 -24c-1.33301 -14.667 -9.33301 -22.667 -24 -24h-112v-352h112c14.667 -1.33301 22.667 -9.33301 24 -24v0z" />
    <glyph glyph-name="j" unicode="j" horiz-adv-x="320" 
d="M160 -32c-45.333 1.33301 -83 16.333 -113 45v0c-30 29.333 -45.667 65.666 -47 108.999v46c1.33301 14.667 9.33301 22.667 24 24c14.667 -1.33301 22.667 -9.33301 24 -24v-46c0.666992 -30 11.667 -55 33 -75c20.667 -20 47 -30.333 79 -31
c32 0.666992 58.333 11 79 31c21.333 20 32.333 45 33 75v270c1.33301 14.667 9.33301 22.667 24 24c14.667 -1.33301 22.667 -9.33301 24 -24v-270c-1.33301 -43.333 -17 -79.666 -47 -108.999c-30 -28.667 -67.667 -43.667 -113 -45v0z" />
    <glyph glyph-name="j" unicode="J" horiz-adv-x="320" 
d="M160 -32c-45.333 1.33301 -83 16.333 -113 45v0c-30 29.333 -45.667 65.666 -47 108.999v46c1.33301 14.667 9.33301 22.667 24 24c14.667 -1.33301 22.667 -9.33301 24 -24v-46c0.666992 -30 11.667 -55 33 -75c20.667 -20 47 -30.333 79 -31
c32 0.666992 58.333 11 79 31c21.333 20 32.333 45 33 75v270c1.33301 14.667 9.33301 22.667 24 24c14.667 -1.33301 22.667 -9.33301 24 -24v-270c-1.33301 -43.333 -17 -79.666 -47 -108.999c-30 -28.667 -67.667 -43.667 -113 -45v0z" />
    <glyph glyph-name="k" unicode="k" horiz-adv-x="320" 
d="M316 6c7.33301 -12.667 5.33496 -24.001 -5.99805 -34.001c-4.66699 -2.66699 -9.33398 -4 -14.001 -4c-8 0 -14.667 3.33301 -20 10l-148 212l-80 -81v-117c-1.33301 -14.667 -9.33301 -22.667 -24 -24c-14.667 1.33301 -22.667 9.33301 -24 24v400
c1.33301 14.667 9.33301 22.667 24 24c14.667 -1.33301 22.667 -9.33301 24 -24v-215l231 232c11.333 9.33301 22.666 9.33301 33.999 0c9.33301 -11.333 9.33301 -22.666 0 -33.999l-151 -152v0l1 -1l153 -216v0z" />
    <glyph glyph-name="k" unicode="K" horiz-adv-x="320" 
d="M316 6c7.33301 -12.667 5.33496 -24.001 -5.99805 -34.001c-4.66699 -2.66699 -9.33398 -4 -14.001 -4c-8 0 -14.667 3.33301 -20 10l-148 212l-80 -81v-117c-1.33301 -14.667 -9.33301 -22.667 -24 -24c-14.667 1.33301 -22.667 9.33301 -24 24v400
c1.33301 14.667 9.33301 22.667 24 24c14.667 -1.33301 22.667 -9.33301 24 -24v-215l231 232c11.333 9.33301 22.666 9.33301 33.999 0c9.33301 -11.333 9.33301 -22.666 0 -33.999l-151 -152v0l1 -1l153 -216v0z" />
    <glyph glyph-name="l" unicode="l" horiz-adv-x="320" 
d="M296 -32h-240c-14.667 1.33301 -22.667 9.33301 -24 24v400c1.33301 14.667 9.33301 22.667 24 24c14.667 -1.33301 22.667 -9.33301 24 -24v-376h216c14.667 -1.33301 22.667 -9.33301 24 -24c-1.33301 -14.667 -9.33301 -22.667 -24 -24v0z" />
    <glyph glyph-name="l" unicode="L" horiz-adv-x="320" 
d="M296 -32h-240c-14.667 1.33301 -22.667 9.33301 -24 24v400c1.33301 14.667 9.33301 22.667 24 24c14.667 -1.33301 22.667 -9.33301 24 -24v-376h216c14.667 -1.33301 22.667 -9.33301 24 -24c-1.33301 -14.667 -9.33301 -22.667 -24 -24v0z" />
    <glyph glyph-name="m" unicode="m" horiz-adv-x="448" 
d="M424 -32c-14.667 1.33301 -22.667 9.33301 -24 24v320l-156 -237c-4.66699 -6.66699 -11.334 -10 -20.001 -10s-15.334 3.33301 -20.001 10l-156 237v-320c-1.33301 -14.667 -9.33301 -22.667 -24 -24c-14.667 1.33301 -22.667 9.33301 -24 24v400
c0.666992 11.333 6.33398 19 17.001 23c11.333 2.66699 20.333 -0.666016 27 -9.99902l180 -273l180 273c6.66699 9.33301 15.667 12.666 27 9.99902c10.667 -4 16.334 -11.667 17.001 -23v-400c-1.33301 -14.667 -9.33301 -22.667 -24 -24v0z" />
    <glyph glyph-name="m" unicode="M" horiz-adv-x="448" 
d="M424 -32c-14.667 1.33301 -22.667 9.33301 -24 24v320l-156 -237c-4.66699 -6.66699 -11.334 -10 -20.001 -10s-15.334 3.33301 -20.001 10l-156 237v-320c-1.33301 -14.667 -9.33301 -22.667 -24 -24c-14.667 1.33301 -22.667 9.33301 -24 24v400
c0.666992 11.333 6.33398 19 17.001 23c11.333 2.66699 20.333 -0.666016 27 -9.99902l180 -273l180 273c6.66699 9.33301 15.667 12.666 27 9.99902c10.667 -4 16.334 -11.667 17.001 -23v-400c-1.33301 -14.667 -9.33301 -22.667 -24 -24v0z" />
    <glyph glyph-name="n" unicode="n" horiz-adv-x="384" 
d="M360 -32c-7.33301 0 -13.332 3 -17.999 9l-294 349v-334c-1.33301 -14.667 -9.33301 -22.667 -24 -24c-14.667 1.33301 -22.667 9.33301 -24 24v400c0.666992 10.667 6 18.334 16 23.001c10 2.66699 18.667 0 26 -8l294 -349v334c1.33301 14.667 9.33301 22.667 24 24
c14.667 -1.33301 22.667 -9.33301 24 -24v-400c-0.666992 -10.667 -6 -18.334 -16 -23.001c-2.66699 -0.666992 -5.33398 -1 -8.00098 -1v0z" />
    <glyph glyph-name="n" unicode="N" horiz-adv-x="384" 
d="M360 -32c-7.33301 0 -13.332 3 -17.999 9l-294 349v-334c-1.33301 -14.667 -9.33301 -22.667 -24 -24c-14.667 1.33301 -22.667 9.33301 -24 24v400c0.666992 10.667 6 18.334 16 23.001c10 2.66699 18.667 0 26 -8l294 -349v334c1.33301 14.667 9.33301 22.667 24 24
c14.667 -1.33301 22.667 -9.33301 24 -24v-400c-0.666992 -10.667 -6 -18.334 -16 -23.001c-2.66699 -0.666992 -5.33398 -1 -8.00098 -1v0z" />
    <glyph glyph-name="o" unicode="o" horiz-adv-x="448" 
d="M224 -32c-41.333 0.666992 -79 11 -113 31v0c-33.333 20 -60 46.667 -80 80v0c-20 34 -30.333 71.667 -31 113c0.666992 41.333 11 79 31 113c20 33.333 46.667 60 80 80c34 20 71.667 30.333 113 31c41.333 -0.666992 79 -11 113 -31c33.333 -20 60 -46.667 80 -80
c20 -34 30.333 -71.667 31 -113c-0.666992 -41.333 -11 -79 -31 -113c-20 -33.333 -46.667 -60 -80 -80c-34 -20 -71.667 -30.333 -113 -31v0zM224 368c-50 -1.33301 -91.666 -18.3311 -124.999 -50.998v0c-32.667 -33.333 -49.667 -75 -51 -125
c1.33301 -50 18.666 -91.667 51.999 -125c32.667 -32.667 74 -49.667 124 -51c50 1.33301 91.333 18.666 124 51.999c33.333 32.667 50.666 74 51.999 124c-1.33301 50 -18.666 91.333 -51.999 124c-32.667 33.333 -74 50.666 -124 51.999v0z" />
    <glyph glyph-name="o" unicode="O" horiz-adv-x="448" 
d="M224 -32c-41.333 0.666992 -79 11 -113 31v0c-33.333 20 -60 46.667 -80 80v0c-20 34 -30.333 71.667 -31 113c0.666992 41.333 11 79 31 113c20 33.333 46.667 60 80 80c34 20 71.667 30.333 113 31c41.333 -0.666992 79 -11 113 -31c33.333 -20 60 -46.667 80 -80
c20 -34 30.333 -71.667 31 -113c-0.666992 -41.333 -11 -79 -31 -113c-20 -33.333 -46.667 -60 -80 -80c-34 -20 -71.667 -30.333 -113 -31v0zM224 368c-50 -1.33301 -91.666 -18.3311 -124.999 -50.998v0c-32.667 -33.333 -49.667 -75 -51 -125
c1.33301 -50 18.666 -91.667 51.999 -125c32.667 -32.667 74 -49.667 124 -51c50 1.33301 91.333 18.666 124 51.999c33.333 32.667 50.666 74 51.999 124c-1.33301 50 -18.666 91.333 -51.999 124c-32.667 33.333 -74 50.666 -124 51.999v0z" />
    <glyph glyph-name="p" unicode="p" horiz-adv-x="320" 
d="M24 -32c-14.667 1.33301 -22.668 9.33496 -24.001 24.002v400c1.33301 14.667 9.33301 22.667 24 24h144c42.667 -1.33301 78.334 -16.333 107.001 -45s43.667 -64.334 45 -107.001c-1.33301 -42.667 -16.333 -78.334 -45 -107.001c-28 -28.667 -63.667 -43.667 -107 -45
h-120v-120c-1.33301 -14.667 -9.33301 -22.667 -24 -24v0zM47.999 160.002h119.999c29.333 0.666992 54 10.667 74 30c19.333 20 29.333 44.667 30 74c-0.666992 29.333 -11 54 -31 74c-19.333 19.333 -43.666 29.333 -72.999 30h-120v-208v0z" />
    <glyph glyph-name="p" unicode="P" horiz-adv-x="320" 
d="M24 -32c-14.667 1.33301 -22.668 9.33496 -24.001 24.002v400c1.33301 14.667 9.33301 22.667 24 24h144c42.667 -1.33301 78.334 -16.333 107.001 -45s43.667 -64.334 45 -107.001c-1.33301 -42.667 -16.333 -78.334 -45 -107.001c-28 -28.667 -63.667 -43.667 -107 -45
h-120v-120c-1.33301 -14.667 -9.33301 -22.667 -24 -24v0zM47.999 160.002h119.999c29.333 0.666992 54 10.667 74 30c19.333 20 29.333 44.667 30 74c-0.666992 29.333 -11 54 -31 74c-19.333 19.333 -43.666 29.333 -72.999 30h-120v-208v0z" />
    <glyph glyph-name="q" unicode="q" horiz-adv-x="448" 
d="M388 40c38.667 41.333 58.667 92 60 152c-0.666992 41.333 -11 79 -31 113c-19.333 33.333 -46 60 -80 80c-33.333 20 -70.666 30.333 -111.999 31c-41.333 -0.666992 -79 -11 -113 -31s-61 -46.667 -81 -80c-20 -34 -30.333 -71.667 -31 -113
c0.666992 -41.333 11 -79 31 -113c19.333 -33.333 46 -60 80 -80c33.333 -20 70.666 -30.333 111.999 -31c48 0.666992 90.667 14 128 40l54 -63c6 -6 12.333 -9 19 -9c8 0.666992 14 3.33398 18 8.00098c4 5.33301 6 10.666 6 15.999s-2 10.333 -6 15l-54 65v0zM224 16
c-50 1.33301 -91.334 18.667 -124.001 52v0c-33.333 32.667 -50.666 74 -51.999 124c1.33301 50 18.333 91.333 51 124c33.333 33.333 75 50.666 125 51.999c50 -1.33301 91.667 -18.666 125 -51.999c32.667 -32.667 49.667 -74 51 -124
c-0.666992 -45.333 -15 -83.666 -43 -114.999l-91 106c-4.66699 6 -10.667 9 -18 9c-8 -0.666992 -14 -3.33398 -18 -8.00098c-3.33301 -5.33301 -5 -10.666 -5 -15.999s2 -10.333 6 -15l90 -108c-28.667 -18.667 -61 -28.334 -97 -29.001v0z" />
    <glyph glyph-name="q" unicode="Q" horiz-adv-x="448" 
d="M388 40c38.667 41.333 58.667 92 60 152c-0.666992 41.333 -11 79 -31 113c-19.333 33.333 -46 60 -80 80c-33.333 20 -70.666 30.333 -111.999 31c-41.333 -0.666992 -79 -11 -113 -31s-61 -46.667 -81 -80c-20 -34 -30.333 -71.667 -31 -113
c0.666992 -41.333 11 -79 31 -113c19.333 -33.333 46 -60 80 -80c33.333 -20 70.666 -30.333 111.999 -31c48 0.666992 90.667 14 128 40l54 -63c6 -6 12.333 -9 19 -9c8 0.666992 14 3.33398 18 8.00098c4 5.33301 6 10.666 6 15.999s-2 10.333 -6 15l-54 65v0zM224 16
c-50 1.33301 -91.334 18.667 -124.001 52v0c-33.333 32.667 -50.666 74 -51.999 124c1.33301 50 18.333 91.333 51 124c33.333 33.333 75 50.666 125 51.999c50 -1.33301 91.667 -18.666 125 -51.999c32.667 -32.667 49.667 -74 51 -124
c-0.666992 -45.333 -15 -83.666 -43 -114.999l-91 106c-4.66699 6 -10.667 9 -18 9c-8 -0.666992 -14 -3.33398 -18 -8.00098c-3.33301 -5.33301 -5 -10.666 -5 -15.999s2 -10.333 6 -15l90 -108c-28.667 -18.667 -61 -28.334 -97 -29.001v0z" />
    <glyph glyph-name="r" unicode="r" horiz-adv-x="320" 
d="M203 161c33.333 3.33301 61 16.666 83 39.999v0c22 24 33.333 53 34 87c-1.33301 36 -14 66 -38 90c-24 24.667 -54 37.334 -90 38.001h-168c-14.667 -1.33301 -22.667 -9.33301 -24 -24v-400c1.33301 -14.667 9.33301 -22.667 24 -24
c14.667 1.33301 22.667 9.33301 24 24v168h96l133 -182c4.66699 -6.66699 11 -10 19 -10c5.33301 0 10 1.66699 14 5c11.333 9.33301 13 20.333 5 33l-112 155v0zM48 368l144 0.00195312c22.667 -0.666992 41.667 -8.33398 57 -23.001
c14.667 -15.333 22.334 -34.333 23.001 -57c-0.666992 -22.667 -8.33398 -41.667 -23.001 -57c-15.333 -14.667 -34.333 -22.334 -57 -23.001h-144v160v0z" />
    <glyph glyph-name="r" unicode="R" horiz-adv-x="320" 
d="M203 161c33.333 3.33301 61 16.666 83 39.999v0c22 24 33.333 53 34 87c-1.33301 36 -14 66 -38 90c-24 24.667 -54 37.334 -90 38.001h-168c-14.667 -1.33301 -22.667 -9.33301 -24 -24v-400c1.33301 -14.667 9.33301 -22.667 24 -24
c14.667 1.33301 22.667 9.33301 24 24v168h96l133 -182c4.66699 -6.66699 11 -10 19 -10c5.33301 0 10 1.66699 14 5c11.333 9.33301 13 20.333 5 33l-112 155v0zM48 368l144 0.00195312c22.667 -0.666992 41.667 -8.33398 57 -23.001
c14.667 -15.333 22.334 -34.333 23.001 -57c-0.666992 -22.667 -8.33398 -41.667 -23.001 -57c-15.333 -14.667 -34.333 -22.334 -57 -23.001h-144v160v0z" />
    <glyph glyph-name="s" unicode="s" horiz-adv-x="384" 
d="M350 65c-6.66699 -35.333 -24.6699 -61.3301 -54.0029 -77.9971c-26 -13.333 -54.333 -19.666 -85 -18.999c-34.667 0.666992 -67 5.33398 -97 14.001c-30.667 8.66699 -53 16 -67 22c-13.333 6.66699 -17.666 17 -12.999 31c6.66699 13.333 17 17.666 31 12.999
c44 -17.333 84.333 -27.666 121 -30.999s65.334 0.666992 86.001 12c16.667 9.33301 27 24.333 31 45c4.66699 25.333 -2.66602 44.666 -21.999 57.999c-19.333 12.667 -51.333 25 -96 37c-25.333 6.66699 -50.666 15 -75.999 25c-25.333 10.667 -45.333 25.667 -60 45
c-15.333 19.333 -20.333 45.666 -15 78.999c6 31.333 22.333 56 49 74c46.667 29.333 117 31.666 211 6.99902c14.667 -4.66699 20.667 -14.334 18 -29.001c-4.66699 -14 -14.334 -19.667 -29.001 -17c-50 12 -88.667 17 -116 15
c-27.333 -2.66699 -46.666 -8.33398 -57.999 -17.001c-18 -13.333 -27.333 -27 -28 -41c-4.66699 -26 2.66602 -45.333 21.999 -58c19.333 -13.333 51 -25.666 95 -36.999c26 -6.66699 51.667 -15.334 77 -26.001c25.333 -10 45.333 -24.667 60 -44
c15.333 -19.333 20.333 -46 15 -80v0z" />
    <glyph glyph-name="s" unicode="S" horiz-adv-x="384" 
d="M350 65c-6.66699 -35.333 -24.6699 -61.3301 -54.0029 -77.9971c-26 -13.333 -54.333 -19.666 -85 -18.999c-34.667 0.666992 -67 5.33398 -97 14.001c-30.667 8.66699 -53 16 -67 22c-13.333 6.66699 -17.666 17 -12.999 31c6.66699 13.333 17 17.666 31 12.999
c44 -17.333 84.333 -27.666 121 -30.999s65.334 0.666992 86.001 12c16.667 9.33301 27 24.333 31 45c4.66699 25.333 -2.66602 44.666 -21.999 57.999c-19.333 12.667 -51.333 25 -96 37c-25.333 6.66699 -50.666 15 -75.999 25c-25.333 10.667 -45.333 25.667 -60 45
c-15.333 19.333 -20.333 45.666 -15 78.999c6 31.333 22.333 56 49 74c46.667 29.333 117 31.666 211 6.99902c14.667 -4.66699 20.667 -14.334 18 -29.001c-4.66699 -14 -14.334 -19.667 -29.001 -17c-50 12 -88.667 17 -116 15
c-27.333 -2.66699 -46.666 -8.33398 -57.999 -17.001c-18 -13.333 -27.333 -27 -28 -41c-4.66699 -26 2.66602 -45.333 21.999 -58c19.333 -13.333 51 -25.666 95 -36.999c26 -6.66699 51.667 -15.334 77 -26.001c25.333 -10 45.333 -24.667 60 -44
c15.333 -19.333 20.333 -46 15 -80v0z" />
    <glyph glyph-name="t" unicode="t" horiz-adv-x="384" 
d="M384 392c-1.33301 -14.667 -9.33301 -22.667 -24 -24h-144v-376c-1.33301 -14.667 -9.33301 -22.667 -24 -24c-14.667 1.33301 -22.667 9.33301 -24 24v376h-144c-14.667 1.33301 -22.667 9.33301 -24 24c1.33301 14.667 9.33301 22.667 24 24h336
c14.667 -1.33301 22.667 -9.33301 24 -24v0z" />
    <glyph glyph-name="t" unicode="T" horiz-adv-x="384" 
d="M384 392c-1.33301 -14.667 -9.33301 -22.667 -24 -24h-144v-376c-1.33301 -14.667 -9.33301 -22.667 -24 -24c-14.667 1.33301 -22.667 9.33301 -24 24v376h-144c-14.667 1.33301 -22.667 9.33301 -24 24c1.33301 14.667 9.33301 22.667 24 24h336
c14.667 -1.33301 22.667 -9.33301 24 -24v0z" />
    <glyph glyph-name="u" unicode="u" horiz-adv-x="384" 
d="M192 -32c-54 1.33301 -99.333 19.666 -136 54.999v0c-36 36 -54.667 80.667 -56 134v235c1.33301 14.667 9.33301 22.667 24 24c14.667 -1.33301 22.667 -9.33301 24 -24v-235c1.33301 -40 15.333 -73.333 42 -100c27.333 -26 61.333 -39.667 102 -41
c40.667 1.33301 74.667 15 102 41c26.667 26.667 40.667 60 42 100v235c1.33301 14.667 9.33301 22.667 24 24c14.667 -1.33301 22.667 -9.33301 24 -24v-235c-1.33301 -53.333 -20 -98 -56 -134c-36.667 -35.333 -82 -53.666 -136 -54.999v0z" />
    <glyph glyph-name="u" unicode="U" horiz-adv-x="384" 
d="M192 -32c-54 1.33301 -99.333 19.666 -136 54.999v0c-36 36 -54.667 80.667 -56 134v235c1.33301 14.667 9.33301 22.667 24 24c14.667 -1.33301 22.667 -9.33301 24 -24v-235c1.33301 -40 15.333 -73.333 42 -100c27.333 -26 61.333 -39.667 102 -41
c40.667 1.33301 74.667 15 102 41c26.667 26.667 40.667 60 42 100v235c1.33301 14.667 9.33301 22.667 24 24c14.667 -1.33301 22.667 -9.33301 24 -24v-235c-1.33301 -53.333 -20 -98 -56 -134c-36.667 -35.333 -82 -53.666 -136 -54.999v0z" />
    <glyph glyph-name="v" unicode="v" horiz-adv-x="384" 
d="M192 -32c-10.667 0.666992 -17.998 5.66699 -21.998 15l-168 400c-4.66699 14 -0.333984 24.333 12.999 31c14 4.66699 24.333 0.333984 31 -12.999l146 -347l146 347c6.66699 13.333 17 17.666 31 12.999c13.333 -6.66699 17.666 -17 12.999 -31l-168 -400
c-4 -9.33301 -11.333 -14.333 -22 -15v0z" />
    <glyph glyph-name="v" unicode="V" horiz-adv-x="384" 
d="M192 -32c-10.667 0.666992 -17.998 5.66699 -21.998 15l-168 400c-4.66699 14 -0.333984 24.333 12.999 31c14 4.66699 24.333 0.333984 31 -12.999l146 -347l146 347c6.66699 13.333 17 17.666 31 12.999c13.333 -6.66699 17.666 -17 12.999 -31l-168 -400
c-4 -9.33301 -11.333 -14.333 -22 -15v0z" />
    <glyph glyph-name="w" unicode="w" horiz-adv-x="576" 
d="M408 -32h-1c-10.667 0.666992 -18 6.33398 -22 17.001l-97 323l-98 -323c-4 -10.667 -11.333 -16.334 -22 -17.001c-11.333 0.666992 -19 6 -23 16l-144 400c-4 14 0.666992 24.333 14 31c14.667 3.33301 25.334 -1.66699 32.001 -15l119 -331l99 330
c4 10.667 11.667 16.334 23 17.001c11.333 -0.666992 19 -6.33398 23 -17.001l99 -330l119 331c6.66699 13.333 17 18.333 31 15c13.333 -6.66699 18.333 -17 15 -31l-144 -400c-4.66699 -10 -12.334 -15.333 -23.001 -16v0z" />
    <glyph glyph-name="w" unicode="W" horiz-adv-x="576" 
d="M408 -32h-1c-10.667 0.666992 -18 6.33398 -22 17.001l-97 323l-98 -323c-4 -10.667 -11.333 -16.334 -22 -17.001c-11.333 0.666992 -19 6 -23 16l-144 400c-4 14 0.666992 24.333 14 31c14.667 3.33301 25.334 -1.66699 32.001 -15l119 -331l99 330
c4 10.667 11.667 16.334 23 17.001c11.333 -0.666992 19 -6.33398 23 -17.001l99 -330l119 331c6.66699 13.333 17 18.333 31 15c13.333 -6.66699 18.333 -17 15 -31l-144 -400c-4.66699 -10 -12.334 -15.333 -23.001 -16v0z" />
    <glyph glyph-name="x" unicode="x" horiz-adv-x="384" 
d="M378 7c8.66699 -12 7.66699 -23 -3 -33c-4.66699 -4 -9.66699 -6 -15 -6c-7.33301 0 -13.333 3 -18 9l-150 178l-150 -178c-4.66699 -6 -10.667 -9 -18 -9c-5.33301 0 -10.333 2 -15 6c-10.667 10 -11.667 21 -3 33l155 185l-155 185c-8.66699 12 -7.66699 23 3 33
c12 8.66699 23 7.66699 33 -3l150 -178l150 178c10 10.667 21 11.667 33 3c10.667 -10 11.667 -21 3 -33l-155 -185l155 -185v0z" />
    <glyph glyph-name="x" unicode="X" horiz-adv-x="384" 
d="M378 7c8.66699 -12 7.66699 -23 -3 -33c-4.66699 -4 -9.66699 -6 -15 -6c-7.33301 0 -13.333 3 -18 9l-150 178l-150 -178c-4.66699 -6 -10.667 -9 -18 -9c-5.33301 0 -10.333 2 -15 6c-10.667 10 -11.667 21 -3 33l155 185l-155 185c-8.66699 12 -7.66699 23 3 33
c12 8.66699 23 7.66699 33 -3l150 -178l150 178c10 10.667 21 11.667 33 3c10.667 -10 11.667 -21 3 -33l-155 -185l155 -185v0z" />
    <glyph glyph-name="y" unicode="y" horiz-adv-x="384" 
d="M379 378l-163 -226v-160c-1.33301 -14.667 -9.33301 -22.667 -24 -24c-14.667 1.33301 -22.667 9.33301 -24 24v160l-163 226c-8 12.667 -6.33301 23.667 5 33c12.667 8 23.667 6.33301 33 -5l149 -205l149 205c9.33301 11.333 20.333 13 33 5
c11.333 -9.33301 13 -20.333 5 -33v0z" />
    <glyph glyph-name="y" unicode="Y" horiz-adv-x="384" 
d="M379 378l-163 -226v-160c-1.33301 -14.667 -9.33301 -22.667 -24 -24c-14.667 1.33301 -22.667 9.33301 -24 24v160l-163 226c-8 12.667 -6.33301 23.667 5 33c12.667 8 23.667 6.33301 33 -5l149 -205l149 205c9.33301 11.333 20.333 13 33 5
c11.333 -9.33301 13 -20.333 5 -33v0z" />
    <glyph glyph-name="z" unicode="z" horiz-adv-x="384" 
d="M360 -32h-336c-10 0.666992 -17.333 5.33398 -22 14.001c-4 9.33301 -2.66699 17.666 4 24.999l303 361h-285c-14.667 1.33301 -22.667 9.33301 -24 24c1.33301 14.667 9.33301 22.667 24 24h336c10 -0.666992 17.333 -5.33398 22 -14.001
c4 -9.33301 2.66699 -17.666 -4 -24.999l-302 -361h284c14.667 -1.33301 22.667 -9.33301 24 -24c-1.33301 -14.667 -9.33301 -22.667 -24 -24v0z" />
    <glyph glyph-name="z" unicode="Z" horiz-adv-x="384" 
d="M360 -32h-336c-10 0.666992 -17.333 5.33398 -22 14.001c-4 9.33301 -2.66699 17.666 4 24.999l303 361h-285c-14.667 1.33301 -22.667 9.33301 -24 24c1.33301 14.667 9.33301 22.667 24 24h336c10 -0.666992 17.333 -5.33398 22 -14.001
c4 -9.33301 2.66699 -17.666 -4 -24.999l-302 -361h284c14.667 -1.33301 22.667 -9.33301 24 -24c-1.33301 -14.667 -9.33301 -22.667 -24 -24v0z" />
    <glyph glyph-name="copyright" unicode="&#xf1f9;" 
d="M256 448c-48 -0.666992 -91 -12.334 -129 -35.001v0c-38.667 -22.667 -69.334 -53.334 -92.001 -92.001v0c-22.667 -38 -34.334 -81 -35.001 -129c0.666992 -48 12.334 -91 35.001 -129c22.667 -38.667 53.334 -69.334 92.001 -92.001c38 -22.667 81 -34.334 129 -35.001
c48 0.666992 91 12.334 129 35.001c38.667 22.667 69.334 53.334 92.001 92.001c22.667 38 34.334 81 35.001 129c-0.666992 48 -12.334 91 -35.001 129c-22.667 38.667 -53.334 69.334 -92.001 92.001c-38 22.667 -81 34.334 -129 35.001v0zM256 -16
c-58.667 1.33301 -107.667 21.666 -147 60.999v0c-39.333 39.333 -59.666 88.333 -60.999 147c1.33301 58.667 21.666 107.667 60.999 147s88.333 59.666 147 60.999c58.667 -1.33301 107.667 -21.666 147 -60.999s59.666 -88.333 60.999 -147
c-1.33301 -58.667 -21.666 -107.667 -60.999 -147s-88.333 -59.666 -147 -60.999v0zM255 272v0v0c22 0 40.667 -7.66699 56 -23c11.333 -9.33301 22.666 -9.66602 33.999 -0.999023c9.33301 11.333 9.33301 22.666 0 33.999c-24.667 24.667 -54.667 37.334 -90 38.001v0
c-34.667 -0.666992 -64.667 -13.334 -90 -38.001c-24.667 -26 -37 -56 -37 -90s12.333 -64 37 -90c25.333 -24.667 55.333 -37.334 90 -38.001v0v0c35.333 0.666992 65.333 13.334 90 38.001c9.33301 11.333 9.33301 22.666 0 33.999
c-11.333 8.66699 -22.666 8.33398 -33.999 -0.999023c-15.333 -15.333 -34 -23 -56 -23v0c-21.333 0 -40 7.66699 -56 23c-15.333 16.667 -23 35.667 -23 57s7.66699 40.333 23 57c16 15.333 34.667 23 56 23v0z" />
    <glyph glyph-name="copyright" unicode="&#xa9;" 
d="M256 448c-48 -0.666992 -91 -12.334 -129 -35.001v0c-38.667 -22.667 -69.334 -53.334 -92.001 -92.001v0c-22.667 -38 -34.334 -81 -35.001 -129c0.666992 -48 12.334 -91 35.001 -129c22.667 -38.667 53.334 -69.334 92.001 -92.001c38 -22.667 81 -34.334 129 -35.001
c48 0.666992 91 12.334 129 35.001c38.667 22.667 69.334 53.334 92.001 92.001c22.667 38 34.334 81 35.001 129c-0.666992 48 -12.334 91 -35.001 129c-22.667 38.667 -53.334 69.334 -92.001 92.001c-38 22.667 -81 34.334 -129 35.001v0zM256 -16
c-58.667 1.33301 -107.667 21.666 -147 60.999v0c-39.333 39.333 -59.666 88.333 -60.999 147c1.33301 58.667 21.666 107.667 60.999 147s88.333 59.666 147 60.999c58.667 -1.33301 107.667 -21.666 147 -60.999s59.666 -88.333 60.999 -147
c-1.33301 -58.667 -21.666 -107.667 -60.999 -147s-88.333 -59.666 -147 -60.999v0zM255 272v0v0c22 0 40.667 -7.66699 56 -23c11.333 -9.33301 22.666 -9.66602 33.999 -0.999023c9.33301 11.333 9.33301 22.666 0 33.999c-24.667 24.667 -54.667 37.334 -90 38.001v0
c-34.667 -0.666992 -64.667 -13.334 -90 -38.001c-24.667 -26 -37 -56 -37 -90s12.333 -64 37 -90c25.333 -24.667 55.333 -37.334 90 -38.001v0v0c35.333 0.666992 65.333 13.334 90 38.001c9.33301 11.333 9.33301 22.666 0 33.999
c-11.333 8.66699 -22.666 8.33398 -33.999 -0.999023c-15.333 -15.333 -34 -23 -56 -23v0c-21.333 0 -40 7.66699 -56 23c-15.333 16.667 -23 35.667 -23 57s7.66699 40.333 23 57c16 15.333 34.667 23 56 23v0z" />
    <glyph glyph-name="registered" unicode="&#xf25d;" 
d="M256 448c-48 -0.666992 -91 -12.334 -129 -35.001v0c-38.667 -22.667 -69.334 -53.334 -92.001 -92.001v0c-22.667 -38 -34.334 -81 -35.001 -129c0.666992 -48 12.334 -91 35.001 -129c22.667 -38.667 53.334 -69.334 92.001 -92.001c38 -22.667 81 -34.334 129 -35.001
c48 0.666992 91 12.334 129 35.001c38.667 22.667 69.334 53.334 92.001 92.001c22.667 38 34.334 81 35.001 129c-0.666992 48 -12.334 91 -35.001 129c-22.667 38.667 -53.334 69.334 -92.001 92.001c-38 22.667 -81 34.334 -129 35.001v0zM256 -16
c-58.667 1.33301 -107.667 21.666 -147 60.999v0c-39.333 39.333 -59.666 88.333 -60.999 147c1.33301 58.667 21.666 107.667 60.999 147s88.333 59.666 147 60.999c58.667 -1.33301 107.667 -21.666 147 -60.999s59.666 -88.333 60.999 -147
c-1.33301 -58.667 -21.666 -107.667 -60.999 -147s-88.333 -59.666 -147 -60.999v0zM352 240c-0.666992 22.667 -8.33105 41.667 -22.998 57v0c-15.333 14.667 -34.333 22.334 -57 23.001h-88c-14.667 -1.33301 -22.667 -9.33301 -24 -24v-208
c1.33301 -14.667 9.33301 -22.667 24 -24c14.667 1.33301 22.667 9.33301 24 24v72h60l38 -82c4.66699 -9.33301 12 -14 22 -14c3.33301 0 6.66602 0.666992 9.99902 2c12.667 7.33301 16.667 18 12 32l-35 75c23.333 15.333 35.666 37.666 36.999 66.999v0zM272.003 208
h-64v64h64c9.33301 0 17 -3 23 -9s9 -13.667 9 -23s-3 -17 -9 -23s-13.667 -9 -23 -9v0z" />
    <glyph glyph-name="registered" unicode="&#xae;" 
d="M256 448c-48 -0.666992 -91 -12.334 -129 -35.001v0c-38.667 -22.667 -69.334 -53.334 -92.001 -92.001v0c-22.667 -38 -34.334 -81 -35.001 -129c0.666992 -48 12.334 -91 35.001 -129c22.667 -38.667 53.334 -69.334 92.001 -92.001c38 -22.667 81 -34.334 129 -35.001
c48 0.666992 91 12.334 129 35.001c38.667 22.667 69.334 53.334 92.001 92.001c22.667 38 34.334 81 35.001 129c-0.666992 48 -12.334 91 -35.001 129c-22.667 38.667 -53.334 69.334 -92.001 92.001c-38 22.667 -81 34.334 -129 35.001v0zM256 -16
c-58.667 1.33301 -107.667 21.666 -147 60.999v0c-39.333 39.333 -59.666 88.333 -60.999 147c1.33301 58.667 21.666 107.667 60.999 147s88.333 59.666 147 60.999c58.667 -1.33301 107.667 -21.666 147 -60.999s59.666 -88.333 60.999 -147
c-1.33301 -58.667 -21.666 -107.667 -60.999 -147s-88.333 -59.666 -147 -60.999v0zM352 240c-0.666992 22.667 -8.33105 41.667 -22.998 57v0c-15.333 14.667 -34.333 22.334 -57 23.001h-88c-14.667 -1.33301 -22.667 -9.33301 -24 -24v-208
c1.33301 -14.667 9.33301 -22.667 24 -24c14.667 1.33301 22.667 9.33301 24 24v72h60l38 -82c4.66699 -9.33301 12 -14 22 -14c3.33301 0 6.66602 0.666992 9.99902 2c12.667 7.33301 16.667 18 12 32l-35 75c23.333 15.333 35.666 37.666 36.999 66.999v0zM272.003 208
h-64v64h64c9.33301 0 17 -3 23 -9s9 -13.667 9 -23s-3 -17 -9 -23s-13.667 -9 -23 -9v0z" />
    <glyph glyph-name="keyboard" unicode="&#xf11c;" horiz-adv-x="576" 
d="M512 384h-448c-18 -0.666992 -33 -7 -45 -19s-18.333 -27 -19 -45v-256c0.666992 -18 7 -33 19 -45s27 -18.333 45 -19h448c18 0.666992 33 7 45 19s18.333 27 19 45v256c-0.666992 18 -7 33 -19 45s-27 18.333 -45 19v0zM528 64c-0.666992 -10 -6 -15.333 -16 -16h-448
c-10 0.666992 -15.333 6 -16 16v256c0.666992 10 6 15.333 16 16h448c10 -0.666992 15.333 -6 16 -16v-256v0zM140 296h-24c-7.33301 -0.666992 -11.333 -4.66699 -12 -12v-24c0.666992 -7.33301 4.66699 -11.333 12 -12h24c7.33301 0.666992 11.333 4.66699 12 12v24
c-0.666992 7.33301 -4.66699 11.333 -12 12v0zM196 248h24c7.33301 0.666992 11.333 4.66699 12 12v24c-0.666992 7.33301 -4.66699 11.333 -12 12h-24c-7.33301 -0.666992 -11.333 -4.66699 -12 -12v-24c0.666992 -7.33301 4.66699 -11.333 12 -12v0zM276 248h24
c7.33301 0.666992 11.333 4.66699 12 12v24c-0.666992 7.33301 -4.66699 11.333 -12 12h-24c-7.33301 -0.666992 -11.333 -4.66699 -12 -12v-24c0.666992 -7.33301 4.66699 -11.333 12 -12v0zM356 248h24c7.33301 0.666992 11.333 4.66699 12 12v24
c-0.666992 7.33301 -4.66699 11.333 -12 12h-24c-7.33301 -0.666992 -11.333 -4.66699 -12 -12v-24c0.666992 -7.33301 4.66699 -11.333 12 -12v0zM460 296h-24c-7.33301 -0.666992 -11.333 -4.66699 -12 -12v-24c0.666992 -7.33301 4.66699 -11.333 12 -12h24
c7.33301 0.666992 11.333 4.66699 12 12v24c-0.666992 7.33301 -4.66699 11.333 -12 12v0zM140 216h-24c-7.33301 -0.666992 -11.333 -4.66699 -12 -12v-24c0.666992 -7.33301 4.66699 -11.333 12 -12h24c7.33301 0.666992 11.333 4.66699 12 12v24
c-0.666992 7.33301 -4.66699 11.333 -12 12v0zM196 168h24c7.33301 0.666992 11.333 4.66699 12 12v24c-0.666992 7.33301 -4.66699 11.333 -12 12h-24c-7.33301 -0.666992 -11.333 -4.66699 -12 -12v-24c0.666992 -7.33301 4.66699 -11.333 12 -12v0zM276 168h24
c7.33301 0.666992 11.333 4.66699 12 12v24c-0.666992 7.33301 -4.66699 11.333 -12 12h-24c-7.33301 -0.666992 -11.333 -4.66699 -12 -12v-24c0.666992 -7.33301 4.66699 -11.333 12 -12v0zM356 168h24c7.33301 0.666992 11.333 4.66699 12 12v24
c-0.666992 7.33301 -4.66699 11.333 -12 12h-24c-7.33301 -0.666992 -11.333 -4.66699 -12 -12v-24c0.666992 -7.33301 4.66699 -11.333 12 -12v0zM460 216h-24c-7.33301 -0.666992 -11.333 -4.66699 -12 -12v-24c0.666992 -7.33301 4.66699 -11.333 12 -12h24
c7.33301 0.666992 11.333 4.66699 12 12v24c-0.666992 7.33301 -4.66699 11.333 -12 12v0zM400 128h-224c-10 -0.666992 -15.333 -6 -16 -16v-16c0.666992 -10 6 -15.333 16 -16h224c10 0.666992 15.333 6 16 16v16c-0.666992 10 -6 15.333 -16 16v0z" />
    <glyph glyph-name="keyboard" unicode="&#x2328;" horiz-adv-x="576" 
d="M512 384h-448c-18 -0.666992 -33 -7 -45 -19s-18.333 -27 -19 -45v-256c0.666992 -18 7 -33 19 -45s27 -18.333 45 -19h448c18 0.666992 33 7 45 19s18.333 27 19 45v256c-0.666992 18 -7 33 -19 45s-27 18.333 -45 19v0zM528 64c-0.666992 -10 -6 -15.333 -16 -16h-448
c-10 0.666992 -15.333 6 -16 16v256c0.666992 10 6 15.333 16 16h448c10 -0.666992 15.333 -6 16 -16v-256v0zM140 296h-24c-7.33301 -0.666992 -11.333 -4.66699 -12 -12v-24c0.666992 -7.33301 4.66699 -11.333 12 -12h24c7.33301 0.666992 11.333 4.66699 12 12v24
c-0.666992 7.33301 -4.66699 11.333 -12 12v0zM196 248h24c7.33301 0.666992 11.333 4.66699 12 12v24c-0.666992 7.33301 -4.66699 11.333 -12 12h-24c-7.33301 -0.666992 -11.333 -4.66699 -12 -12v-24c0.666992 -7.33301 4.66699 -11.333 12 -12v0zM276 248h24
c7.33301 0.666992 11.333 4.66699 12 12v24c-0.666992 7.33301 -4.66699 11.333 -12 12h-24c-7.33301 -0.666992 -11.333 -4.66699 -12 -12v-24c0.666992 -7.33301 4.66699 -11.333 12 -12v0zM356 248h24c7.33301 0.666992 11.333 4.66699 12 12v24
c-0.666992 7.33301 -4.66699 11.333 -12 12h-24c-7.33301 -0.666992 -11.333 -4.66699 -12 -12v-24c0.666992 -7.33301 4.66699 -11.333 12 -12v0zM460 296h-24c-7.33301 -0.666992 -11.333 -4.66699 -12 -12v-24c0.666992 -7.33301 4.66699 -11.333 12 -12h24
c7.33301 0.666992 11.333 4.66699 12 12v24c-0.666992 7.33301 -4.66699 11.333 -12 12v0zM140 216h-24c-7.33301 -0.666992 -11.333 -4.66699 -12 -12v-24c0.666992 -7.33301 4.66699 -11.333 12 -12h24c7.33301 0.666992 11.333 4.66699 12 12v24
c-0.666992 7.33301 -4.66699 11.333 -12 12v0zM196 168h24c7.33301 0.666992 11.333 4.66699 12 12v24c-0.666992 7.33301 -4.66699 11.333 -12 12h-24c-7.33301 -0.666992 -11.333 -4.66699 -12 -12v-24c0.666992 -7.33301 4.66699 -11.333 12 -12v0zM276 168h24
c7.33301 0.666992 11.333 4.66699 12 12v24c-0.666992 7.33301 -4.66699 11.333 -12 12h-24c-7.33301 -0.666992 -11.333 -4.66699 -12 -12v-24c0.666992 -7.33301 4.66699 -11.333 12 -12v0zM356 168h24c7.33301 0.666992 11.333 4.66699 12 12v24
c-0.666992 7.33301 -4.66699 11.333 -12 12h-24c-7.33301 -0.666992 -11.333 -4.66699 -12 -12v-24c0.666992 -7.33301 4.66699 -11.333 12 -12v0zM460 216h-24c-7.33301 -0.666992 -11.333 -4.66699 -12 -12v-24c0.666992 -7.33301 4.66699 -11.333 12 -12h24
c7.33301 0.666992 11.333 4.66699 12 12v24c-0.666992 7.33301 -4.66699 11.333 -12 12v0zM400 128h-224c-10 -0.666992 -15.333 -6 -16 -16v-16c0.666992 -10 6 -15.333 16 -16h224c10 0.666992 15.333 6 16 16v16c-0.666992 10 -6 15.333 -16 16v0z" />
    <glyph glyph-name="hourglass" unicode="&#xf254;" horiz-adv-x="384" 
d="M360 448c14.667 -1.33301 22.667 -9.33301 24 -24c-1.33301 -14.667 -9.33301 -22.667 -24 -24h-8v-19c-1.33301 -41.333 -16 -77.333 -44 -108l-82 -81l82 -82c28 -29.333 42.667 -65 44 -107v-19h8c14.667 -1.33301 22.667 -9.33301 24 -24
c-1.33301 -14.667 -9.33301 -22.667 -24 -24h-336c-14.667 1.33301 -22.667 9.33301 -24 24c1.33301 14.667 9.33301 22.667 24 24h8v19c0.666992 42 15.667 77.667 45 107l81 82l-81 81c-29.333 30.667 -44.333 66.667 -45 108v19h-8
c-14.667 1.33301 -22.667 9.33301 -24 24c1.33301 14.667 9.33301 22.667 24 24h336v0zM192 158l-81 -82c-20 -20 -30.333 -44.333 -31 -73v-19h224v19c-0.666992 28.667 -10.667 53 -30 73l-82 82v0zM192 226l82 81c19.333 20.667 29.333 45.334 30 74.001v20h-224v-20
c0.666992 -28.667 11 -53.334 31 -74.001l81 -81v0z" />
    <glyph glyph-name="hourglass" unicode="&#xf250;" horiz-adv-x="384" 
d="M360 448c14.667 -1.33301 22.667 -9.33301 24 -24c-1.33301 -14.667 -9.33301 -22.667 -24 -24h-8v-19c-1.33301 -41.333 -16 -77.333 -44 -108l-82 -81l82 -82c28 -29.333 42.667 -65 44 -107v-19h8c14.667 -1.33301 22.667 -9.33301 24 -24
c-1.33301 -14.667 -9.33301 -22.667 -24 -24h-336c-14.667 1.33301 -22.667 9.33301 -24 24c1.33301 14.667 9.33301 22.667 24 24h8v19c0.666992 42 15.667 77.667 45 107l81 82l-81 81c-29.333 30.667 -44.333 66.667 -45 108v19h-8
c-14.667 1.33301 -22.667 9.33301 -24 24c1.33301 14.667 9.33301 22.667 24 24h336v0zM192 158l-81 -82c-20 -20 -30.333 -44.333 -31 -73v-19h224v19c-0.666992 28.667 -10.667 53 -30 73l-82 82v0zM192 226l82 81c19.333 20.667 29.333 45.334 30 74.001v20h-224v-20
c0.666992 -28.667 11 -53.334 31 -74.001l81 -81v0z" />
    <glyph glyph-name="hourglass" unicode="&#x23f3;" horiz-adv-x="384" 
d="M360 448c14.667 -1.33301 22.667 -9.33301 24 -24c-1.33301 -14.667 -9.33301 -22.667 -24 -24h-8v-19c-1.33301 -41.333 -16 -77.333 -44 -108l-82 -81l82 -82c28 -29.333 42.667 -65 44 -107v-19h8c14.667 -1.33301 22.667 -9.33301 24 -24
c-1.33301 -14.667 -9.33301 -22.667 -24 -24h-336c-14.667 1.33301 -22.667 9.33301 -24 24c1.33301 14.667 9.33301 22.667 24 24h8v19c0.666992 42 15.667 77.667 45 107l81 82l-81 81c-29.333 30.667 -44.333 66.667 -45 108v19h-8
c-14.667 1.33301 -22.667 9.33301 -24 24c1.33301 14.667 9.33301 22.667 24 24h336v0zM192 158l-81 -82c-20 -20 -30.333 -44.333 -31 -73v-19h224v19c-0.666992 28.667 -10.667 53 -30 73l-82 82v0zM192 226l82 81c19.333 20.667 29.333 45.334 30 74.001v20h-224v-20
c0.666992 -28.667 11 -53.334 31 -74.001l81 -81v0z" />
    <glyph glyph-name="moon" unicode="&#x1f319;" 
d="M422 68l-2 -0.000976562c-11.333 -2 -22.666 -3 -33.999 -3c-48.667 0.666992 -89.334 17.667 -122.001 51c-33.333 32.667 -50.666 74 -51.999 124c0.666992 32 8.66699 61.333 24 88c15.333 27.333 37 49 65 65c4 2.66699 5.66699 6.33398 5 11.001
c-0.666992 4 -3.33398 6.66699 -8.00098 8c-6 1.33301 -13 2.33301 -21 3c-7.33301 0.666992 -14 1 -20 1c-42 0 -80 -10 -114 -30c-33.333 -20 -60 -47 -80 -81c-20 -33.333 -30.333 -71 -31 -113c0.666992 -42 11 -79.667 31 -113c19.333 -34 46 -60.667 80 -80
c33.333 -20 71 -30.333 113 -31c34.667 0 67 7.33301 97 22s55.667 35 77 61c2.66699 4 3 8 1 12c-2 3.33301 -5 5 -9 5v0zM256 15.999c-50 1.33301 -91.335 18.666 -124.002 51.999v0c-33.333 32.667 -50.666 74 -51.999 124c0.666992 38.667 11.667 72.667 33 102
c21.333 30 49.333 51.333 84 64c-22 -35.333 -33.333 -74.666 -34 -117.999c0.666992 -50.667 15.334 -95 44.001 -133s65.667 -64.667 111 -80c-20 -7.33301 -40.667 -11 -62 -11v0z" />
    <glyph glyph-name="moon" unicode="&#xf186;" 
d="M422 68l-2 -0.000976562c-11.333 -2 -22.666 -3 -33.999 -3c-48.667 0.666992 -89.334 17.667 -122.001 51c-33.333 32.667 -50.666 74 -51.999 124c0.666992 32 8.66699 61.333 24 88c15.333 27.333 37 49 65 65c4 2.66699 5.66699 6.33398 5 11.001
c-0.666992 4 -3.33398 6.66699 -8.00098 8c-6 1.33301 -13 2.33301 -21 3c-7.33301 0.666992 -14 1 -20 1c-42 0 -80 -10 -114 -30c-33.333 -20 -60 -47 -80 -81c-20 -33.333 -30.333 -71 -31 -113c0.666992 -42 11 -79.667 31 -113c19.333 -34 46 -60.667 80 -80
c33.333 -20 71 -30.333 113 -31c34.667 0 67 7.33301 97 22s55.667 35 77 61c2.66699 4 3 8 1 12c-2 3.33301 -5 5 -9 5v0zM256 15.999c-50 1.33301 -91.335 18.666 -124.002 51.999v0c-33.333 32.667 -50.666 74 -51.999 124c0.666992 38.667 11.667 72.667 33 102
c21.333 30 49.333 51.333 84 64c-22 -35.333 -33.333 -74.666 -34 -117.999c0.666992 -50.667 15.334 -95 44.001 -133s65.667 -64.667 111 -80c-20 -7.33301 -40.667 -11 -62 -11v0z" />
    <glyph glyph-name="moon" unicode="&#x23fe;" 
d="M422 68l-2 -0.000976562c-11.333 -2 -22.666 -3 -33.999 -3c-48.667 0.666992 -89.334 17.667 -122.001 51c-33.333 32.667 -50.666 74 -51.999 124c0.666992 32 8.66699 61.333 24 88c15.333 27.333 37 49 65 65c4 2.66699 5.66699 6.33398 5 11.001
c-0.666992 4 -3.33398 6.66699 -8.00098 8c-6 1.33301 -13 2.33301 -21 3c-7.33301 0.666992 -14 1 -20 1c-42 0 -80 -10 -114 -30c-33.333 -20 -60 -47 -80 -81c-20 -33.333 -30.333 -71 -31 -113c0.666992 -42 11 -79.667 31 -113c19.333 -34 46 -60.667 80 -80
c33.333 -20 71 -30.333 113 -31c34.667 0 67 7.33301 97 22s55.667 35 77 61c2.66699 4 3 8 1 12c-2 3.33301 -5 5 -9 5v0zM256 15.999c-50 1.33301 -91.335 18.666 -124.002 51.999v0c-33.333 32.667 -50.666 74 -51.999 124c0.666992 38.667 11.667 72.667 33 102
c21.333 30 49.333 51.333 84 64c-22 -35.333 -33.333 -74.666 -34 -117.999c0.666992 -50.667 15.334 -95 44.001 -133s65.667 -64.667 111 -80c-20 -7.33301 -40.667 -11 -62 -11v0z" />
    <glyph glyph-name="square" unicode="&#xf0c8;" horiz-adv-x="448" 
d="M384 416c18 -0.666992 33 -7 45 -19v0c12 -12 18.333 -27 19 -45v-320c-0.666992 -18 -7 -33 -19 -45s-27 -18.333 -45 -19h-320c-18 0.666992 -33 7 -45 19s-18.333 27 -19 45v320c0.666992 18 7 33 19 45s27 18.333 45 19h320v0zM384 368h-320
c-10 -0.666992 -15.333 -6 -16 -16v-320c0.666992 -10 6 -15.333 16 -16h320c10 0.666992 15.333 6 16 16v320c-0.666992 10 -6 15.333 -16 16v0z" />
    <glyph glyph-name="square" unicode="&#xf096;" horiz-adv-x="448" 
d="M384 416c18 -0.666992 33 -7 45 -19v0c12 -12 18.333 -27 19 -45v-320c-0.666992 -18 -7 -33 -19 -45s-27 -18.333 -45 -19h-320c-18 0.666992 -33 7 -45 19s-18.333 27 -19 45v320c0.666992 18 7 33 19 45s27 18.333 45 19h320v0zM384 368h-320
c-10 -0.666992 -15.333 -6 -16 -16v-320c0.666992 -10 6 -15.333 16 -16h320c10 0.666992 15.333 6 16 16v320c-0.666992 10 -6 15.333 -16 16v0z" />
    <glyph glyph-name="square" unicode="&#x25fc;" horiz-adv-x="448" 
d="M384 416c18 -0.666992 33 -7 45 -19v0c12 -12 18.333 -27 19 -45v-320c-0.666992 -18 -7 -33 -19 -45s-27 -18.333 -45 -19h-320c-18 0.666992 -33 7 -45 19s-18.333 27 -19 45v320c0.666992 18 7 33 19 45s27 18.333 45 19h320v0zM384 368h-320
c-10 -0.666992 -15.333 -6 -16 -16v-320c0.666992 -10 6 -15.333 16 -16h320c10 0.666992 15.333 6 16 16v320c-0.666992 10 -6 15.333 -16 16v0z" />
    <glyph glyph-name="square" unicode="&#x25fb;" horiz-adv-x="448" 
d="M384 416c18 -0.666992 33 -7 45 -19v0c12 -12 18.333 -27 19 -45v-320c-0.666992 -18 -7 -33 -19 -45s-27 -18.333 -45 -19h-320c-18 0.666992 -33 7 -45 19s-18.333 27 -19 45v320c0.666992 18 7 33 19 45s27 18.333 45 19h320v0zM384 368h-320
c-10 -0.666992 -15.333 -6 -16 -16v-320c0.666992 -10 6 -15.333 16 -16h320c10 0.666992 15.333 6 16 16v320c-0.666992 10 -6 15.333 -16 16v0z" />
    <glyph glyph-name="square" unicode="&#x25a0;" horiz-adv-x="448" 
d="M384 416c18 -0.666992 33 -7 45 -19v0c12 -12 18.333 -27 19 -45v-320c-0.666992 -18 -7 -33 -19 -45s-27 -18.333 -45 -19h-320c-18 0.666992 -33 7 -45 19s-18.333 27 -19 45v320c0.666992 18 7 33 19 45s27 18.333 45 19h320v0zM384 368h-320
c-10 -0.666992 -15.333 -6 -16 -16v-320c0.666992 -10 6 -15.333 16 -16h320c10 0.666992 15.333 6 16 16v320c-0.666992 10 -6 15.333 -16 16v0z" />
    <glyph glyph-name="circle" unicode="&#x1f7e4;" 
d="M512 192c-0.666992 -48 -12.334 -91 -35.001 -129v0c-22.667 -38.667 -53.334 -69.334 -92.001 -92.001v0c-38 -22.667 -81 -34.334 -129 -35.001c-48 0.666992 -91 12.334 -129 35.001c-38.667 22.667 -69.334 53.334 -92.001 92.001c-22.667 38 -34.334 81 -35.001 129
c0.666992 48 12.334 91 35.001 129c22.667 38.667 53.334 69.334 92.001 92.001c38 22.667 81 34.334 129 35.001c48 -0.666992 91 -12.334 129 -35.001c38.667 -22.667 69.334 -53.334 92.001 -92.001c22.667 -38 34.334 -81 35.001 -129v0zM256 400
c-58.667 -1.33301 -107.667 -21.666 -147 -60.999v0c-39.333 -39.333 -59.666 -88.333 -60.999 -147c1.33301 -58.667 21.666 -107.667 60.999 -147s88.333 -59.666 147 -60.999c58.667 1.33301 107.667 21.666 147 60.999s59.666 88.333 60.999 147
c-1.33301 58.667 -21.666 107.667 -60.999 147s-88.333 59.666 -147 60.999v0z" />
    <glyph glyph-name="circle" unicode="&#x1f7e3;" 
d="M512 192c-0.666992 -48 -12.334 -91 -35.001 -129v0c-22.667 -38.667 -53.334 -69.334 -92.001 -92.001v0c-38 -22.667 -81 -34.334 -129 -35.001c-48 0.666992 -91 12.334 -129 35.001c-38.667 22.667 -69.334 53.334 -92.001 92.001c-22.667 38 -34.334 81 -35.001 129
c0.666992 48 12.334 91 35.001 129c22.667 38.667 53.334 69.334 92.001 92.001c38 22.667 81 34.334 129 35.001c48 -0.666992 91 -12.334 129 -35.001c38.667 -22.667 69.334 -53.334 92.001 -92.001c22.667 -38 34.334 -81 35.001 -129v0zM256 400
c-58.667 -1.33301 -107.667 -21.666 -147 -60.999v0c-39.333 -39.333 -59.666 -88.333 -60.999 -147c1.33301 -58.667 21.666 -107.667 60.999 -147s88.333 -59.666 147 -60.999c58.667 1.33301 107.667 21.666 147 60.999s59.666 88.333 60.999 147
c-1.33301 58.667 -21.666 107.667 -60.999 147s-88.333 59.666 -147 60.999v0z" />
    <glyph glyph-name="circle" unicode="&#x1f7e2;" 
d="M512 192c-0.666992 -48 -12.334 -91 -35.001 -129v0c-22.667 -38.667 -53.334 -69.334 -92.001 -92.001v0c-38 -22.667 -81 -34.334 -129 -35.001c-48 0.666992 -91 12.334 -129 35.001c-38.667 22.667 -69.334 53.334 -92.001 92.001c-22.667 38 -34.334 81 -35.001 129
c0.666992 48 12.334 91 35.001 129c22.667 38.667 53.334 69.334 92.001 92.001c38 22.667 81 34.334 129 35.001c48 -0.666992 91 -12.334 129 -35.001c38.667 -22.667 69.334 -53.334 92.001 -92.001c22.667 -38 34.334 -81 35.001 -129v0zM256 400
c-58.667 -1.33301 -107.667 -21.666 -147 -60.999v0c-39.333 -39.333 -59.666 -88.333 -60.999 -147c1.33301 -58.667 21.666 -107.667 60.999 -147s88.333 -59.666 147 -60.999c58.667 1.33301 107.667 21.666 147 60.999s59.666 88.333 60.999 147
c-1.33301 58.667 -21.666 107.667 -60.999 147s-88.333 59.666 -147 60.999v0z" />
    <glyph glyph-name="circle" unicode="&#x1f7e1;" 
d="M512 192c-0.666992 -48 -12.334 -91 -35.001 -129v0c-22.667 -38.667 -53.334 -69.334 -92.001 -92.001v0c-38 -22.667 -81 -34.334 -129 -35.001c-48 0.666992 -91 12.334 -129 35.001c-38.667 22.667 -69.334 53.334 -92.001 92.001c-22.667 38 -34.334 81 -35.001 129
c0.666992 48 12.334 91 35.001 129c22.667 38.667 53.334 69.334 92.001 92.001c38 22.667 81 34.334 129 35.001c48 -0.666992 91 -12.334 129 -35.001c38.667 -22.667 69.334 -53.334 92.001 -92.001c22.667 -38 34.334 -81 35.001 -129v0zM256 400
c-58.667 -1.33301 -107.667 -21.666 -147 -60.999v0c-39.333 -39.333 -59.666 -88.333 -60.999 -147c1.33301 -58.667 21.666 -107.667 60.999 -147s88.333 -59.666 147 -60.999c58.667 1.33301 107.667 21.666 147 60.999s59.666 88.333 60.999 147
c-1.33301 58.667 -21.666 107.667 -60.999 147s-88.333 59.666 -147 60.999v0z" />
    <glyph glyph-name="circle" unicode="&#x1f7e0;" 
d="M512 192c-0.666992 -48 -12.334 -91 -35.001 -129v0c-22.667 -38.667 -53.334 -69.334 -92.001 -92.001v0c-38 -22.667 -81 -34.334 -129 -35.001c-48 0.666992 -91 12.334 -129 35.001c-38.667 22.667 -69.334 53.334 -92.001 92.001c-22.667 38 -34.334 81 -35.001 129
c0.666992 48 12.334 91 35.001 129c22.667 38.667 53.334 69.334 92.001 92.001c38 22.667 81 34.334 129 35.001c48 -0.666992 91 -12.334 129 -35.001c38.667 -22.667 69.334 -53.334 92.001 -92.001c22.667 -38 34.334 -81 35.001 -129v0zM256 400
c-58.667 -1.33301 -107.667 -21.666 -147 -60.999v0c-39.333 -39.333 -59.666 -88.333 -60.999 -147c1.33301 -58.667 21.666 -107.667 60.999 -147s88.333 -59.666 147 -60.999c58.667 1.33301 107.667 21.666 147 60.999s59.666 88.333 60.999 147
c-1.33301 58.667 -21.666 107.667 -60.999 147s-88.333 59.666 -147 60.999v0z" />
    <glyph glyph-name="circle" unicode="&#x1f535;" 
d="M512 192c-0.666992 -48 -12.334 -91 -35.001 -129v0c-22.667 -38.667 -53.334 -69.334 -92.001 -92.001v0c-38 -22.667 -81 -34.334 -129 -35.001c-48 0.666992 -91 12.334 -129 35.001c-38.667 22.667 -69.334 53.334 -92.001 92.001c-22.667 38 -34.334 81 -35.001 129
c0.666992 48 12.334 91 35.001 129c22.667 38.667 53.334 69.334 92.001 92.001c38 22.667 81 34.334 129 35.001c48 -0.666992 91 -12.334 129 -35.001c38.667 -22.667 69.334 -53.334 92.001 -92.001c22.667 -38 34.334 -81 35.001 -129v0zM256 400
c-58.667 -1.33301 -107.667 -21.666 -147 -60.999v0c-39.333 -39.333 -59.666 -88.333 -60.999 -147c1.33301 -58.667 21.666 -107.667 60.999 -147s88.333 -59.666 147 -60.999c58.667 1.33301 107.667 21.666 147 60.999s59.666 88.333 60.999 147
c-1.33301 58.667 -21.666 107.667 -60.999 147s-88.333 59.666 -147 60.999v0z" />
    <glyph glyph-name="circle" unicode="&#x1f534;" 
d="M512 192c-0.666992 -48 -12.334 -91 -35.001 -129v0c-22.667 -38.667 -53.334 -69.334 -92.001 -92.001v0c-38 -22.667 -81 -34.334 -129 -35.001c-48 0.666992 -91 12.334 -129 35.001c-38.667 22.667 -69.334 53.334 -92.001 92.001c-22.667 38 -34.334 81 -35.001 129
c0.666992 48 12.334 91 35.001 129c22.667 38.667 53.334 69.334 92.001 92.001c38 22.667 81 34.334 129 35.001c48 -0.666992 91 -12.334 129 -35.001c38.667 -22.667 69.334 -53.334 92.001 -92.001c22.667 -38 34.334 -81 35.001 -129v0zM256 400
c-58.667 -1.33301 -107.667 -21.666 -147 -60.999v0c-39.333 -39.333 -59.666 -88.333 -60.999 -147c1.33301 -58.667 21.666 -107.667 60.999 -147s88.333 -59.666 147 -60.999c58.667 1.33301 107.667 21.666 147 60.999s59.666 88.333 60.999 147
c-1.33301 58.667 -21.666 107.667 -60.999 147s-88.333 59.666 -147 60.999v0z" />
    <glyph glyph-name="circle" unicode="&#xf1db;" 
d="M512 192c-0.666992 -48 -12.334 -91 -35.001 -129v0c-22.667 -38.667 -53.334 -69.334 -92.001 -92.001v0c-38 -22.667 -81 -34.334 -129 -35.001c-48 0.666992 -91 12.334 -129 35.001c-38.667 22.667 -69.334 53.334 -92.001 92.001c-22.667 38 -34.334 81 -35.001 129
c0.666992 48 12.334 91 35.001 129c22.667 38.667 53.334 69.334 92.001 92.001c38 22.667 81 34.334 129 35.001c48 -0.666992 91 -12.334 129 -35.001c38.667 -22.667 69.334 -53.334 92.001 -92.001c22.667 -38 34.334 -81 35.001 -129v0zM256 400
c-58.667 -1.33301 -107.667 -21.666 -147 -60.999v0c-39.333 -39.333 -59.666 -88.333 -60.999 -147c1.33301 -58.667 21.666 -107.667 60.999 -147s88.333 -59.666 147 -60.999c58.667 1.33301 107.667 21.666 147 60.999s59.666 88.333 60.999 147
c-1.33301 58.667 -21.666 107.667 -60.999 147s-88.333 59.666 -147 60.999v0z" />
    <glyph glyph-name="circle" unicode="&#xf111;" 
d="M512 192c-0.666992 -48 -12.334 -91 -35.001 -129v0c-22.667 -38.667 -53.334 -69.334 -92.001 -92.001v0c-38 -22.667 -81 -34.334 -129 -35.001c-48 0.666992 -91 12.334 -129 35.001c-38.667 22.667 -69.334 53.334 -92.001 92.001c-22.667 38 -34.334 81 -35.001 129
c0.666992 48 12.334 91 35.001 129c22.667 38.667 53.334 69.334 92.001 92.001c38 22.667 81 34.334 129 35.001c48 -0.666992 91 -12.334 129 -35.001c38.667 -22.667 69.334 -53.334 92.001 -92.001c22.667 -38 34.334 -81 35.001 -129v0zM256 400
c-58.667 -1.33301 -107.667 -21.666 -147 -60.999v0c-39.333 -39.333 -59.666 -88.333 -60.999 -147c1.33301 -58.667 21.666 -107.667 60.999 -147s88.333 -59.666 147 -60.999c58.667 1.33301 107.667 21.666 147 60.999s59.666 88.333 60.999 147
c-1.33301 58.667 -21.666 107.667 -60.999 147s-88.333 59.666 -147 60.999v0z" />
    <glyph glyph-name="circle" unicode="&#xf10c;" 
d="M512 192c-0.666992 -48 -12.334 -91 -35.001 -129v0c-22.667 -38.667 -53.334 -69.334 -92.001 -92.001v0c-38 -22.667 -81 -34.334 -129 -35.001c-48 0.666992 -91 12.334 -129 35.001c-38.667 22.667 -69.334 53.334 -92.001 92.001c-22.667 38 -34.334 81 -35.001 129
c0.666992 48 12.334 91 35.001 129c22.667 38.667 53.334 69.334 92.001 92.001c38 22.667 81 34.334 129 35.001c48 -0.666992 91 -12.334 129 -35.001c38.667 -22.667 69.334 -53.334 92.001 -92.001c22.667 -38 34.334 -81 35.001 -129v0zM256 400
c-58.667 -1.33301 -107.667 -21.666 -147 -60.999v0c-39.333 -39.333 -59.666 -88.333 -60.999 -147c1.33301 -58.667 21.666 -107.667 60.999 -147s88.333 -59.666 147 -60.999c58.667 1.33301 107.667 21.666 147 60.999s59.666 88.333 60.999 147
c-1.33301 58.667 -21.666 107.667 -60.999 147s-88.333 59.666 -147 60.999v0z" />
    <glyph glyph-name="circle" unicode="&#x2b24;" 
d="M512 192c-0.666992 -48 -12.334 -91 -35.001 -129v0c-22.667 -38.667 -53.334 -69.334 -92.001 -92.001v0c-38 -22.667 -81 -34.334 -129 -35.001c-48 0.666992 -91 12.334 -129 35.001c-38.667 22.667 -69.334 53.334 -92.001 92.001c-22.667 38 -34.334 81 -35.001 129
c0.666992 48 12.334 91 35.001 129c22.667 38.667 53.334 69.334 92.001 92.001c38 22.667 81 34.334 129 35.001c48 -0.666992 91 -12.334 129 -35.001c38.667 -22.667 69.334 -53.334 92.001 -92.001c22.667 -38 34.334 -81 35.001 -129v0zM256 400
c-58.667 -1.33301 -107.667 -21.666 -147 -60.999v0c-39.333 -39.333 -59.666 -88.333 -60.999 -147c1.33301 -58.667 21.666 -107.667 60.999 -147s88.333 -59.666 147 -60.999c58.667 1.33301 107.667 21.666 147 60.999s59.666 88.333 60.999 147
c-1.33301 58.667 -21.666 107.667 -60.999 147s-88.333 59.666 -147 60.999v0z" />
    <glyph glyph-name="circle" unicode="&#x26ab;" 
d="M512 192c-0.666992 -48 -12.334 -91 -35.001 -129v0c-22.667 -38.667 -53.334 -69.334 -92.001 -92.001v0c-38 -22.667 -81 -34.334 -129 -35.001c-48 0.666992 -91 12.334 -129 35.001c-38.667 22.667 -69.334 53.334 -92.001 92.001c-22.667 38 -34.334 81 -35.001 129
c0.666992 48 12.334 91 35.001 129c22.667 38.667 53.334 69.334 92.001 92.001c38 22.667 81 34.334 129 35.001c48 -0.666992 91 -12.334 129 -35.001c38.667 -22.667 69.334 -53.334 92.001 -92.001c22.667 -38 34.334 -81 35.001 -129v0zM256 400
c-58.667 -1.33301 -107.667 -21.666 -147 -60.999v0c-39.333 -39.333 -59.666 -88.333 -60.999 -147c1.33301 -58.667 21.666 -107.667 60.999 -147s88.333 -59.666 147 -60.999c58.667 1.33301 107.667 21.666 147 60.999s59.666 88.333 60.999 147
c-1.33301 58.667 -21.666 107.667 -60.999 147s-88.333 59.666 -147 60.999v0z" />
    <glyph glyph-name="circle" unicode="&#x26aa;" 
d="M512 192c-0.666992 -48 -12.334 -91 -35.001 -129v0c-22.667 -38.667 -53.334 -69.334 -92.001 -92.001v0c-38 -22.667 -81 -34.334 -129 -35.001c-48 0.666992 -91 12.334 -129 35.001c-38.667 22.667 -69.334 53.334 -92.001 92.001c-22.667 38 -34.334 81 -35.001 129
c0.666992 48 12.334 91 35.001 129c22.667 38.667 53.334 69.334 92.001 92.001c38 22.667 81 34.334 129 35.001c48 -0.666992 91 -12.334 129 -35.001c38.667 -22.667 69.334 -53.334 92.001 -92.001c22.667 -38 34.334 -81 35.001 -129v0zM256 400
c-58.667 -1.33301 -107.667 -21.666 -147 -60.999v0c-39.333 -39.333 -59.666 -88.333 -60.999 -147c1.33301 -58.667 21.666 -107.667 60.999 -147s88.333 -59.666 147 -60.999c58.667 1.33301 107.667 21.666 147 60.999s59.666 88.333 60.999 147
c-1.33301 58.667 -21.666 107.667 -60.999 147s-88.333 59.666 -147 60.999v0z" />
    <glyph glyph-name="circle" unicode="&#x25cf;" 
d="M512 192c-0.666992 -48 -12.334 -91 -35.001 -129v0c-22.667 -38.667 -53.334 -69.334 -92.001 -92.001v0c-38 -22.667 -81 -34.334 -129 -35.001c-48 0.666992 -91 12.334 -129 35.001c-38.667 22.667 -69.334 53.334 -92.001 92.001c-22.667 38 -34.334 81 -35.001 129
c0.666992 48 12.334 91 35.001 129c22.667 38.667 53.334 69.334 92.001 92.001c38 22.667 81 34.334 129 35.001c48 -0.666992 91 -12.334 129 -35.001c38.667 -22.667 69.334 -53.334 92.001 -92.001c22.667 -38 34.334 -81 35.001 -129v0zM256 400
c-58.667 -1.33301 -107.667 -21.666 -147 -60.999v0c-39.333 -39.333 -59.666 -88.333 -60.999 -147c1.33301 -58.667 21.666 -107.667 60.999 -147s88.333 -59.666 147 -60.999c58.667 1.33301 107.667 21.666 147 60.999s59.666 88.333 60.999 147
c-1.33301 58.667 -21.666 107.667 -60.999 147s-88.333 59.666 -147 60.999v0z" />
    <glyph glyph-name="sun" unicode="&#xf185;" 
d="M505 123l-48 69.001l48 69c7.33301 11.333 8.66602 23.333 3.99902 36c-5.33301 12 -14.666 19.667 -27.999 23l-83 14l-14 83c-3.33301 13.333 -11 22.666 -23 27.999c-12.667 4.66699 -24.667 3.33398 -36 -3.99902l-69 -47l-69 47
c-11.333 7.33301 -23.333 8.66602 -36 3.99902c-12 -5.33301 -19.667 -14.666 -23 -27.999l-14 -83l-83 -14c-13.333 -3.33301 -22.666 -11 -27.999 -23c-4.66699 -12.667 -3.33398 -24.667 3.99902 -36l48 -69l-48 -69c-7.33301 -11.333 -8.66602 -23.333 -3.99902 -36
c5.33301 -12 14.666 -19.667 27.999 -23l83 -14l14 -83c3.33301 -13.333 11 -22.666 23 -27.999c12.667 -4.66699 24.667 -3.33398 36 3.99902l69 47l69 -47c6.66699 -4.66699 13.667 -7 21 -7c5.33301 0 10.333 1 15 3c12 5.33301 19.667 14.666 23 27.999l14 83l83 14
c13.333 3.33301 22.666 11 27.999 23c4.66699 12.667 3.33398 24.667 -3.99902 36v0zM457 109.001l-100 -18l-18 -100l-83 58l-83 -58l-18 100l-100 18l58 84l-58 82l100 18l18 100l83 -58l83 58l18 -100l100 -18l-58 -82l58 -84v0zM256 305.001
c-32 -0.666992 -58.3311 -11.666 -78.998 -32.999v0c-20.667 -20.667 -31.334 -46.667 -32.001 -78c0.666992 -32 11.667 -58.333 33 -79c20.667 -20.667 46.667 -31.334 78 -32.001c31.333 0.666992 57.333 11.334 78 32.001c21.333 21.333 32.333 47.666 33 78.999
c-0.666992 30.667 -11.334 56.667 -32.001 78s-47 32.333 -79 33v0zM256.002 129.002c-18 0.666992 -33 7 -45 19v0c-12 12 -18.333 27 -19 45c0.666992 18 7 33 19 45c12 11.333 27 17.333 45 18c18 -0.666992 33 -7 45 -19s18.333 -26.667 19 -44
c-0.666992 -18 -7 -33 -19 -45s-27 -18.333 -45 -19v0z" />
    <glyph glyph-name="sun" unicode="&#x2600;" 
d="M505 123l-48 69.001l48 69c7.33301 11.333 8.66602 23.333 3.99902 36c-5.33301 12 -14.666 19.667 -27.999 23l-83 14l-14 83c-3.33301 13.333 -11 22.666 -23 27.999c-12.667 4.66699 -24.667 3.33398 -36 -3.99902l-69 -47l-69 47
c-11.333 7.33301 -23.333 8.66602 -36 3.99902c-12 -5.33301 -19.667 -14.666 -23 -27.999l-14 -83l-83 -14c-13.333 -3.33301 -22.666 -11 -27.999 -23c-4.66699 -12.667 -3.33398 -24.667 3.99902 -36l48 -69l-48 -69c-7.33301 -11.333 -8.66602 -23.333 -3.99902 -36
c5.33301 -12 14.666 -19.667 27.999 -23l83 -14l14 -83c3.33301 -13.333 11 -22.666 23 -27.999c12.667 -4.66699 24.667 -3.33398 36 3.99902l69 47l69 -47c6.66699 -4.66699 13.667 -7 21 -7c5.33301 0 10.333 1 15 3c12 5.33301 19.667 14.666 23 27.999l14 83l83 14
c13.333 3.33301 22.666 11 27.999 23c4.66699 12.667 3.33398 24.667 -3.99902 36v0zM457 109.001l-100 -18l-18 -100l-83 58l-83 -58l-18 100l-100 18l58 84l-58 82l100 18l18 100l83 -58l83 58l18 -100l100 -18l-58 -82l58 -84v0zM256 305.001
c-32 -0.666992 -58.3311 -11.666 -78.998 -32.999v0c-20.667 -20.667 -31.334 -46.667 -32.001 -78c0.666992 -32 11.667 -58.333 33 -79c20.667 -20.667 46.667 -31.334 78 -32.001c31.333 0.666992 57.333 11.334 78 32.001c21.333 21.333 32.333 47.666 33 78.999
c-0.666992 30.667 -11.334 56.667 -32.001 78s-47 32.333 -79 33v0zM256.002 129.002c-18 0.666992 -33 7 -45 19v0c-12 12 -18.333 27 -19 45c0.666992 18 7 33 19 45c12 11.333 27 17.333 45 18c18 -0.666992 33 -7 45 -19s18.333 -26.667 19 -44
c-0.666992 -18 -7 -33 -19 -45s-27 -18.333 -45 -19v0z" />
    <glyph glyph-name="square-check" unicode="&#xf14a;" horiz-adv-x="448" 
d="M212 108c-6 -5.33301 -12.667 -8 -20 -8v0c-7.33301 0 -14 2.66699 -20 8l-64 64c-5.33301 6 -8 12.667 -8 20s2.66699 14 8 20c6 5.33301 12.667 8 20 8s14 -2.66699 20 -8l44 -44l108 108c6 5.33301 12.667 8 20 8s14 -2.66699 20 -8c5.33301 -6 8 -12.667 8 -20
s-2.66699 -14 -8 -20l-128 -128v0zM0 352c0.666992 18 7 33 19 45v0c12 12 27 18.333 45 19h320c18 -0.666992 33 -7 45 -19s18.333 -27 19 -45v-320c-0.666992 -18 -7 -33 -19 -45s-27 -18.333 -45 -19h-320c-18 0.666992 -33 7 -45 19s-18.333 27 -19 45v320v0zM48 352
v-320c0.666992 -10 6 -15.333 16 -16h320c10 0.666992 15.333 6 16 16v320c-0.666992 10 -6 15.333 -16 16h-320c-10 -0.666992 -15.333 -6 -16 -16v0z" />
    <glyph glyph-name="square-check" unicode="&#xf046;" horiz-adv-x="448" 
d="M212 108c-6 -5.33301 -12.667 -8 -20 -8v0c-7.33301 0 -14 2.66699 -20 8l-64 64c-5.33301 6 -8 12.667 -8 20s2.66699 14 8 20c6 5.33301 12.667 8 20 8s14 -2.66699 20 -8l44 -44l108 108c6 5.33301 12.667 8 20 8s14 -2.66699 20 -8c5.33301 -6 8 -12.667 8 -20
s-2.66699 -14 -8 -20l-128 -128v0zM0 352c0.666992 18 7 33 19 45v0c12 12 27 18.333 45 19h320c18 -0.666992 33 -7 45 -19s18.333 -27 19 -45v-320c-0.666992 -18 -7 -33 -19 -45s-27 -18.333 -45 -19h-320c-18 0.666992 -33 7 -45 19s-18.333 27 -19 45v320v0zM48 352
v-320c0.666992 -10 6 -15.333 16 -16h320c10 0.666992 15.333 6 16 16v320c-0.666992 10 -6 15.333 -16 16h-320c-10 -0.666992 -15.333 -6 -16 -16v0z" />
    <glyph glyph-name="square-check" unicode="&#x2705;" horiz-adv-x="448" 
d="M212 108c-6 -5.33301 -12.667 -8 -20 -8v0c-7.33301 0 -14 2.66699 -20 8l-64 64c-5.33301 6 -8 12.667 -8 20s2.66699 14 8 20c6 5.33301 12.667 8 20 8s14 -2.66699 20 -8l44 -44l108 108c6 5.33301 12.667 8 20 8s14 -2.66699 20 -8c5.33301 -6 8 -12.667 8 -20
s-2.66699 -14 -8 -20l-128 -128v0zM0 352c0.666992 18 7 33 19 45v0c12 12 27 18.333 45 19h320c18 -0.666992 33 -7 45 -19s18.333 -27 19 -45v-320c-0.666992 -18 -7 -33 -19 -45s-27 -18.333 -45 -19h-320c-18 0.666992 -33 7 -45 19s-18.333 27 -19 45v320v0zM48 352
v-320c0.666992 -10 6 -15.333 16 -16h320c10 0.666992 15.333 6 16 16v320c-0.666992 10 -6 15.333 -16 16h-320c-10 -0.666992 -15.333 -6 -16 -16v0z" />
    <glyph glyph-name="square-check" unicode="&#x2611;" horiz-adv-x="448" 
d="M212 108c-6 -5.33301 -12.667 -8 -20 -8v0c-7.33301 0 -14 2.66699 -20 8l-64 64c-5.33301 6 -8 12.667 -8 20s2.66699 14 8 20c6 5.33301 12.667 8 20 8s14 -2.66699 20 -8l44 -44l108 108c6 5.33301 12.667 8 20 8s14 -2.66699 20 -8c5.33301 -6 8 -12.667 8 -20
s-2.66699 -14 -8 -20l-128 -128v0zM0 352c0.666992 18 7 33 19 45v0c12 12 27 18.333 45 19h320c18 -0.666992 33 -7 45 -19s18.333 -27 19 -45v-320c-0.666992 -18 -7 -33 -19 -45s-27 -18.333 -45 -19h-320c-18 0.666992 -33 7 -45 19s-18.333 27 -19 45v320v0zM48 352
v-320c0.666992 -10 6 -15.333 16 -16h320c10 0.666992 15.333 6 16 16v320c-0.666992 10 -6 15.333 -16 16h-320c-10 -0.666992 -15.333 -6 -16 -16v0z" />
    <glyph glyph-name="hand-point-up" unicode="&#xf0a6;" horiz-adv-x="448" 
d="M376 256c-6.66699 0 -13.001 -0.665039 -19.001 -1.99805c-13.333 21.333 -33.666 32.666 -60.999 33.999c-6.66699 0 -13 -0.666992 -19 -2c-13.333 21.333 -33.666 32.666 -60.999 33.999h-8v56c-0.666992 20.667 -7.66699 37.667 -21 51s-30.333 20.333 -51 21
c-20.667 -0.666992 -37.667 -7.66699 -51 -21s-20.333 -30.333 -21 -51v-196c-20.667 -17.333 -31.334 -40 -32.001 -68v-50c0 -16 4 -31 12 -45c8 -13.333 19 -24 33 -32l55 -31c21.333 -12 44 -18 68 -18h108c39.333 1.33301 72.333 15.333 99 42
c26 27.333 39.667 61.333 41 102v104c-0.666992 20.667 -7.66699 37.667 -21 51s-30.333 20.333 -51 21v0zM271.999 216.002c1.33301 14.667 9.33301 22.667 24 24c14.667 -1.33301 22.667 -9.33301 24 -24v-48c-1.33301 -14.667 -9.33301 -22.667 -24 -24
c-14.667 1.33301 -22.667 9.33301 -24 24v48v0zM191.999 248.002c1.33301 14.667 9.33301 22.667 24 24c14.667 -1.33301 22.667 -9.33301 24 -24v-48c0 -3.33301 -0.666992 -6.33301 -2 -9c-10 6 -21.333 9 -34 9h-12v48v0zM111.999 376.002
c1.33301 14.667 9.33301 22.667 24 24c14.667 -1.33301 22.667 -9.33301 24 -24v-176h-40h-5c-0.666992 -0.666992 -1.66699 -1 -3 -1v1v0v176v0zM307.999 -15.998l-107.999 0.000976562c-15.333 0 -30 4 -44 12l-56 31c-12.667 8 -19.334 19.667 -20.001 35v50
c0 11.333 4 20.666 12 27.999c7.33301 8 16.666 12 27.999 12h84c8 0 14.667 -2.66699 20 -8s8 -12 8 -20s-2.66699 -14.667 -8 -20s-12 -8 -20 -8h-52c-14.667 -1.33301 -22.667 -9.33301 -24 -24c1.33301 -14.667 9.33301 -22.667 24 -24h52c16.667 0 31.334 5 44.001 15
c12.667 9.33301 22 21.333 28 36c6 -2 12.667 -3 20 -3c4.66699 0 9 0.666992 13 2h2c12 -26 33.667 -40 65 -42c8 0 15.333 1.33301 22 4c-5.33301 -22 -16 -40 -32 -54s-35.333 -21.333 -58 -22v0zM400 128.003c-1.33301 -14.667 -9.33301 -22.667 -24 -24
c-14.667 1.33301 -22.667 9.33301 -24 24v56c1.33301 14.667 9.33301 22.667 24 24c14.667 -1.33301 22.667 -9.33301 24 -24v-56v0z" />
    <glyph glyph-name="hand-point-up" unicode="&#x261d;" horiz-adv-x="448" 
d="M376 256c-6.66699 0 -13.001 -0.665039 -19.001 -1.99805c-13.333 21.333 -33.666 32.666 -60.999 33.999c-6.66699 0 -13 -0.666992 -19 -2c-13.333 21.333 -33.666 32.666 -60.999 33.999h-8v56c-0.666992 20.667 -7.66699 37.667 -21 51s-30.333 20.333 -51 21
c-20.667 -0.666992 -37.667 -7.66699 -51 -21s-20.333 -30.333 -21 -51v-196c-20.667 -17.333 -31.334 -40 -32.001 -68v-50c0 -16 4 -31 12 -45c8 -13.333 19 -24 33 -32l55 -31c21.333 -12 44 -18 68 -18h108c39.333 1.33301 72.333 15.333 99 42
c26 27.333 39.667 61.333 41 102v104c-0.666992 20.667 -7.66699 37.667 -21 51s-30.333 20.333 -51 21v0zM271.999 216.002c1.33301 14.667 9.33301 22.667 24 24c14.667 -1.33301 22.667 -9.33301 24 -24v-48c-1.33301 -14.667 -9.33301 -22.667 -24 -24
c-14.667 1.33301 -22.667 9.33301 -24 24v48v0zM191.999 248.002c1.33301 14.667 9.33301 22.667 24 24c14.667 -1.33301 22.667 -9.33301 24 -24v-48c0 -3.33301 -0.666992 -6.33301 -2 -9c-10 6 -21.333 9 -34 9h-12v48v0zM111.999 376.002
c1.33301 14.667 9.33301 22.667 24 24c14.667 -1.33301 22.667 -9.33301 24 -24v-176h-40h-5c-0.666992 -0.666992 -1.66699 -1 -3 -1v1v0v176v0zM307.999 -15.998l-107.999 0.000976562c-15.333 0 -30 4 -44 12l-56 31c-12.667 8 -19.334 19.667 -20.001 35v50
c0 11.333 4 20.666 12 27.999c7.33301 8 16.666 12 27.999 12h84c8 0 14.667 -2.66699 20 -8s8 -12 8 -20s-2.66699 -14.667 -8 -20s-12 -8 -20 -8h-52c-14.667 -1.33301 -22.667 -9.33301 -24 -24c1.33301 -14.667 9.33301 -22.667 24 -24h52c16.667 0 31.334 5 44.001 15
c12.667 9.33301 22 21.333 28 36c6 -2 12.667 -3 20 -3c4.66699 0 9 0.666992 13 2h2c12 -26 33.667 -40 65 -42c8 0 15.333 1.33301 22 4c-5.33301 -22 -16 -40 -32 -54s-35.333 -21.333 -58 -22v0zM400 128.003c-1.33301 -14.667 -9.33301 -22.667 -24 -24
c-14.667 1.33301 -22.667 9.33301 -24 24v56c1.33301 14.667 9.33301 22.667 24 24c14.667 -1.33301 22.667 -9.33301 24 -24v-56v0z" />
    <glyph glyph-name="face-frown" unicode="&#xf119;" 
d="M144 49c-13.333 6.66699 -18.3291 17 -14.9961 31c9.33301 24.667 25.666 44 48.999 58c22.667 14.667 48.667 22 78 22s55.333 -7.33301 78 -22c23.333 -14 39.666 -33.333 48.999 -58c3.33301 -14 -1.66699 -24.333 -15 -31c-14 -3.33301 -24.333 1.66699 -31 15
c-4.66699 13.333 -14 24.666 -28 33.999c-14.667 8.66699 -32.334 13.334 -53.001 14.001c-20.667 -0.666992 -38.334 -5.33398 -53.001 -14.001c-14 -9.33301 -23.333 -20.666 -28 -33.999c-6.66699 -13.333 -17 -18.333 -31 -15v0v0zM208.004 240
c0 -9.33301 -3 -17 -9 -23v0c-6 -6 -13.667 -9 -23 -9c-8.66699 0 -16 3 -22 9s-9.33301 13.667 -10 23c0.666992 9.33301 4 17 10 23s13.333 9 22 9c9.33301 0 17 -3 23 -9s9 -13.667 9 -23v0zM304.004 240c0.666992 9.33301 4 17 10 23v0c6 6 13.333 9 22 9
c9.33301 0 17 -3 23 -9s9 -13.667 9 -23s-3 -17 -9 -23s-13.667 -9 -23 -9c-8.66699 0 -16 3 -22 9s-9.33301 13.667 -10 23v0zM512.004 192c-0.666992 -48 -12.334 -91 -35.001 -129v0c-22.667 -38.667 -53.334 -69.334 -92.001 -92.001v0
c-38 -22.667 -81 -34.334 -129 -35.001c-48 0.666992 -91 12.334 -129 35.001c-38.667 22.667 -69.334 53.334 -92.001 92.001c-22.667 38 -34.334 81 -35.001 129c0.666992 48 12.334 91 35.001 129c22.667 38.667 53.334 69.334 92.001 92.001
c38 22.667 81 34.334 129 35.001c48 -0.666992 91 -12.334 129 -35.001c38.667 -22.667 69.334 -53.334 92.001 -92.001c22.667 -38 34.334 -81 35.001 -129v0zM256.004 400c-58.667 -1.33301 -107.667 -21.666 -147 -60.999v0
c-39.333 -39.333 -59.666 -88.333 -60.999 -147c1.33301 -58.667 21.666 -107.667 60.999 -147s88.333 -59.666 147 -60.999c58.667 1.33301 107.667 21.666 147 60.999s59.666 88.333 60.999 147c-1.33301 58.667 -21.666 107.667 -60.999 147s-88.333 59.666 -147 60.999
v0z" />
    <glyph glyph-name="face-frown" unicode="&#x2639;" 
d="M144 49c-13.333 6.66699 -18.3291 17 -14.9961 31c9.33301 24.667 25.666 44 48.999 58c22.667 14.667 48.667 22 78 22s55.333 -7.33301 78 -22c23.333 -14 39.666 -33.333 48.999 -58c3.33301 -14 -1.66699 -24.333 -15 -31c-14 -3.33301 -24.333 1.66699 -31 15
c-4.66699 13.333 -14 24.666 -28 33.999c-14.667 8.66699 -32.334 13.334 -53.001 14.001c-20.667 -0.666992 -38.334 -5.33398 -53.001 -14.001c-14 -9.33301 -23.333 -20.666 -28 -33.999c-6.66699 -13.333 -17 -18.333 -31 -15v0v0zM208.004 240
c0 -9.33301 -3 -17 -9 -23v0c-6 -6 -13.667 -9 -23 -9c-8.66699 0 -16 3 -22 9s-9.33301 13.667 -10 23c0.666992 9.33301 4 17 10 23s13.333 9 22 9c9.33301 0 17 -3 23 -9s9 -13.667 9 -23v0zM304.004 240c0.666992 9.33301 4 17 10 23v0c6 6 13.333 9 22 9
c9.33301 0 17 -3 23 -9s9 -13.667 9 -23s-3 -17 -9 -23s-13.667 -9 -23 -9c-8.66699 0 -16 3 -22 9s-9.33301 13.667 -10 23v0zM512.004 192c-0.666992 -48 -12.334 -91 -35.001 -129v0c-22.667 -38.667 -53.334 -69.334 -92.001 -92.001v0
c-38 -22.667 -81 -34.334 -129 -35.001c-48 0.666992 -91 12.334 -129 35.001c-38.667 22.667 -69.334 53.334 -92.001 92.001c-22.667 38 -34.334 81 -35.001 129c0.666992 48 12.334 91 35.001 129c22.667 38.667 53.334 69.334 92.001 92.001
c38 22.667 81 34.334 129 35.001c48 -0.666992 91 -12.334 129 -35.001c38.667 -22.667 69.334 -53.334 92.001 -92.001c22.667 -38 34.334 -81 35.001 -129v0zM256.004 400c-58.667 -1.33301 -107.667 -21.666 -147 -60.999v0
c-39.333 -39.333 -59.666 -88.333 -60.999 -147c1.33301 -58.667 21.666 -107.667 60.999 -147s88.333 -59.666 147 -60.999c58.667 1.33301 107.667 21.666 147 60.999s59.666 88.333 60.999 147c-1.33301 58.667 -21.666 107.667 -60.999 147s-88.333 59.666 -147 60.999
v0z" />
    <glyph glyph-name="chess-king" unicode="&#xf43f;" horiz-adv-x="448" 
d="M392 -16h-336.001c-14.667 -1.33301 -22.334 -9 -23.001 -23c0 -6.66699 2 -12.334 6 -17.001c4.66699 -5.33301 10.334 -8 17.001 -8h335c14.667 1.33301 22.334 9 23.001 23c0 6.66699 -2 12.334 -6 17.001c-4 5.33301 -9.33301 8 -16 8v0zM447.999 232
c0 12 -3.66602 22.998 -10.999 32.998c-11.333 14.667 -26.333 22.334 -45 23.001h-144v56h31c14.667 1.33301 22.667 9.33301 24 24c-1.33301 14.667 -9 22.667 -23 24h-31v33c-2 14 -10.667 21.667 -26 23c-14.667 -1.33301 -22.334 -9 -23.001 -23v-33h-32
c-14.667 -1.33301 -22.667 -9.33301 -24 -24c1.33301 -14.667 9.33301 -22.667 24 -24h31v-56h-143c-16 -0.666992 -29.333 -6 -40 -16c-10 -10.667 -15.333 -24 -16 -40c0 -6 1 -11.667 3 -17l65 -199h51l-71 214v2c0 4.66699 2.66699 7.33398 8 8.00098h336
c5.33301 -1.33301 8 -4 8 -8v-2l-71 -214h50l66 199c2 5.33301 3 11 3 17v0z" />
    <glyph glyph-name="chess-king" unicode="&#x265a;" horiz-adv-x="448" 
d="M392 -16h-336.001c-14.667 -1.33301 -22.334 -9 -23.001 -23c0 -6.66699 2 -12.334 6 -17.001c4.66699 -5.33301 10.334 -8 17.001 -8h335c14.667 1.33301 22.334 9 23.001 23c0 6.66699 -2 12.334 -6 17.001c-4 5.33301 -9.33301 8 -16 8v0zM447.999 232
c0 12 -3.66602 22.998 -10.999 32.998c-11.333 14.667 -26.333 22.334 -45 23.001h-144v56h31c14.667 1.33301 22.667 9.33301 24 24c-1.33301 14.667 -9 22.667 -23 24h-31v33c-2 14 -10.667 21.667 -26 23c-14.667 -1.33301 -22.334 -9 -23.001 -23v-33h-32
c-14.667 -1.33301 -22.667 -9.33301 -24 -24c1.33301 -14.667 9.33301 -22.667 24 -24h31v-56h-143c-16 -0.666992 -29.333 -6 -40 -16c-10 -10.667 -15.333 -24 -16 -40c0 -6 1 -11.667 3 -17l65 -199h51l-71 214v2c0 4.66699 2.66699 7.33398 8 8.00098h336
c5.33301 -1.33301 8 -4 8 -8v-2l-71 -214h50l66 199c2 5.33301 3 11 3 17v0z" />
    <glyph glyph-name="chess-queen" unicode="&#xf445;" 
d="M256 336c16 0.666992 29.333 6 40 16v0c10 10.667 15.333 24 16 40c-0.666992 16 -6 29.333 -16 40c-10.667 10 -24 15.333 -40 16c-16 -0.666992 -29.333 -6 -40 -16c-10.667 -10.667 -16.334 -24 -17.001 -40c0.666992 -16 6.33398 -29.333 17.001 -40
c10.667 -10 24 -15.333 40 -16v0zM511 251c0 5.33301 -2.33105 9.66699 -6.99805 13l-28 16c-2 1.33301 -4.66699 2 -8 2c-6 0 -10.667 -2.33301 -14 -7c-9.33301 -12 -22 -18.333 -38 -19c-3.33301 0 -6.33301 0.333008 -9 1c-12 2.66699 -21.333 8.66699 -28 18
c-7.33301 9.33301 -11 20 -11 32c-2 8 -6.33301 12.333 -13 13h-39c-6.66699 -0.666992 -11 -4 -13 -10c-2.66699 -11.333 -8.33398 -20.333 -17.001 -27c-8.66699 -7.33301 -19 -11 -31 -11c-11.333 0 -21.333 3.66699 -30 11c-8.66699 6.66699 -14.334 15.667 -17.001 27
c-1.33301 6 -5.33301 9.33301 -12 10h-39c-8.66699 -0.666992 -13.334 -5 -14.001 -13c0 -10.667 -3.66699 -21.667 -11 -33s-19.666 -17.333 -36.999 -18c-16 0.666992 -28.667 7 -38 19c-2.66699 4.66699 -7 7 -13 7c-2.66699 0 -5.33398 -0.666992 -8.00098 -2l-29 -16
c-4.66699 -3.33301 -7 -7.66602 -7 -12.999c0 -2.66699 0.666992 -5.33398 2 -8.00098l108 -227h53l-93 196c8.66699 -2.66699 17.334 -4 26.001 -4v0c4 -1.33301 15.333 0.666992 34 6s35.667 20.666 51 45.999c18.667 -23.333 43.667 -35.333 75 -36
c30.667 0.666992 55.667 12.667 75 36c2.66699 -6 10.667 -16 24 -30c13.333 -13.333 33.666 -20.666 60.999 -21.999c8.66699 0 17.334 1 26.001 3l-93 -195h53l108 227c0.666992 2 1 4 1 6v2v0zM424.002 -15.999h-336c-14.667 -1.33301 -22.667 -9 -24 -23
c0 -6.66699 2.33301 -12.334 7 -17.001c4.66699 -5.33301 10.334 -8 17.001 -8h336c14.667 1.33301 22.667 9 24 23c0 6.66699 -2.33301 12.334 -7 17.001c-4.66699 5.33301 -10.334 8 -17.001 8v0z" />
    <glyph glyph-name="chess-queen" unicode="&#x265b;" 
d="M256 336c16 0.666992 29.333 6 40 16v0c10 10.667 15.333 24 16 40c-0.666992 16 -6 29.333 -16 40c-10.667 10 -24 15.333 -40 16c-16 -0.666992 -29.333 -6 -40 -16c-10.667 -10.667 -16.334 -24 -17.001 -40c0.666992 -16 6.33398 -29.333 17.001 -40
c10.667 -10 24 -15.333 40 -16v0zM511 251c0 5.33301 -2.33105 9.66699 -6.99805 13l-28 16c-2 1.33301 -4.66699 2 -8 2c-6 0 -10.667 -2.33301 -14 -7c-9.33301 -12 -22 -18.333 -38 -19c-3.33301 0 -6.33301 0.333008 -9 1c-12 2.66699 -21.333 8.66699 -28 18
c-7.33301 9.33301 -11 20 -11 32c-2 8 -6.33301 12.333 -13 13h-39c-6.66699 -0.666992 -11 -4 -13 -10c-2.66699 -11.333 -8.33398 -20.333 -17.001 -27c-8.66699 -7.33301 -19 -11 -31 -11c-11.333 0 -21.333 3.66699 -30 11c-8.66699 6.66699 -14.334 15.667 -17.001 27
c-1.33301 6 -5.33301 9.33301 -12 10h-39c-8.66699 -0.666992 -13.334 -5 -14.001 -13c0 -10.667 -3.66699 -21.667 -11 -33s-19.666 -17.333 -36.999 -18c-16 0.666992 -28.667 7 -38 19c-2.66699 4.66699 -7 7 -13 7c-2.66699 0 -5.33398 -0.666992 -8.00098 -2l-29 -16
c-4.66699 -3.33301 -7 -7.66602 -7 -12.999c0 -2.66699 0.666992 -5.33398 2 -8.00098l108 -227h53l-93 196c8.66699 -2.66699 17.334 -4 26.001 -4v0c4 -1.33301 15.333 0.666992 34 6s35.667 20.666 51 45.999c18.667 -23.333 43.667 -35.333 75 -36
c30.667 0.666992 55.667 12.667 75 36c2.66699 -6 10.667 -16 24 -30c13.333 -13.333 33.666 -20.666 60.999 -21.999c8.66699 0 17.334 1 26.001 3l-93 -195h53l108 227c0.666992 2 1 4 1 6v2v0zM424.002 -15.999h-336c-14.667 -1.33301 -22.667 -9 -24 -23
c0 -6.66699 2.33301 -12.334 7 -17.001c4.66699 -5.33301 10.334 -8 17.001 -8h336c14.667 1.33301 22.667 9 24 23c0 6.66699 -2.33301 12.334 -7 17.001c-4.66699 5.33301 -10.334 8 -17.001 8v0z" />
    <glyph glyph-name="chess-rook" unicode="&#xf447;" horiz-adv-x="384" 
d="M360 -16l-337 0.000976562c-14 -1.33301 -21.667 -9 -23 -23c-0 -6.66699 2.33301 -12.334 7 -17.001c4.66699 -5.33301 10 -8 16 -8h337c14.667 1.33301 22.667 9.33301 24 24c-1.33301 14.667 -9.33301 22.667 -24 24v0zM345 416.001l-308.003 -0.00195312
c-10 0 -18.667 -3.66699 -26 -11s-11 -16.333 -11 -27v-139c0 -10 3.66699 -18.333 11 -25l37 -32v-13v-13c0 -19.333 -0.666992 -40 -2 -62c-1.33301 -22.667 -4.66602 -48.667 -9.99902 -78h49c4.66699 28.667 7.66699 54.334 9 77.001s2 45.667 2 69v23v25l-48 41v117h64
v-48h48v48h64v-48h48v48h64v-117l-48 -41v-25v-22c0 -23.333 0.666992 -46.666 2 -69.999s4.33301 -49 9 -77h49c-5.33301 29.333 -8.66602 55.333 -9.99902 78c-1.33301 22 -2 42.667 -2 62v16v10l37 32c7.33301 6.66699 11 15 11 25v139c0 10.667 -3.66699 19.667 -11 27
s-16.666 11 -27.999 11v0zM191.997 223.999c-9.33301 0 -17 -3 -23 -9v0c-6 -6 -9 -13.667 -9 -23v-64h64v64c0 9.33301 -3 17 -9 23s-13.667 9 -23 9v0z" />
    <glyph glyph-name="chess-rook" unicode="&#x265c;" horiz-adv-x="384" 
d="M360 -16l-337 0.000976562c-14 -1.33301 -21.667 -9 -23 -23c-0 -6.66699 2.33301 -12.334 7 -17.001c4.66699 -5.33301 10 -8 16 -8h337c14.667 1.33301 22.667 9.33301 24 24c-1.33301 14.667 -9.33301 22.667 -24 24v0zM345 416.001l-308.003 -0.00195312
c-10 0 -18.667 -3.66699 -26 -11s-11 -16.333 -11 -27v-139c0 -10 3.66699 -18.333 11 -25l37 -32v-13v-13c0 -19.333 -0.666992 -40 -2 -62c-1.33301 -22.667 -4.66602 -48.667 -9.99902 -78h49c4.66699 28.667 7.66699 54.334 9 77.001s2 45.667 2 69v23v25l-48 41v117h64
v-48h48v48h64v-48h48v48h64v-117l-48 -41v-25v-22c0 -23.333 0.666992 -46.666 2 -69.999s4.33301 -49 9 -77h49c-5.33301 29.333 -8.66602 55.333 -9.99902 78c-1.33301 22 -2 42.667 -2 62v16v10l37 32c7.33301 6.66699 11 15 11 25v139c0 10.667 -3.66699 19.667 -11 27
s-16.666 11 -27.999 11v0zM191.997 223.999c-9.33301 0 -17 -3 -23 -9v0c-6 -6 -9 -13.667 -9 -23v-64h64v64c0 9.33301 -3 17 -9 23s-13.667 9 -23 9v0z" />
    <glyph glyph-name="chess-bishop" unicode="&#xf43a;" horiz-adv-x="320" 
d="M296 -16l-272.999 0.000976562c-14 -1.33301 -21.667 -9 -23 -23c0 -6.66699 2.33301 -12.334 7 -17.001c4.66699 -5.33301 10 -8 16 -8h272c15.333 1.33301 23.666 9.33301 24.999 24c-1.33301 14.667 -9.33301 22.667 -24 24v0zM0.000976562 144.001
c0.666992 -26 7.00488 -47 19.0049 -63v0c12.667 -16.667 27.667 -27.667 45 -33v-32h48v67l-33 11c-8 2 -15 7 -21 15c-6 8.66699 -9.33301 20.334 -10 35.001c1.33301 29.333 9.66602 59.666 24.999 90.999s32 58.333 50 81c17.333 22 30 33.333 38 34
c6.66699 -0.666992 14.667 -6.66699 24 -18c10 -11.333 19 -23.666 27 -36.999c8.66699 -13.333 15 -23.333 19 -30l-66 -66c-3.33301 -3.33301 -5 -7.33301 -5 -12c0 -4 1.66699 -7.66699 5 -11l11 -11c3.33301 -3.33301 7 -5 11 -5c4.66699 0 8.66699 1.66699 12 5l54 54
c12 -28.667 18.333 -53.667 19 -75c-0.666992 -14.667 -4 -26.334 -10 -35.001c-6 -8 -12.667 -13 -20 -15l-34 -11v-67h48v32c17.333 5.33301 32.333 16.333 45 33c12 16 18.333 37 19 63c-0.666992 25.333 -7.33398 53.666 -20.001 84.999c-12 32 -27.333 62.333 -46 91
c-18 28 -36.333 49.667 -55 65c15.333 4.66699 23.666 15 24.999 31c0 9.33301 -3 17 -9 23s-13.667 9 -23 9h-64c-9.33301 0 -17 -3 -23 -9s-9 -13.667 -9 -23c1.33301 -16 9.66602 -26.333 24.999 -31c-18.667 -15.333 -37 -37 -55 -65c-18.667 -28.667 -34 -59 -46 -91
c-12.667 -31.333 -19.334 -59.666 -20.001 -84.999v0z" />
    <glyph glyph-name="chess-bishop" unicode="&#x265d;" horiz-adv-x="320" 
d="M296 -16l-272.999 0.000976562c-14 -1.33301 -21.667 -9 -23 -23c0 -6.66699 2.33301 -12.334 7 -17.001c4.66699 -5.33301 10 -8 16 -8h272c15.333 1.33301 23.666 9.33301 24.999 24c-1.33301 14.667 -9.33301 22.667 -24 24v0zM0.000976562 144.001
c0.666992 -26 7.00488 -47 19.0049 -63v0c12.667 -16.667 27.667 -27.667 45 -33v-32h48v67l-33 11c-8 2 -15 7 -21 15c-6 8.66699 -9.33301 20.334 -10 35.001c1.33301 29.333 9.66602 59.666 24.999 90.999s32 58.333 50 81c17.333 22 30 33.333 38 34
c6.66699 -0.666992 14.667 -6.66699 24 -18c10 -11.333 19 -23.666 27 -36.999c8.66699 -13.333 15 -23.333 19 -30l-66 -66c-3.33301 -3.33301 -5 -7.33301 -5 -12c0 -4 1.66699 -7.66699 5 -11l11 -11c3.33301 -3.33301 7 -5 11 -5c4.66699 0 8.66699 1.66699 12 5l54 54
c12 -28.667 18.333 -53.667 19 -75c-0.666992 -14.667 -4 -26.334 -10 -35.001c-6 -8 -12.667 -13 -20 -15l-34 -11v-67h48v32c17.333 5.33301 32.333 16.333 45 33c12 16 18.333 37 19 63c-0.666992 25.333 -7.33398 53.666 -20.001 84.999c-12 32 -27.333 62.333 -46 91
c-18 28 -36.333 49.667 -55 65c15.333 4.66699 23.666 15 24.999 31c0 9.33301 -3 17 -9 23s-13.667 9 -23 9h-64c-9.33301 0 -17 -3 -23 -9s-9 -13.667 -9 -23c1.33301 -16 9.66602 -26.333 24.999 -31c-18.667 -15.333 -37 -37 -55 -65c-18.667 -28.667 -34 -59 -46 -91
c-12.667 -31.333 -19.334 -59.666 -20.001 -84.999v0z" />
    <glyph glyph-name="chess-knight" unicode="&#xf441;" horiz-adv-x="384" 
d="M44 127l14.999 -6c-17.333 -21.333 -26.333 -45.333 -27 -72v-16v-17v0h48v32c1.33301 26.667 13.333 46.334 36 59.001l38 23c14 7.33301 21.333 19 22 35v59l-15 -9c-5.33301 -2.66699 -8.66602 -7 -9.99902 -13l-8 -25c-2.66699 -8 -7.66699 -13.667 -15 -17l-11 -4
c-3.33301 -1.33301 -6.66602 -2 -9.99902 -2s-6.66602 0.666992 -9.99902 2l-33 15c-10 5.33301 -15.333 13.333 -16 24v112c0 5.33301 2 10 6 14l7 8l-11 23c-1.33301 2 -2 4 -2 6c0.666992 6 4 9.33301 10 10h105c44.667 -1.33301 81.334 -16.666 110.001 -45.999
c29.333 -29.333 44.666 -66.333 45.999 -111v-195h48v195c-1.33301 58 -21 106.333 -59 145c-38.667 38.667 -87 58.667 -145 60h-105c-16.667 -0.666992 -30.334 -6.33398 -41.001 -17.001s-16.334 -24.334 -17.001 -41.001c0 -8.66699 1.66699 -17 5 -25
c-3.33301 -8 -5 -16.667 -5 -26v-112c0 -14.667 4 -28 12 -40s18.667 -21.333 32 -28v0zM79.999 284c1.33301 -12 8 -18.667 20 -20c12 1.33301 18.667 8 20 20c-1.33301 12 -8 18.667 -20 20c-12 -1.33301 -18.667 -8 -20 -20v0zM359.999 -16l-337 0.000976562
c-14 -1.33301 -21.667 -9 -23 -23c0 -6.66699 2.33301 -12.334 7 -17.001c4.66699 -5.33301 10 -8 16 -8h337c14.667 1.33301 22.667 9.33301 24 24c-1.33301 14.667 -9.33301 22.667 -24 24v0z" />
    <glyph glyph-name="chess-knight" unicode="&#x265e;" horiz-adv-x="384" 
d="M44 127l14.999 -6c-17.333 -21.333 -26.333 -45.333 -27 -72v-16v-17v0h48v32c1.33301 26.667 13.333 46.334 36 59.001l38 23c14 7.33301 21.333 19 22 35v59l-15 -9c-5.33301 -2.66699 -8.66602 -7 -9.99902 -13l-8 -25c-2.66699 -8 -7.66699 -13.667 -15 -17l-11 -4
c-3.33301 -1.33301 -6.66602 -2 -9.99902 -2s-6.66602 0.666992 -9.99902 2l-33 15c-10 5.33301 -15.333 13.333 -16 24v112c0 5.33301 2 10 6 14l7 8l-11 23c-1.33301 2 -2 4 -2 6c0.666992 6 4 9.33301 10 10h105c44.667 -1.33301 81.334 -16.666 110.001 -45.999
c29.333 -29.333 44.666 -66.333 45.999 -111v-195h48v195c-1.33301 58 -21 106.333 -59 145c-38.667 38.667 -87 58.667 -145 60h-105c-16.667 -0.666992 -30.334 -6.33398 -41.001 -17.001s-16.334 -24.334 -17.001 -41.001c0 -8.66699 1.66699 -17 5 -25
c-3.33301 -8 -5 -16.667 -5 -26v-112c0 -14.667 4 -28 12 -40s18.667 -21.333 32 -28v0zM79.999 284c1.33301 -12 8 -18.667 20 -20c12 1.33301 18.667 8 20 20c-1.33301 12 -8 18.667 -20 20c-12 -1.33301 -18.667 -8 -20 -20v0zM359.999 -16l-337 0.000976562
c-14 -1.33301 -21.667 -9 -23 -23c0 -6.66699 2.33301 -12.334 7 -17.001c4.66699 -5.33301 10 -8 16 -8h337c14.667 1.33301 22.667 9.33301 24 24c-1.33301 14.667 -9.33301 22.667 -24 24v0z" />
    <glyph glyph-name="chess-pawn" unicode="&#xf443;" horiz-adv-x="320" 
d="M296 -15l-273.001 -0.000976562c-14 -1.33301 -21.667 -9.33301 -23 -24c1.33301 -14.667 9 -22.667 23 -24h272c14.667 1.33301 22.334 9 23.001 23c0 6.66699 -2 12.334 -6 17.001c-4 5.33301 -9.33301 8 -16 8v0zM54.999 160.999l24.998 0.000976562v-30
c0 -20 -1.33301 -39.667 -4 -59c-3.33301 -20 -9.66602 -38.333 -18.999 -55h53c13.333 38 19.333 75.667 18 113v30h64v-30c-1.33301 -38 4.66699 -76 18 -114h53c-9.33301 16.667 -15.666 35 -18.999 55c-2.66699 19.333 -4 39 -4 59v31h24
c14.667 0.666992 22.667 8.66699 24 24c-1.33301 14.667 -9 22.667 -23 24h-24c24.667 22.667 37.334 51.667 38.001 87c0 9.33301 -1 19 -3 29c-1.33301 6.66699 -5.66602 17 -12.999 31c-7.33301 14.667 -19.333 28 -36 40c-16.667 12.667 -39.334 19.334 -68.001 20.001
c-33.333 -0.666992 -61.333 -12.334 -84 -35.001s-34.334 -50.667 -35.001 -84c1.33301 -36 14.333 -65.333 39 -88h-24c-6 0 -11.333 -2.33301 -16 -7s-7 -10.334 -7 -17.001c1.33301 -15.333 9 -23.333 23 -24v0zM159.997 369c20.667 -0.666992 37.667 -7.66699 51 -21v0
c13.333 -14 20.333 -31 21 -51c-0.666992 -20.667 -7.66699 -37.667 -21 -51s-30.333 -20.333 -51 -21c-20.667 0.666992 -37.667 7.66699 -51 21s-20.333 30.333 -21 51c0.666992 20.667 7.66699 37.667 21 51s30.333 20.333 51 21v0z" />
    <glyph glyph-name="chess-pawn" unicode="&#x265f;" horiz-adv-x="320" 
d="M296 -15l-273.001 -0.000976562c-14 -1.33301 -21.667 -9.33301 -23 -24c1.33301 -14.667 9 -22.667 23 -24h272c14.667 1.33301 22.334 9 23.001 23c0 6.66699 -2 12.334 -6 17.001c-4 5.33301 -9.33301 8 -16 8v0zM54.999 160.999l24.998 0.000976562v-30
c0 -20 -1.33301 -39.667 -4 -59c-3.33301 -20 -9.66602 -38.333 -18.999 -55h53c13.333 38 19.333 75.667 18 113v30h64v-30c-1.33301 -38 4.66699 -76 18 -114h53c-9.33301 16.667 -15.666 35 -18.999 55c-2.66699 19.333 -4 39 -4 59v31h24
c14.667 0.666992 22.667 8.66699 24 24c-1.33301 14.667 -9 22.667 -23 24h-24c24.667 22.667 37.334 51.667 38.001 87c0 9.33301 -1 19 -3 29c-1.33301 6.66699 -5.66602 17 -12.999 31c-7.33301 14.667 -19.333 28 -36 40c-16.667 12.667 -39.334 19.334 -68.001 20.001
c-33.333 -0.666992 -61.333 -12.334 -84 -35.001s-34.334 -50.667 -35.001 -84c1.33301 -36 14.333 -65.333 39 -88h-24c-6 0 -11.333 -2.33301 -16 -7s-7 -10.334 -7 -17.001c1.33301 -15.333 9 -23.333 23 -24v0zM159.997 369c20.667 -0.666992 37.667 -7.66699 51 -21v0
c13.333 -14 20.333 -31 21 -51c-0.666992 -20.667 -7.66699 -37.667 -21 -51s-30.333 -20.333 -51 -21c-20.667 0.666992 -37.667 7.66699 -51 21s-20.333 30.333 -21 51c0.666992 20.667 7.66699 37.667 21 51s30.333 20.333 51 21v0z" />
    <glyph glyph-name="heart" unicode="&#x1f9e1;" 
d="M244 364l11.001 -12l12 12c17.333 16.667 36.666 28.334 57.999 35.001c22 6.66699 44.667 8.33398 68 5.00098c34.667 -6.66699 63 -23 85 -49c22 -25.333 33.333 -56 34 -92v-6c-0.666992 -43.333 -16.667 -79.666 -48 -108.999l-180 -169
c-8 -7.33301 -17.333 -11 -28 -11s-20 3.66699 -28 11l-180 169c-31.333 29.333 -47.333 65.666 -48 108.999v6c0.666992 36 12 66.667 34 92c22 26 50.333 42.333 85 49c22.667 3.33301 45 1.66602 67 -5.00098s41.333 -18.334 58 -35.001c-0.666992 0 -0.666992 0 0 0v0v0
zM255.001 284l-45.001 47c-23.333 21.333 -51 30 -83 26c-23.333 -4.66699 -42.333 -15.667 -57 -33c-14 -17.333 -21.333 -37.666 -22 -60.999v-6c0.666992 -29.333 11.334 -54 32.001 -74l176 -164l176 164c20.667 20 31.334 44.667 32.001 74v6
c-0.666992 23.333 -8.33398 43.666 -23.001 60.999c-14 17.333 -32.667 28.333 -56 33c-32 4 -59.667 -4.66699 -83 -26l-47 -47v0z" />
    <glyph glyph-name="heart" unicode="&#x1f90e;" 
d="M244 364l11.001 -12l12 12c17.333 16.667 36.666 28.334 57.999 35.001c22 6.66699 44.667 8.33398 68 5.00098c34.667 -6.66699 63 -23 85 -49c22 -25.333 33.333 -56 34 -92v-6c-0.666992 -43.333 -16.667 -79.666 -48 -108.999l-180 -169
c-8 -7.33301 -17.333 -11 -28 -11s-20 3.66699 -28 11l-180 169c-31.333 29.333 -47.333 65.666 -48 108.999v6c0.666992 36 12 66.667 34 92c22 26 50.333 42.333 85 49c22.667 3.33301 45 1.66602 67 -5.00098s41.333 -18.334 58 -35.001c-0.666992 0 -0.666992 0 0 0v0v0
zM255.001 284l-45.001 47c-23.333 21.333 -51 30 -83 26c-23.333 -4.66699 -42.333 -15.667 -57 -33c-14 -17.333 -21.333 -37.666 -22 -60.999v-6c0.666992 -29.333 11.334 -54 32.001 -74l176 -164l176 164c20.667 20 31.334 44.667 32.001 74v6
c-0.666992 23.333 -8.33398 43.666 -23.001 60.999c-14 17.333 -32.667 28.333 -56 33c-32 4 -59.667 -4.66699 -83 -26l-47 -47v0z" />
    <glyph glyph-name="heart" unicode="&#x1f90d;" 
d="M244 364l11.001 -12l12 12c17.333 16.667 36.666 28.334 57.999 35.001c22 6.66699 44.667 8.33398 68 5.00098c34.667 -6.66699 63 -23 85 -49c22 -25.333 33.333 -56 34 -92v-6c-0.666992 -43.333 -16.667 -79.666 -48 -108.999l-180 -169
c-8 -7.33301 -17.333 -11 -28 -11s-20 3.66699 -28 11l-180 169c-31.333 29.333 -47.333 65.666 -48 108.999v6c0.666992 36 12 66.667 34 92c22 26 50.333 42.333 85 49c22.667 3.33301 45 1.66602 67 -5.00098s41.333 -18.334 58 -35.001c-0.666992 0 -0.666992 0 0 0v0v0
zM255.001 284l-45.001 47c-23.333 21.333 -51 30 -83 26c-23.333 -4.66699 -42.333 -15.667 -57 -33c-14 -17.333 -21.333 -37.666 -22 -60.999v-6c0.666992 -29.333 11.334 -54 32.001 -74l176 -164l176 164c20.667 20 31.334 44.667 32.001 74v6
c-0.666992 23.333 -8.33398 43.666 -23.001 60.999c-14 17.333 -32.667 28.333 -56 33c-32 4 -59.667 -4.66699 -83 -26l-47 -47v0z" />
    <glyph glyph-name="heart" unicode="&#x1f5a4;" 
d="M244 364l11.001 -12l12 12c17.333 16.667 36.666 28.334 57.999 35.001c22 6.66699 44.667 8.33398 68 5.00098c34.667 -6.66699 63 -23 85 -49c22 -25.333 33.333 -56 34 -92v-6c-0.666992 -43.333 -16.667 -79.666 -48 -108.999l-180 -169
c-8 -7.33301 -17.333 -11 -28 -11s-20 3.66699 -28 11l-180 169c-31.333 29.333 -47.333 65.666 -48 108.999v6c0.666992 36 12 66.667 34 92c22 26 50.333 42.333 85 49c22.667 3.33301 45 1.66602 67 -5.00098s41.333 -18.334 58 -35.001c-0.666992 0 -0.666992 0 0 0v0v0
zM255.001 284l-45.001 47c-23.333 21.333 -51 30 -83 26c-23.333 -4.66699 -42.333 -15.667 -57 -33c-14 -17.333 -21.333 -37.666 -22 -60.999v-6c0.666992 -29.333 11.334 -54 32.001 -74l176 -164l176 164c20.667 20 31.334 44.667 32.001 74v6
c-0.666992 23.333 -8.33398 43.666 -23.001 60.999c-14 17.333 -32.667 28.333 -56 33c-32 4 -59.667 -4.66699 -83 -26l-47 -47v0z" />
    <glyph glyph-name="heart" unicode="&#x1f49c;" 
d="M244 364l11.001 -12l12 12c17.333 16.667 36.666 28.334 57.999 35.001c22 6.66699 44.667 8.33398 68 5.00098c34.667 -6.66699 63 -23 85 -49c22 -25.333 33.333 -56 34 -92v-6c-0.666992 -43.333 -16.667 -79.666 -48 -108.999l-180 -169
c-8 -7.33301 -17.333 -11 -28 -11s-20 3.66699 -28 11l-180 169c-31.333 29.333 -47.333 65.666 -48 108.999v6c0.666992 36 12 66.667 34 92c22 26 50.333 42.333 85 49c22.667 3.33301 45 1.66602 67 -5.00098s41.333 -18.334 58 -35.001c-0.666992 0 -0.666992 0 0 0v0v0
zM255.001 284l-45.001 47c-23.333 21.333 -51 30 -83 26c-23.333 -4.66699 -42.333 -15.667 -57 -33c-14 -17.333 -21.333 -37.666 -22 -60.999v-6c0.666992 -29.333 11.334 -54 32.001 -74l176 -164l176 164c20.667 20 31.334 44.667 32.001 74v6
c-0.666992 23.333 -8.33398 43.666 -23.001 60.999c-14 17.333 -32.667 28.333 -56 33c-32 4 -59.667 -4.66699 -83 -26l-47 -47v0z" />
    <glyph glyph-name="heart" unicode="&#x1f49b;" 
d="M244 364l11.001 -12l12 12c17.333 16.667 36.666 28.334 57.999 35.001c22 6.66699 44.667 8.33398 68 5.00098c34.667 -6.66699 63 -23 85 -49c22 -25.333 33.333 -56 34 -92v-6c-0.666992 -43.333 -16.667 -79.666 -48 -108.999l-180 -169
c-8 -7.33301 -17.333 -11 -28 -11s-20 3.66699 -28 11l-180 169c-31.333 29.333 -47.333 65.666 -48 108.999v6c0.666992 36 12 66.667 34 92c22 26 50.333 42.333 85 49c22.667 3.33301 45 1.66602 67 -5.00098s41.333 -18.334 58 -35.001c-0.666992 0 -0.666992 0 0 0v0v0
zM255.001 284l-45.001 47c-23.333 21.333 -51 30 -83 26c-23.333 -4.66699 -42.333 -15.667 -57 -33c-14 -17.333 -21.333 -37.666 -22 -60.999v-6c0.666992 -29.333 11.334 -54 32.001 -74l176 -164l176 164c20.667 20 31.334 44.667 32.001 74v6
c-0.666992 23.333 -8.33398 43.666 -23.001 60.999c-14 17.333 -32.667 28.333 -56 33c-32 4 -59.667 -4.66699 -83 -26l-47 -47v0z" />
    <glyph glyph-name="heart" unicode="&#x1f49a;" 
d="M244 364l11.001 -12l12 12c17.333 16.667 36.666 28.334 57.999 35.001c22 6.66699 44.667 8.33398 68 5.00098c34.667 -6.66699 63 -23 85 -49c22 -25.333 33.333 -56 34 -92v-6c-0.666992 -43.333 -16.667 -79.666 -48 -108.999l-180 -169
c-8 -7.33301 -17.333 -11 -28 -11s-20 3.66699 -28 11l-180 169c-31.333 29.333 -47.333 65.666 -48 108.999v6c0.666992 36 12 66.667 34 92c22 26 50.333 42.333 85 49c22.667 3.33301 45 1.66602 67 -5.00098s41.333 -18.334 58 -35.001c-0.666992 0 -0.666992 0 0 0v0v0
zM255.001 284l-45.001 47c-23.333 21.333 -51 30 -83 26c-23.333 -4.66699 -42.333 -15.667 -57 -33c-14 -17.333 -21.333 -37.666 -22 -60.999v-6c0.666992 -29.333 11.334 -54 32.001 -74l176 -164l176 164c20.667 20 31.334 44.667 32.001 74v6
c-0.666992 23.333 -8.33398 43.666 -23.001 60.999c-14 17.333 -32.667 28.333 -56 33c-32 4 -59.667 -4.66699 -83 -26l-47 -47v0z" />
    <glyph glyph-name="heart" unicode="&#x1f499;" 
d="M244 364l11.001 -12l12 12c17.333 16.667 36.666 28.334 57.999 35.001c22 6.66699 44.667 8.33398 68 5.00098c34.667 -6.66699 63 -23 85 -49c22 -25.333 33.333 -56 34 -92v-6c-0.666992 -43.333 -16.667 -79.666 -48 -108.999l-180 -169
c-8 -7.33301 -17.333 -11 -28 -11s-20 3.66699 -28 11l-180 169c-31.333 29.333 -47.333 65.666 -48 108.999v6c0.666992 36 12 66.667 34 92c22 26 50.333 42.333 85 49c22.667 3.33301 45 1.66602 67 -5.00098s41.333 -18.334 58 -35.001c-0.666992 0 -0.666992 0 0 0v0v0
zM255.001 284l-45.001 47c-23.333 21.333 -51 30 -83 26c-23.333 -4.66699 -42.333 -15.667 -57 -33c-14 -17.333 -21.333 -37.666 -22 -60.999v-6c0.666992 -29.333 11.334 -54 32.001 -74l176 -164l176 164c20.667 20 31.334 44.667 32.001 74v6
c-0.666992 23.333 -8.33398 43.666 -23.001 60.999c-14 17.333 -32.667 28.333 -56 33c-32 4 -59.667 -4.66699 -83 -26l-47 -47v0z" />
    <glyph glyph-name="heart" unicode="&#xf08a;" 
d="M244 364l11.001 -12l12 12c17.333 16.667 36.666 28.334 57.999 35.001c22 6.66699 44.667 8.33398 68 5.00098c34.667 -6.66699 63 -23 85 -49c22 -25.333 33.333 -56 34 -92v-6c-0.666992 -43.333 -16.667 -79.666 -48 -108.999l-180 -169
c-8 -7.33301 -17.333 -11 -28 -11s-20 3.66699 -28 11l-180 169c-31.333 29.333 -47.333 65.666 -48 108.999v6c0.666992 36 12 66.667 34 92c22 26 50.333 42.333 85 49c22.667 3.33301 45 1.66602 67 -5.00098s41.333 -18.334 58 -35.001c-0.666992 0 -0.666992 0 0 0v0v0
zM255.001 284l-45.001 47c-23.333 21.333 -51 30 -83 26c-23.333 -4.66699 -42.333 -15.667 -57 -33c-14 -17.333 -21.333 -37.666 -22 -60.999v-6c0.666992 -29.333 11.334 -54 32.001 -74l176 -164l176 164c20.667 20 31.334 44.667 32.001 74v6
c-0.666992 23.333 -8.33398 43.666 -23.001 60.999c-14 17.333 -32.667 28.333 -56 33c-32 4 -59.667 -4.66699 -83 -26l-47 -47v0z" />
    <glyph glyph-name="heart" unicode="&#xf004;" 
d="M244 364l11.001 -12l12 12c17.333 16.667 36.666 28.334 57.999 35.001c22 6.66699 44.667 8.33398 68 5.00098c34.667 -6.66699 63 -23 85 -49c22 -25.333 33.333 -56 34 -92v-6c-0.666992 -43.333 -16.667 -79.666 -48 -108.999l-180 -169
c-8 -7.33301 -17.333 -11 -28 -11s-20 3.66699 -28 11l-180 169c-31.333 29.333 -47.333 65.666 -48 108.999v6c0.666992 36 12 66.667 34 92c22 26 50.333 42.333 85 49c22.667 3.33301 45 1.66602 67 -5.00098s41.333 -18.334 58 -35.001c-0.666992 0 -0.666992 0 0 0v0v0
zM255.001 284l-45.001 47c-23.333 21.333 -51 30 -83 26c-23.333 -4.66699 -42.333 -15.667 -57 -33c-14 -17.333 -21.333 -37.666 -22 -60.999v-6c0.666992 -29.333 11.334 -54 32.001 -74l176 -164l176 164c20.667 20 31.334 44.667 32.001 74v6
c-0.666992 23.333 -8.33398 43.666 -23.001 60.999c-14 17.333 -32.667 28.333 -56 33c-32 4 -59.667 -4.66699 -83 -26l-47 -47v0z" />
    <glyph glyph-name="heart" unicode="&#x2764;" 
d="M244 364l11.001 -12l12 12c17.333 16.667 36.666 28.334 57.999 35.001c22 6.66699 44.667 8.33398 68 5.00098c34.667 -6.66699 63 -23 85 -49c22 -25.333 33.333 -56 34 -92v-6c-0.666992 -43.333 -16.667 -79.666 -48 -108.999l-180 -169
c-8 -7.33301 -17.333 -11 -28 -11s-20 3.66699 -28 11l-180 169c-31.333 29.333 -47.333 65.666 -48 108.999v6c0.666992 36 12 66.667 34 92c22 26 50.333 42.333 85 49c22.667 3.33301 45 1.66602 67 -5.00098s41.333 -18.334 58 -35.001c-0.666992 0 -0.666992 0 0 0v0v0
zM255.001 284l-45.001 47c-23.333 21.333 -51 30 -83 26c-23.333 -4.66699 -42.333 -15.667 -57 -33c-14 -17.333 -21.333 -37.666 -22 -60.999v-6c0.666992 -29.333 11.334 -54 32.001 -74l176 -164l176 164c20.667 20 31.334 44.667 32.001 74v6
c-0.666992 23.333 -8.33398 43.666 -23.001 60.999c-14 17.333 -32.667 28.333 -56 33c-32 4 -59.667 -4.66699 -83 -26l-47 -47v0z" />
    <glyph glyph-name="heart" unicode="&#x2665;" 
d="M244 364l11.001 -12l12 12c17.333 16.667 36.666 28.334 57.999 35.001c22 6.66699 44.667 8.33398 68 5.00098c34.667 -6.66699 63 -23 85 -49c22 -25.333 33.333 -56 34 -92v-6c-0.666992 -43.333 -16.667 -79.666 -48 -108.999l-180 -169
c-8 -7.33301 -17.333 -11 -28 -11s-20 3.66699 -28 11l-180 169c-31.333 29.333 -47.333 65.666 -48 108.999v6c0.666992 36 12 66.667 34 92c22 26 50.333 42.333 85 49c22.667 3.33301 45 1.66602 67 -5.00098s41.333 -18.334 58 -35.001c-0.666992 0 -0.666992 0 0 0v0v0
zM255.001 284l-45.001 47c-23.333 21.333 -51 30 -83 26c-23.333 -4.66699 -42.333 -15.667 -57 -33c-14 -17.333 -21.333 -37.666 -22 -60.999v-6c0.666992 -29.333 11.334 -54 32.001 -74l176 -164l176 164c20.667 20 31.334 44.667 32.001 74v6
c-0.666992 23.333 -8.33398 43.666 -23.001 60.999c-14 17.333 -32.667 28.333 -56 33c-32 4 -59.667 -4.66699 -83 -26l-47 -47v0z" />
    <glyph glyph-name="futbol" unicode="&#xf1e3;" 
d="M177 219l31 -91h96l30 91l-78 57l-79 -57v0zM255 448c-47.333 -0.666992 -90 -12.333 -128 -35v0c-38.667 -22.667 -69.334 -53.334 -92.001 -92.001v0c-22.667 -38 -34.334 -81 -35.001 -129c0.666992 -48 12.334 -91 35.001 -129
c22.667 -38.667 53.334 -69.334 92.001 -92.001c38 -22.667 81 -34.334 129 -35.001c47.333 0.666992 90.333 12.334 129 35.001c38 22.667 68.333 53.334 91 92.001c22.667 38 34.334 80.667 35.001 128c-0.666992 47.333 -12.334 90.333 -35.001 129s-53 69.667 -91 93
c-38.667 22.667 -82 34.334 -130 35.001v0zM435 87.001l-104.001 0.999023l-30 -99c-14.667 -3.33301 -29.667 -5 -45 -5s-30.333 1.66699 -45 5l-30 99l-104 -1c-15.333 25.333 -24.666 53.666 -27.999 84.999l85 60l-33 98c20 22.667 44 40.334 72 53.001l83 -63l83 62
c28 -12 52 -29.333 72 -52l-33 -98l85 -60c-4 -31.333 -13.333 -59.666 -28 -84.999v0z" />
    <glyph glyph-name="futbol" unicode="&#x26bd;" 
d="M177 219l31 -91h96l30 91l-78 57l-79 -57v0zM255 448c-47.333 -0.666992 -90 -12.333 -128 -35v0c-38.667 -22.667 -69.334 -53.334 -92.001 -92.001v0c-22.667 -38 -34.334 -81 -35.001 -129c0.666992 -48 12.334 -91 35.001 -129
c22.667 -38.667 53.334 -69.334 92.001 -92.001c38 -22.667 81 -34.334 129 -35.001c47.333 0.666992 90.333 12.334 129 35.001c38 22.667 68.333 53.334 91 92.001c22.667 38 34.334 80.667 35.001 128c-0.666992 47.333 -12.334 90.333 -35.001 129s-53 69.667 -91 93
c-38.667 22.667 -82 34.334 -130 35.001v0zM435 87.001l-104.001 0.999023l-30 -99c-14.667 -3.33301 -29.667 -5 -45 -5s-30.333 1.66699 -45 5l-30 99l-104 -1c-15.333 25.333 -24.666 53.666 -27.999 84.999l85 60l-33 98c20 22.667 44 40.334 72 53.001l83 -63l83 62
c28 -12 52 -29.333 72 -52l-33 -98l85 -60c-4 -31.333 -13.333 -59.666 -28 -84.999v0z" />
    <glyph glyph-name="envelope" unicode="&#x1f582;" 
d="M0 320c0.666992 18 7 33 19 45v0c12 12 27 18.333 45 19h384c18 -0.666992 33 -7 45 -19s18.333 -27 19 -45v-256c-0.666992 -18 -7 -33 -19 -45s-27 -18.333 -45 -19h-384c-18 0.666992 -33 7 -45 19s-18.333 27 -19 45v256v0zM48 320l-0.000976562 -22l173 -142
c10.667 -8 22.334 -12 35.001 -12s24.667 4 36 12l172 142v23c-0.666992 9.33301 -6 14.666 -16 15.999h-384c-10 -1.33301 -15.333 -6.66602 -16 -15.999v-1v0zM47.999 236v-172c0.666992 -10 6 -15.333 16 -16h384c10 0.666992 15.333 6 16 16v172l-142 -117
c-20 -15.333 -42 -23 -66 -23s-46.333 7.66699 -67 23l-141 117v0z" />
    <glyph glyph-name="envelope" unicode="&#xf0e0;" 
d="M0 320c0.666992 18 7 33 19 45v0c12 12 27 18.333 45 19h384c18 -0.666992 33 -7 45 -19s18.333 -27 19 -45v-256c-0.666992 -18 -7 -33 -19 -45s-27 -18.333 -45 -19h-384c-18 0.666992 -33 7 -45 19s-18.333 27 -19 45v256v0zM48 320l-0.000976562 -22l173 -142
c10.667 -8 22.334 -12 35.001 -12s24.667 4 36 12l172 142v23c-0.666992 9.33301 -6 14.666 -16 15.999h-384c-10 -1.33301 -15.333 -6.66602 -16 -15.999v-1v0zM47.999 236v-172c0.666992 -10 6 -15.333 16 -16h384c10 0.666992 15.333 6 16 16v172l-142 -117
c-20 -15.333 -42 -23 -66 -23s-46.333 7.66699 -67 23l-141 117v0z" />
    <glyph glyph-name="envelope" unicode="&#xf003;" 
d="M0 320c0.666992 18 7 33 19 45v0c12 12 27 18.333 45 19h384c18 -0.666992 33 -7 45 -19s18.333 -27 19 -45v-256c-0.666992 -18 -7 -33 -19 -45s-27 -18.333 -45 -19h-384c-18 0.666992 -33 7 -45 19s-18.333 27 -19 45v256v0zM48 320l-0.000976562 -22l173 -142
c10.667 -8 22.334 -12 35.001 -12s24.667 4 36 12l172 142v23c-0.666992 9.33301 -6 14.666 -16 15.999h-384c-10 -1.33301 -15.333 -6.66602 -16 -15.999v-1v0zM47.999 236v-172c0.666992 -10 6 -15.333 16 -16h384c10 0.666992 15.333 6 16 16v172l-142 -117
c-20 -15.333 -42 -23 -66 -23s-46.333 7.66699 -67 23l-141 117v0z" />
    <glyph glyph-name="envelope" unicode="&#x2709;" 
d="M0 320c0.666992 18 7 33 19 45v0c12 12 27 18.333 45 19h384c18 -0.666992 33 -7 45 -19s18.333 -27 19 -45v-256c-0.666992 -18 -7 -33 -19 -45s-27 -18.333 -45 -19h-384c-18 0.666992 -33 7 -45 19s-18.333 27 -19 45v256v0zM48 320l-0.000976562 -22l173 -142
c10.667 -8 22.334 -12 35.001 -12s24.667 4 36 12l172 142v23c-0.666992 9.33301 -6 14.666 -16 15.999h-384c-10 -1.33301 -15.333 -6.66602 -16 -15.999v-1v0zM47.999 236v-172c0.666992 -10 6 -15.333 16 -16h384c10 0.666992 15.333 6 16 16v172l-142 -117
c-20 -15.333 -42 -23 -66 -23s-46.333 7.66699 -67 23l-141 117v0z" />
    <glyph glyph-name="hand" unicode="&#x1f91a;" 
d="M408 368c-4 0 -8.00098 -0.333984 -12.001 -1.00098c-4.66699 14.667 -13.334 26.334 -26.001 35.001c-12 9.33301 -26 14 -42 14c-6.66699 0 -13 -0.666992 -19 -2c-13.333 21.333 -33.666 32.666 -60.999 33.999c-27.333 -1.33301 -47.666 -12.666 -60.999 -33.999
c-6 1.33301 -12.333 2 -19 2c-20 -0.666992 -37 -7.66699 -51 -21c-13.333 -13.333 -20.333 -30.333 -21 -51v-122c-5.33301 1.33301 -10.666 2 -15.999 2v0v0c-22.667 -0.666992 -41.334 -8.33398 -56.001 -23.001c-15.333 -15.333 -23.333 -34.333 -24 -57
c0 -20.667 7 -39 21 -55l82 -87c20 -21.333 43 -37.666 69 -48.999s53.667 -17 83 -17h33c54 1.33301 99.333 20 136 56c36 36.667 54.667 82 56 136v168c-0.666992 20.667 -7.66699 37.667 -21 51s-30.333 20.333 -51 21v0zM431.999 127.999
c-1.33301 -40.667 -15.3398 -74.668 -42.0068 -102.001v0c-27.333 -26.667 -61 -40.667 -101 -42h-34c-46 0.666992 -85 17.667 -117 51l-80 86c-6 6.66699 -9 14.334 -9 23.001c0 10.667 3.66699 18.667 11 24c6.66699 4.66699 13.334 7 20.001 7
c8.66699 0 16.334 -3.33301 23.001 -10l27 -29c2 -0.666992 4 -1 6 -1c4.66699 0 7.33398 2.66699 8.00098 8v201c1.33301 14.667 9 22.667 23 24c14.667 -1.33301 22.334 -9.33301 23.001 -24v-152c2.66699 -10 8.66699 -15.333 18 -16
c9.33301 1.33301 14.333 6.33301 15 15l1 185c1.33301 14.667 9 22.667 23 24c14.667 -1.33301 22.334 -9.33301 23.001 -24v-184c2.66699 -10 8.66699 -15.333 18 -16c10 1.33301 15.333 6.33301 16 15v152c1.33301 14.667 9 22.667 23 24
c14.667 -1.33301 22.334 -9.33301 23.001 -24v-152c2.66699 -8.66699 8.66699 -13.667 18 -15c9.33301 1.33301 14.333 6.33301 15 15v105c1.33301 14.667 9 22.667 23 24c14.667 -1.33301 22.334 -9.33301 23.001 -24v-168h3z" />
    <glyph glyph-name="hand" unicode="&#xf256;" 
d="M408 368c-4 0 -8.00098 -0.333984 -12.001 -1.00098c-4.66699 14.667 -13.334 26.334 -26.001 35.001c-12 9.33301 -26 14 -42 14c-6.66699 0 -13 -0.666992 -19 -2c-13.333 21.333 -33.666 32.666 -60.999 33.999c-27.333 -1.33301 -47.666 -12.666 -60.999 -33.999
c-6 1.33301 -12.333 2 -19 2c-20 -0.666992 -37 -7.66699 -51 -21c-13.333 -13.333 -20.333 -30.333 -21 -51v-122c-5.33301 1.33301 -10.666 2 -15.999 2v0v0c-22.667 -0.666992 -41.334 -8.33398 -56.001 -23.001c-15.333 -15.333 -23.333 -34.333 -24 -57
c0 -20.667 7 -39 21 -55l82 -87c20 -21.333 43 -37.666 69 -48.999s53.667 -17 83 -17h33c54 1.33301 99.333 20 136 56c36 36.667 54.667 82 56 136v168c-0.666992 20.667 -7.66699 37.667 -21 51s-30.333 20.333 -51 21v0zM431.999 127.999
c-1.33301 -40.667 -15.3398 -74.668 -42.0068 -102.001v0c-27.333 -26.667 -61 -40.667 -101 -42h-34c-46 0.666992 -85 17.667 -117 51l-80 86c-6 6.66699 -9 14.334 -9 23.001c0 10.667 3.66699 18.667 11 24c6.66699 4.66699 13.334 7 20.001 7
c8.66699 0 16.334 -3.33301 23.001 -10l27 -29c2 -0.666992 4 -1 6 -1c4.66699 0 7.33398 2.66699 8.00098 8v201c1.33301 14.667 9 22.667 23 24c14.667 -1.33301 22.334 -9.33301 23.001 -24v-152c2.66699 -10 8.66699 -15.333 18 -16
c9.33301 1.33301 14.333 6.33301 15 15l1 185c1.33301 14.667 9 22.667 23 24c14.667 -1.33301 22.334 -9.33301 23.001 -24v-184c2.66699 -10 8.66699 -15.333 18 -16c10 1.33301 15.333 6.33301 16 15v152c1.33301 14.667 9 22.667 23 24
c14.667 -1.33301 22.334 -9.33301 23.001 -24v-152c2.66699 -8.66699 8.66699 -13.667 18 -15c9.33301 1.33301 14.333 6.33301 15 15v105c1.33301 14.667 9 22.667 23 24c14.667 -1.33301 22.334 -9.33301 23.001 -24v-168h3z" />
    <glyph glyph-name="hand" unicode="&#x270b;" 
d="M408 368c-4 0 -8.00098 -0.333984 -12.001 -1.00098c-4.66699 14.667 -13.334 26.334 -26.001 35.001c-12 9.33301 -26 14 -42 14c-6.66699 0 -13 -0.666992 -19 -2c-13.333 21.333 -33.666 32.666 -60.999 33.999c-27.333 -1.33301 -47.666 -12.666 -60.999 -33.999
c-6 1.33301 -12.333 2 -19 2c-20 -0.666992 -37 -7.66699 -51 -21c-13.333 -13.333 -20.333 -30.333 -21 -51v-122c-5.33301 1.33301 -10.666 2 -15.999 2v0v0c-22.667 -0.666992 -41.334 -8.33398 -56.001 -23.001c-15.333 -15.333 -23.333 -34.333 -24 -57
c0 -20.667 7 -39 21 -55l82 -87c20 -21.333 43 -37.666 69 -48.999s53.667 -17 83 -17h33c54 1.33301 99.333 20 136 56c36 36.667 54.667 82 56 136v168c-0.666992 20.667 -7.66699 37.667 -21 51s-30.333 20.333 -51 21v0zM431.999 127.999
c-1.33301 -40.667 -15.3398 -74.668 -42.0068 -102.001v0c-27.333 -26.667 -61 -40.667 -101 -42h-34c-46 0.666992 -85 17.667 -117 51l-80 86c-6 6.66699 -9 14.334 -9 23.001c0 10.667 3.66699 18.667 11 24c6.66699 4.66699 13.334 7 20.001 7
c8.66699 0 16.334 -3.33301 23.001 -10l27 -29c2 -0.666992 4 -1 6 -1c4.66699 0 7.33398 2.66699 8.00098 8v201c1.33301 14.667 9 22.667 23 24c14.667 -1.33301 22.334 -9.33301 23.001 -24v-152c2.66699 -10 8.66699 -15.333 18 -16
c9.33301 1.33301 14.333 6.33301 15 15l1 185c1.33301 14.667 9 22.667 23 24c14.667 -1.33301 22.334 -9.33301 23.001 -24v-184c2.66699 -10 8.66699 -15.333 18 -16c10 1.33301 15.333 6.33301 16 15v152c1.33301 14.667 9 22.667 23 24
c14.667 -1.33301 22.334 -9.33301 23.001 -24v-152c2.66699 -8.66699 8.66699 -13.667 18 -15c9.33301 1.33301 14.333 6.33301 15 15v105c1.33301 14.667 9 22.667 23 24c14.667 -1.33301 22.334 -9.33301 23.001 -24v-168h3z" />
    <glyph glyph-name="hand-peace" unicode="&#xf25b;" 
d="M412 288c-8.66699 0 -16.665 -1.33594 -23.998 -4.00293c-13.333 12.667 -29.333 19.334 -48 20.001c-12 0 -22.667 -2.66699 -32 -8l11 69c0.666992 3.33301 1 7 1 11c0 18.667 -6.66699 35.334 -20 50.001c-12.667 14 -30 21.333 -52 22
c-18 0 -33.333 -5.66699 -46 -17c-13.333 -11.333 -21.666 -26 -24.999 -44l-4 -21l-4 9c-14.667 26.667 -36.334 40.334 -65.001 41.001c-20.667 -0.666992 -37.667 -7.66699 -51 -21c-13.333 -14 -20.333 -31 -21 -51c0 -10.667 2.33301 -21 7 -31l50 -104
c-12.667 -6 -22.667 -14.667 -30 -26s-11 -24 -11 -38v-80c0.666992 -23.333 10 -42.333 28 -57l46 -36c30 -23.333 64.333 -35 103 -35h79c50 0.666992 91.333 17.667 124 51c33.333 33.333 50.666 74.666 51.999 123.999v108c-0.666992 19.333 -7.66699 35.333 -21 48
c-12.667 12.667 -28.334 19.334 -47.001 20.001v0zM320.002 235.997c0.666992 12 7.33398 18.667 20.001 20c12 -1.33301 18.667 -8 20 -20v-56c-1.33301 -12 -8 -18.667 -20 -20c-12.667 1.33301 -19.334 8 -20.001 20v56v0zM248.002 399.997
c14 -0.666992 22 -8.66699 24 -24v-4l-24 -145c-7.33301 3.33301 -15.333 5.33301 -24 6v0v0c-4.66699 0 -9 -0.333008 -13 -1l-11 -2l24 151c3.33301 12 11.333 18.333 24 19v0zM79.002 343.997c1.33301 14.667 9.33301 22.668 24 24.001c10 0 17.333 -4.66699 22 -14
l61 -127l-49 -8l-55 115c-1.33301 3.33301 -2.33301 6.66602 -3 9.99902v0zM304.002 -16.002l-79.002 -0.00195312c-27.333 0 -52 8.33301 -74 25l-46 36c-6 4.66699 -9 11.334 -9 20.001v80c1.33301 12 7.33301 19.667 18 23l105 16c0.666992 0 1.66699 0.333008 3 1h2
c6 0 11.333 -2.33301 16 -7c5.33301 -4 8 -9.66699 8 -17c-0.666992 -12 -6.33398 -19.667 -17.001 -23l-58 -9c-13.333 -2.66699 -20.333 -10.667 -21 -24c0.666992 -10 4 -16.333 10 -19c6 -3.33301 10.667 -5 14 -5c1.33301 0 7.33301 0.666992 18 2
c10 1.33301 20 3 30 5c10.667 1.33301 16.334 2 17.001 2c24.667 6.66699 41.334 21.334 50.001 44.001c12.667 -14 29 -21.333 49 -22c8.66699 0 16.667 1.33301 24 4c12.667 -12.667 28.667 -19.334 48 -20.001c2 0 8.33301 1 19 3
c-4.66699 -33.333 -18.667 -60.666 -42 -81.999s-51.666 -32.333 -84.999 -33v0zM432 163.996c-1.33301 -12 -8.00098 -18.667 -20.001 -20c-12 1.33301 -18.667 8 -20 20v56c0.666992 12 7.33398 18.667 20.001 20c12 -1.33301 18.667 -8 20 -20v-56v0z" />
    <glyph glyph-name="hand-peace" unicode="&#x270c;" 
d="M412 288c-8.66699 0 -16.665 -1.33594 -23.998 -4.00293c-13.333 12.667 -29.333 19.334 -48 20.001c-12 0 -22.667 -2.66699 -32 -8l11 69c0.666992 3.33301 1 7 1 11c0 18.667 -6.66699 35.334 -20 50.001c-12.667 14 -30 21.333 -52 22
c-18 0 -33.333 -5.66699 -46 -17c-13.333 -11.333 -21.666 -26 -24.999 -44l-4 -21l-4 9c-14.667 26.667 -36.334 40.334 -65.001 41.001c-20.667 -0.666992 -37.667 -7.66699 -51 -21c-13.333 -14 -20.333 -31 -21 -51c0 -10.667 2.33301 -21 7 -31l50 -104
c-12.667 -6 -22.667 -14.667 -30 -26s-11 -24 -11 -38v-80c0.666992 -23.333 10 -42.333 28 -57l46 -36c30 -23.333 64.333 -35 103 -35h79c50 0.666992 91.333 17.667 124 51c33.333 33.333 50.666 74.666 51.999 123.999v108c-0.666992 19.333 -7.66699 35.333 -21 48
c-12.667 12.667 -28.334 19.334 -47.001 20.001v0zM320.002 235.997c0.666992 12 7.33398 18.667 20.001 20c12 -1.33301 18.667 -8 20 -20v-56c-1.33301 -12 -8 -18.667 -20 -20c-12.667 1.33301 -19.334 8 -20.001 20v56v0zM248.002 399.997
c14 -0.666992 22 -8.66699 24 -24v-4l-24 -145c-7.33301 3.33301 -15.333 5.33301 -24 6v0v0c-4.66699 0 -9 -0.333008 -13 -1l-11 -2l24 151c3.33301 12 11.333 18.333 24 19v0zM79.002 343.997c1.33301 14.667 9.33301 22.668 24 24.001c10 0 17.333 -4.66699 22 -14
l61 -127l-49 -8l-55 115c-1.33301 3.33301 -2.33301 6.66602 -3 9.99902v0zM304.002 -16.002l-79.002 -0.00195312c-27.333 0 -52 8.33301 -74 25l-46 36c-6 4.66699 -9 11.334 -9 20.001v80c1.33301 12 7.33301 19.667 18 23l105 16c0.666992 0 1.66699 0.333008 3 1h2
c6 0 11.333 -2.33301 16 -7c5.33301 -4 8 -9.66699 8 -17c-0.666992 -12 -6.33398 -19.667 -17.001 -23l-58 -9c-13.333 -2.66699 -20.333 -10.667 -21 -24c0.666992 -10 4 -16.333 10 -19c6 -3.33301 10.667 -5 14 -5c1.33301 0 7.33301 0.666992 18 2
c10 1.33301 20 3 30 5c10.667 1.33301 16.334 2 17.001 2c24.667 6.66699 41.334 21.334 50.001 44.001c12.667 -14 29 -21.333 49 -22c8.66699 0 16.667 1.33301 24 4c12.667 -12.667 28.667 -19.334 48 -20.001c2 0 8.33301 1 19 3
c-4.66699 -33.333 -18.667 -60.666 -42 -81.999s-51.666 -32.333 -84.999 -33v0zM432 163.996c-1.33301 -12 -8.00098 -18.667 -20.001 -20c-12 1.33301 -18.667 8 -20 20v56c0.666992 12 7.33398 18.667 20.001 20c12 -1.33301 18.667 -8 20 -20v-56v0z" />
    <glyph glyph-name="snowflake" unicode="&#xf2dc;" 
d="M484 154c2 -6.66699 1.33691 -13 -1.99609 -19c-3.33301 -5.33301 -8.33301 -9 -15 -11l-31 -8l33 -19c12 -8.66699 15 -19.667 9 -33c-8.66699 -12 -19.667 -15 -33 -9l-33 19l8 -31c2.66699 -14.667 -3 -24.667 -17 -30c-14 -2 -23.667 3.66699 -29 17l-21 78l-73 42
v-84l57 -57c9.33301 -11.333 9.33301 -22.666 0 -33.999c-4.66699 -4.66699 -10.334 -7 -17.001 -7s-12.334 2.33301 -17.001 7l-23 23v-38c-1.33301 -14.667 -9.33301 -22.667 -24 -24c-14.667 1.33301 -22.667 9.33301 -24 24v38l-23 -23
c-11.333 -9.33301 -22.666 -9.33301 -33.999 0c-9.33301 11.333 -9.33301 22.666 0 33.999l57 57v84l-73 -42l-21 -78c-5.33301 -13.333 -15 -19 -29 -17c-14 5.33301 -19.667 15.333 -17 30l8 31l-33 -19c-13.333 -6 -24.333 -3 -33 9c-6 13.333 -3 24.333 9 33l33 19
l-31 8c-14 5.33301 -19.667 15.333 -17 30c4.66699 13.333 14.334 19 29.001 17l78 -21l73 43l-73 41l-78 -21c-14.667 -2 -24.334 3.66699 -29.001 17c-2.66699 14.667 3 24.667 17 30l31 8l-33 19c-12 8.66699 -15 19.667 -9 33c8.66699 12 19.667 15 33 9l33 -19l-8 31
c-2.66699 14.667 3 24.667 17 30c14 2 23.667 -3.66699 29 -17l21 -78l73 -42v84l-57 57c-9.33301 11.333 -9.33301 22.666 0 33.999c11.333 9.33301 22.666 9.33301 33.999 0l23 -23v38c1.33301 14.667 9.33301 22.667 24 24c14.667 -1.33301 22.667 -9.33301 24 -24v-38
l23 23c11.333 9.33301 22.666 9.33301 33.999 0c9.33301 -11.333 9.33301 -22.666 0 -33.999l-57 -57v-84l73 42l21 78c5.33301 13.333 15 19 29 17c6.66699 -2 11.667 -6 15 -12c3.33301 -5.33301 4 -11.333 2 -18l-8 -31l33 19c13.333 6 24.333 3 33 -9
c6 -13.333 3 -24.333 -9 -33l-33 -19l31 -8c14 -5.33301 19.667 -15.333 17 -30c-4.66699 -13.333 -14.334 -19 -29.001 -17l-78 21l-73 -41l73 -42l78 20c14 2.66699 23.667 -3 29 -17v0z" />
    <glyph glyph-name="snowflake" unicode="&#x2746;" 
d="M484 154c2 -6.66699 1.33691 -13 -1.99609 -19c-3.33301 -5.33301 -8.33301 -9 -15 -11l-31 -8l33 -19c12 -8.66699 15 -19.667 9 -33c-8.66699 -12 -19.667 -15 -33 -9l-33 19l8 -31c2.66699 -14.667 -3 -24.667 -17 -30c-14 -2 -23.667 3.66699 -29 17l-21 78l-73 42
v-84l57 -57c9.33301 -11.333 9.33301 -22.666 0 -33.999c-4.66699 -4.66699 -10.334 -7 -17.001 -7s-12.334 2.33301 -17.001 7l-23 23v-38c-1.33301 -14.667 -9.33301 -22.667 -24 -24c-14.667 1.33301 -22.667 9.33301 -24 24v38l-23 -23
c-11.333 -9.33301 -22.666 -9.33301 -33.999 0c-9.33301 11.333 -9.33301 22.666 0 33.999l57 57v84l-73 -42l-21 -78c-5.33301 -13.333 -15 -19 -29 -17c-14 5.33301 -19.667 15.333 -17 30l8 31l-33 -19c-13.333 -6 -24.333 -3 -33 9c-6 13.333 -3 24.333 9 33l33 19
l-31 8c-14 5.33301 -19.667 15.333 -17 30c4.66699 13.333 14.334 19 29.001 17l78 -21l73 43l-73 41l-78 -21c-14.667 -2 -24.334 3.66699 -29.001 17c-2.66699 14.667 3 24.667 17 30l31 8l-33 19c-12 8.66699 -15 19.667 -9 33c8.66699 12 19.667 15 33 9l33 -19l-8 31
c-2.66699 14.667 3 24.667 17 30c14 2 23.667 -3.66699 29 -17l21 -78l73 -42v84l-57 57c-9.33301 11.333 -9.33301 22.666 0 33.999c11.333 9.33301 22.666 9.33301 33.999 0l23 -23v38c1.33301 14.667 9.33301 22.667 24 24c14.667 -1.33301 22.667 -9.33301 24 -24v-38
l23 23c11.333 9.33301 22.666 9.33301 33.999 0c9.33301 -11.333 9.33301 -22.666 0 -33.999l-57 -57v-84l73 42l21 78c5.33301 13.333 15 19 29 17c6.66699 -2 11.667 -6 15 -12c3.33301 -5.33301 4 -11.333 2 -18l-8 -31l33 19c13.333 6 24.333 3 33 -9
c6 -13.333 3 -24.333 -9 -33l-33 -19l31 -8c14 -5.33301 19.667 -15.333 17 -30c-4.66699 -13.333 -14.334 -19 -29.001 -17l-78 21l-73 -41l73 -42l78 20c14 2.66699 23.667 -3 29 -17v0z" />
    <glyph glyph-name="snowflake" unicode="&#x2744;" 
d="M484 154c2 -6.66699 1.33691 -13 -1.99609 -19c-3.33301 -5.33301 -8.33301 -9 -15 -11l-31 -8l33 -19c12 -8.66699 15 -19.667 9 -33c-8.66699 -12 -19.667 -15 -33 -9l-33 19l8 -31c2.66699 -14.667 -3 -24.667 -17 -30c-14 -2 -23.667 3.66699 -29 17l-21 78l-73 42
v-84l57 -57c9.33301 -11.333 9.33301 -22.666 0 -33.999c-4.66699 -4.66699 -10.334 -7 -17.001 -7s-12.334 2.33301 -17.001 7l-23 23v-38c-1.33301 -14.667 -9.33301 -22.667 -24 -24c-14.667 1.33301 -22.667 9.33301 -24 24v38l-23 -23
c-11.333 -9.33301 -22.666 -9.33301 -33.999 0c-9.33301 11.333 -9.33301 22.666 0 33.999l57 57v84l-73 -42l-21 -78c-5.33301 -13.333 -15 -19 -29 -17c-14 5.33301 -19.667 15.333 -17 30l8 31l-33 -19c-13.333 -6 -24.333 -3 -33 9c-6 13.333 -3 24.333 9 33l33 19
l-31 8c-14 5.33301 -19.667 15.333 -17 30c4.66699 13.333 14.334 19 29.001 17l78 -21l73 43l-73 41l-78 -21c-14.667 -2 -24.334 3.66699 -29.001 17c-2.66699 14.667 3 24.667 17 30l31 8l-33 19c-12 8.66699 -15 19.667 -9 33c8.66699 12 19.667 15 33 9l33 -19l-8 31
c-2.66699 14.667 3 24.667 17 30c14 2 23.667 -3.66699 29 -17l21 -78l73 -42v84l-57 57c-9.33301 11.333 -9.33301 22.666 0 33.999c11.333 9.33301 22.666 9.33301 33.999 0l23 -23v38c1.33301 14.667 9.33301 22.667 24 24c14.667 -1.33301 22.667 -9.33301 24 -24v-38
l23 23c11.333 9.33301 22.666 9.33301 33.999 0c9.33301 -11.333 9.33301 -22.666 0 -33.999l-57 -57v-84l73 42l21 78c5.33301 13.333 15 19 29 17c6.66699 -2 11.667 -6 15 -12c3.33301 -5.33301 4 -11.333 2 -18l-8 -31l33 19c13.333 6 24.333 3 33 -9
c6 -13.333 3 -24.333 -9 -33l-33 -19l31 -8c14 -5.33301 19.667 -15.333 17 -30c-4.66699 -13.333 -14.334 -19 -29.001 -17l-78 21l-73 -41l73 -42l78 20c14 2.66699 23.667 -3 29 -17v0z" />
    <glyph glyph-name="square-full" unicode="&#x1f7eb;" 
d="M512 448v-512h-512v512h512v0zM464 400h-416v-416h416v416v0z" />
    <glyph glyph-name="square-full" unicode="&#x1f7ea;" 
d="M512 448v-512h-512v512h512v0zM464 400h-416v-416h416v416v0z" />
    <glyph glyph-name="square-full" unicode="&#x1f7e9;" 
d="M512 448v-512h-512v512h512v0zM464 400h-416v-416h416v416v0z" />
    <glyph glyph-name="square-full" unicode="&#x1f7e8;" 
d="M512 448v-512h-512v512h512v0zM464 400h-416v-416h416v416v0z" />
    <glyph glyph-name="square-full" unicode="&#x1f7e7;" 
d="M512 448v-512h-512v512h512v0zM464 400h-416v-416h416v416v0z" />
    <glyph glyph-name="square-full" unicode="&#x1f7e6;" 
d="M512 448v-512h-512v512h512v0zM464 400h-416v-416h416v416v0z" />
    <glyph glyph-name="square-full" unicode="&#x1f7e5;" 
d="M512 448v-512h-512v512h512v0zM464 400h-416v-416h416v416v0z" />
    <glyph glyph-name="square-full" unicode="&#xf45c;" 
d="M512 448v-512h-512v512h512v0zM464 400h-416v-416h416v416v0z" />
    <glyph glyph-name="square-full" unicode="&#x2b1c;" 
d="M512 448v-512h-512v512h512v0zM464 400h-416v-416h416v416v0z" />
    <glyph glyph-name="square-full" unicode="&#x2b1b;" 
d="M512 448v-512h-512v512h512v0zM464 400h-416v-416h416v416v0z" />
    <glyph glyph-name="star" unicode="&#xf006;" horiz-adv-x="576" 
d="M288 448c10 -0.666992 17.334 -5.33398 22.001 -14.001l68 -141l153 -23c10 -1.33301 16.667 -6.66602 20 -15.999c2.66699 -9.33301 0.666992 -17.333 -6 -24l-111 -110l26 -156c1.33301 -9.33301 -2 -17 -10 -23c-8.66699 -5.33301 -17 -6 -25 -2l-137 73l-138 -73
c-8 -4 -16 -3.33301 -24 2c-8 6 -11.667 13.667 -11 23l27 156l-111 110c-6.66699 6.66699 -8.66699 14.667 -6 24c3.33301 9.33301 9.66602 14.666 18.999 15.999l154 23l68 141c4.66699 8.66699 12 13.334 22 14.001v0v0zM288.001 369l-52.998 -108
c-3.33301 -7.33301 -9.33301 -12 -18 -14l-118 -17l86 -85c5.33301 -6 7.66602 -13 6.99902 -21l-21 -120l106 56c7.33301 4 14.666 4 21.999 0l105 -56l-20 120c-1.33301 8 1 15 7 21l86 85l-118 17c-8.66699 2 -14.667 6.66699 -18 14l-53 108v0z" />
    <glyph glyph-name="star" unicode="&#xf005;" horiz-adv-x="576" 
d="M288 448c10 -0.666992 17.334 -5.33398 22.001 -14.001l68 -141l153 -23c10 -1.33301 16.667 -6.66602 20 -15.999c2.66699 -9.33301 0.666992 -17.333 -6 -24l-111 -110l26 -156c1.33301 -9.33301 -2 -17 -10 -23c-8.66699 -5.33301 -17 -6 -25 -2l-137 73l-138 -73
c-8 -4 -16 -3.33301 -24 2c-8 6 -11.667 13.667 -11 23l27 156l-111 110c-6.66699 6.66699 -8.66699 14.667 -6 24c3.33301 9.33301 9.66602 14.666 18.999 15.999l154 23l68 141c4.66699 8.66699 12 13.334 22 14.001v0v0zM288.001 369l-52.998 -108
c-3.33301 -7.33301 -9.33301 -12 -18 -14l-118 -17l86 -85c5.33301 -6 7.66602 -13 6.99902 -21l-21 -120l106 56c7.33301 4 14.666 4 21.999 0l105 -56l-20 120c-1.33301 8 1 15 7 21l86 85l-118 17c-8.66699 2 -14.667 6.66699 -18 14l-53 108v0z" />
    <glyph glyph-name="star" unicode="&#x2b50;" horiz-adv-x="576" 
d="M288 448c10 -0.666992 17.334 -5.33398 22.001 -14.001l68 -141l153 -23c10 -1.33301 16.667 -6.66602 20 -15.999c2.66699 -9.33301 0.666992 -17.333 -6 -24l-111 -110l26 -156c1.33301 -9.33301 -2 -17 -10 -23c-8.66699 -5.33301 -17 -6 -25 -2l-137 73l-138 -73
c-8 -4 -16 -3.33301 -24 2c-8 6 -11.667 13.667 -11 23l27 156l-111 110c-6.66699 6.66699 -8.66699 14.667 -6 24c3.33301 9.33301 9.66602 14.666 18.999 15.999l154 23l68 141c4.66699 8.66699 12 13.334 22 14.001v0v0zM288.001 369l-52.998 -108
c-3.33301 -7.33301 -9.33301 -12 -18 -14l-118 -17l86 -85c5.33301 -6 7.66602 -13 6.99902 -21l-21 -120l106 56c7.33301 4 14.666 4 21.999 0l105 -56l-20 120c-1.33301 8 1 15 7 21l86 85l-118 17c-8.66699 2 -14.667 6.66699 -18 14l-53 108v0z" />
    <glyph glyph-name="folder-closed" unicode="&#xe185;" 
d="M448 352h-172l-49 45c-12.667 12.667 -27.667 19 -45 19h-118c-18 -0.666992 -33 -7 -45 -19s-18.333 -27 -19 -45v-320c0.666992 -18 7 -33 19 -45s27 -18.333 45 -19h384c18 0.666992 33 7 45 19s18.333 27 19 45v256c-0.666992 18 -7 33 -19 45s-27 18.333 -45 19v0z
M64 368h118c4 0 7.66699 -1.66699 11 -5l63 -59h192c10 -0.666992 15.333 -6 16 -16v-32h-416v96c0.666992 10 6 15.333 16 16v0zM448 16h-384c-10 0.666992 -15.333 6 -16 16v176h416v-176c-0.666992 -10 -6 -15.333 -16 -16v0z" />
    <glyph glyph-name="notdef" unicode="&#xe1fe;" horiz-adv-x="384" 
d="M336 448h-288c-13.333 -0.666992 -24.666 -5.33398 -33.999 -14.001c-8.66699 -9.33301 -13.334 -20.666 -14.001 -33.999v-416c0.666992 -13.333 5.33398 -24.666 14.001 -33.999c9.33301 -8.66699 20.666 -13.334 33.999 -14.001h288
c13.333 0.666992 24.666 5.33398 33.999 14.001c8.66699 9.33301 13.334 20.666 14.001 33.999v416c-0.666992 13.333 -5.33398 24.666 -14.001 33.999c-9.33301 8.66699 -20.666 13.334 -33.999 14.001v0zM336 358v-332l-115 166l115 166v0zM192 234l-115 166h230
l-115 -166v0zM163 192l-115 -166v332l115 -166v0zM192 150l115 -166h-230l115 166v0z" />
    <glyph glyph-name="user" unicode="&#x1f464;" horiz-adv-x="448" 
d="M272 144h-96.002c-50 -1.33301 -91.333 -18.666 -124 -51.999c-33.333 -32.667 -50.666 -74 -51.999 -124c0 -9.33301 3 -17 9 -23s13.667 -9 23 -9h384c9.33301 0 17 3 23 9s9 13.667 9 23c-1.33301 50 -18.666 91.333 -51.999 124
c-32.667 33.333 -74 50.666 -124 51.999v0zM48.998 -16c4.66699 32 18.6689 58.667 42.002 80v0c23.333 20.667 51.666 31.334 84.999 32.001h96c33.333 -0.666992 61.666 -11.334 84.999 -32.001c23.333 -21.333 37.333 -48 42 -80h-350v0zM224 192
c36 0.666992 66.333 13 91 37v0c24 24.667 36.333 55 37 91c-0.666992 36 -13 66.333 -37 91c-24.667 24 -55 36.333 -91 37c-36 -0.666992 -66.333 -13 -91 -37c-24 -24.667 -36.333 -55 -37 -91c0.666992 -36 13 -66.333 37 -91c24.667 -24 55 -36.333 91 -37v0zM224 400
c22.667 -0.666992 41.667 -8.33398 57 -23.001v0c14.667 -15.333 22.334 -34.333 23.001 -57c-0.666992 -22.667 -8.33398 -41.667 -23.001 -57c-15.333 -14.667 -34.333 -22.334 -57 -23.001c-22.667 0.666992 -41.667 8.33398 -57 23.001
c-14.667 15.333 -22.334 34.333 -23.001 57c0.666992 22.667 8.33398 41.667 23.001 57c15.333 14.667 34.333 22.334 57 23.001v0z" />
    <glyph glyph-name="user" unicode="&#xf2c0;" horiz-adv-x="448" 
d="M272 144h-96.002c-50 -1.33301 -91.333 -18.666 -124 -51.999c-33.333 -32.667 -50.666 -74 -51.999 -124c0 -9.33301 3 -17 9 -23s13.667 -9 23 -9h384c9.33301 0 17 3 23 9s9 13.667 9 23c-1.33301 50 -18.666 91.333 -51.999 124
c-32.667 33.333 -74 50.666 -124 51.999v0zM48.998 -16c4.66699 32 18.6689 58.667 42.002 80v0c23.333 20.667 51.666 31.334 84.999 32.001h96c33.333 -0.666992 61.666 -11.334 84.999 -32.001c23.333 -21.333 37.333 -48 42 -80h-350v0zM224 192
c36 0.666992 66.333 13 91 37v0c24 24.667 36.333 55 37 91c-0.666992 36 -13 66.333 -37 91c-24.667 24 -55 36.333 -91 37c-36 -0.666992 -66.333 -13 -91 -37c-24 -24.667 -36.333 -55 -37 -91c0.666992 -36 13 -66.333 37 -91c24.667 -24 55 -36.333 91 -37v0zM224 400
c22.667 -0.666992 41.667 -8.33398 57 -23.001v0c14.667 -15.333 22.334 -34.333 23.001 -57c-0.666992 -22.667 -8.33398 -41.667 -23.001 -57c-15.333 -14.667 -34.333 -22.334 -57 -23.001c-22.667 0.666992 -41.667 8.33398 -57 23.001
c-14.667 15.333 -22.334 34.333 -23.001 57c0.666992 22.667 8.33398 41.667 23.001 57c15.333 14.667 34.333 22.334 57 23.001v0z" />
    <glyph glyph-name="user" unicode="&#xf007;" horiz-adv-x="448" 
d="M272 144h-96.002c-50 -1.33301 -91.333 -18.666 -124 -51.999c-33.333 -32.667 -50.666 -74 -51.999 -124c0 -9.33301 3 -17 9 -23s13.667 -9 23 -9h384c9.33301 0 17 3 23 9s9 13.667 9 23c-1.33301 50 -18.666 91.333 -51.999 124
c-32.667 33.333 -74 50.666 -124 51.999v0zM48.998 -16c4.66699 32 18.6689 58.667 42.002 80v0c23.333 20.667 51.666 31.334 84.999 32.001h96c33.333 -0.666992 61.666 -11.334 84.999 -32.001c23.333 -21.333 37.333 -48 42 -80h-350v0zM224 192
c36 0.666992 66.333 13 91 37v0c24 24.667 36.333 55 37 91c-0.666992 36 -13 66.333 -37 91c-24.667 24 -55 36.333 -91 37c-36 -0.666992 -66.333 -13 -91 -37c-24 -24.667 -36.333 -55 -37 -91c0.666992 -36 13 -66.333 37 -91c24.667 -24 55 -36.333 91 -37v0zM224 400
c22.667 -0.666992 41.667 -8.33398 57 -23.001v0c14.667 -15.333 22.334 -34.333 23.001 -57c-0.666992 -22.667 -8.33398 -41.667 -23.001 -57c-15.333 -14.667 -34.333 -22.334 -57 -23.001c-22.667 0.666992 -41.667 8.33398 -57 23.001
c-14.667 15.333 -22.334 34.333 -23.001 57c0.666992 22.667 8.33398 41.667 23.001 57c15.333 14.667 34.333 22.334 57 23.001v0z" />
    <glyph glyph-name="trash-can" unicode="&#xf2ed;" horiz-adv-x="448" 
d="M160 48c-0.666992 -10 -6 -15.333 -16 -16c-10 0.666992 -15.333 6 -16 16v208c0.666992 10 6 15.333 16 16c10 -0.666992 15.333 -6 16 -16v-208v0zM240 48c-0.666992 -10 -6 -15.333 -16 -16c-10 0.666992 -15.333 6 -16 16v208c0.666992 10 6 15.333 16 16
c10 -0.666992 15.333 -6 16 -16v-208v0zM320 48c-0.666992 -10 -6 -15.333 -16 -16c-10 0.666992 -15.333 6 -16 16v208c0.666992 10 6 15.333 16 16c10 -0.666992 15.333 -6 16 -16v-208v0zM318 423l36.0029 -55h70c14.667 -1.33301 22.667 -9.33301 24 -24
c-1.33301 -14.667 -9.33301 -22.667 -24 -24h-8v-304c-0.666992 -22.667 -8.33398 -41.667 -23.001 -57c-15.333 -14.667 -34.333 -22.334 -57 -23.001h-224c-22.667 0.666992 -41.667 8.33398 -57 23.001c-14.667 15.333 -22.334 34.333 -23.001 57v304h-8
c-14.667 1.33301 -22.667 9.33301 -24 24c1.33301 14.667 9.33301 22.667 24 24h70l37 55c11.333 16 26.666 24.333 45.999 25h94c19.333 -0.666992 35 -9 47 -25v0v0zM152.003 368h145l-19 28c-2 2.66699 -4.33301 4 -7 4h-94c-3.33301 0 -5.33301 -1.33301 -6 -4l-19 -28
v0zM80.0029 16c0 -9.33301 3 -17 9 -23v0c6 -6 13.667 -9 23 -9h224c9.33301 0 17 3 23 9s9 13.667 9 23v304h-288v-304v0z" />
    <glyph glyph-name="trash-can" unicode="&#xf014;" horiz-adv-x="448" 
d="M160 48c-0.666992 -10 -6 -15.333 -16 -16c-10 0.666992 -15.333 6 -16 16v208c0.666992 10 6 15.333 16 16c10 -0.666992 15.333 -6 16 -16v-208v0zM240 48c-0.666992 -10 -6 -15.333 -16 -16c-10 0.666992 -15.333 6 -16 16v208c0.666992 10 6 15.333 16 16
c10 -0.666992 15.333 -6 16 -16v-208v0zM320 48c-0.666992 -10 -6 -15.333 -16 -16c-10 0.666992 -15.333 6 -16 16v208c0.666992 10 6 15.333 16 16c10 -0.666992 15.333 -6 16 -16v-208v0zM318 423l36.0029 -55h70c14.667 -1.33301 22.667 -9.33301 24 -24
c-1.33301 -14.667 -9.33301 -22.667 -24 -24h-8v-304c-0.666992 -22.667 -8.33398 -41.667 -23.001 -57c-15.333 -14.667 -34.333 -22.334 -57 -23.001h-224c-22.667 0.666992 -41.667 8.33398 -57 23.001c-14.667 15.333 -22.334 34.333 -23.001 57v304h-8
c-14.667 1.33301 -22.667 9.33301 -24 24c1.33301 14.667 9.33301 22.667 24 24h70l37 55c11.333 16 26.666 24.333 45.999 25h94c19.333 -0.666992 35 -9 47 -25v0v0zM152.003 368h145l-19 28c-2 2.66699 -4.33301 4 -7 4h-94c-3.33301 0 -5.33301 -1.33301 -6 -4l-19 -28
v0zM80.0029 16c0 -9.33301 3 -17 9 -23v0c6 -6 13.667 -9 23 -9h224c9.33301 0 17 3 23 9s9 13.667 9 23v304h-288v-304v0z" />
    <glyph glyph-name="file" unicode="&#x1f5cb;" horiz-adv-x="384" 
d="M0 384c0.666992 18 7 33 19 45v0c12 12 27 18.333 45 19h166c17.333 0 32.333 -6.33301 45 -19l90 -90c12.667 -12.667 19 -28 19 -46v-293c-0.666992 -18 -7 -33 -19 -45s-27 -18.333 -45 -19h-256c-18 0.666992 -33 7 -45 19s-18.333 27 -19 45v384v0zM336 0v288h-80
c-9.33301 0 -17 3 -23 9s-9 13.667 -9 23v80h-160c-10 -0.666992 -15.333 -6 -16 -16v-384c0.666992 -10 6 -15.333 16 -16h256c10 0.666992 15.333 6 16 16v0z" />
    <glyph glyph-name="file" unicode="&#x1f4c4;" horiz-adv-x="384" 
d="M0 384c0.666992 18 7 33 19 45v0c12 12 27 18.333 45 19h166c17.333 0 32.333 -6.33301 45 -19l90 -90c12.667 -12.667 19 -28 19 -46v-293c-0.666992 -18 -7 -33 -19 -45s-27 -18.333 -45 -19h-256c-18 0.666992 -33 7 -45 19s-18.333 27 -19 45v384v0zM336 0v288h-80
c-9.33301 0 -17 3 -23 9s-9 13.667 -9 23v80h-160c-10 -0.666992 -15.333 -6 -16 -16v-384c0.666992 -10 6 -15.333 16 -16h256c10 0.666992 15.333 6 16 16v0z" />
    <glyph glyph-name="file" unicode="&#xf15b;" horiz-adv-x="384" 
d="M0 384c0.666992 18 7 33 19 45v0c12 12 27 18.333 45 19h166c17.333 0 32.333 -6.33301 45 -19l90 -90c12.667 -12.667 19 -28 19 -46v-293c-0.666992 -18 -7 -33 -19 -45s-27 -18.333 -45 -19h-256c-18 0.666992 -33 7 -45 19s-18.333 27 -19 45v384v0zM336 0v288h-80
c-9.33301 0 -17 3 -23 9s-9 13.667 -9 23v80h-160c-10 -0.666992 -15.333 -6 -16 -16v-384c0.666992 -10 6 -15.333 16 -16h256c10 0.666992 15.333 6 16 16v0z" />
    <glyph glyph-name="file" unicode="&#xf016;" horiz-adv-x="384" 
d="M0 384c0.666992 18 7 33 19 45v0c12 12 27 18.333 45 19h166c17.333 0 32.333 -6.33301 45 -19l90 -90c12.667 -12.667 19 -28 19 -46v-293c-0.666992 -18 -7 -33 -19 -45s-27 -18.333 -45 -19h-256c-18 0.666992 -33 7 -45 19s-18.333 27 -19 45v384v0zM336 0v288h-80
c-9.33301 0 -17 3 -23 9s-9 13.667 -9 23v80h-160c-10 -0.666992 -15.333 -6 -16 -16v-384c0.666992 -10 6 -15.333 16 -16h256c10 0.666992 15.333 6 16 16v0z" />
    <glyph glyph-name="clock" unicode="&#x1f553;" 
d="M232 328c1.33301 14.667 9.33398 22.667 24.001 24c14.667 -1.33301 22.667 -9.33301 24 -24v-123l85 -57c12 -9.33301 14 -20.333 6 -33c-8.66699 -12 -19.334 -14 -32.001 -6l-96 64c-7.33301 4 -11 10.667 -11 20v135v0zM256.001 448
c48 -0.666992 91 -12.334 129 -35.001v0c38.667 -22.667 69.334 -53.334 92.001 -92.001v0c22.667 -38 34.334 -81 35.001 -129c-0.666992 -48 -12.334 -91 -35.001 -129c-22.667 -38.667 -53.334 -69.334 -92.001 -92.001c-38 -22.667 -81 -34.334 -129 -35.001
c-48 0.666992 -91 12.334 -129 35.001c-38.667 22.667 -69.334 53.334 -92.001 92.001c-22.667 38 -34.334 81 -35.001 129c0.666992 48 12.334 91 35.001 129c22.667 38.667 53.334 69.334 92.001 92.001c38 22.667 81 34.334 129 35.001v0zM48.001 192
c1.33301 -58.667 21.666 -107.667 60.999 -147v0c39.333 -39.333 88.333 -59.666 147 -60.999c58.667 1.33301 107.667 21.666 147 60.999s59.666 88.333 60.999 147c-1.33301 58.667 -21.666 107.667 -60.999 147s-88.333 59.666 -147 60.999
c-58.667 -1.33301 -107.667 -21.666 -147 -60.999s-59.666 -88.333 -60.999 -147v0z" />
    <glyph glyph-name="clock" unicode="&#xf017;" 
d="M232 328c1.33301 14.667 9.33398 22.667 24.001 24c14.667 -1.33301 22.667 -9.33301 24 -24v-123l85 -57c12 -9.33301 14 -20.333 6 -33c-8.66699 -12 -19.334 -14 -32.001 -6l-96 64c-7.33301 4 -11 10.667 -11 20v135v0zM256.001 448
c48 -0.666992 91 -12.334 129 -35.001v0c38.667 -22.667 69.334 -53.334 92.001 -92.001v0c22.667 -38 34.334 -81 35.001 -129c-0.666992 -48 -12.334 -91 -35.001 -129c-22.667 -38.667 -53.334 -69.334 -92.001 -92.001c-38 -22.667 -81 -34.334 -129 -35.001
c-48 0.666992 -91 12.334 -129 35.001c-38.667 22.667 -69.334 53.334 -92.001 92.001c-22.667 38 -34.334 81 -35.001 129c0.666992 48 12.334 91 35.001 129c22.667 38.667 53.334 69.334 92.001 92.001c38 22.667 81 34.334 129 35.001v0zM48.001 192
c1.33301 -58.667 21.666 -107.667 60.999 -147v0c39.333 -39.333 88.333 -59.666 147 -60.999c58.667 1.33301 107.667 21.666 147 60.999s59.666 88.333 60.999 147c-1.33301 58.667 -21.666 107.667 -60.999 147s-88.333 59.666 -147 60.999
c-58.667 -1.33301 -107.667 -21.666 -147 -60.999s-59.666 -88.333 -60.999 -147v0z" />
    <glyph glyph-name="circle-down" unicode="&#xf358;" 
d="M344 208l-55.999 0.000976562l-1 88c-1.33301 14.667 -9.33301 22.667 -24 24h-16c-6.66699 0 -12.334 -2.33301 -17.001 -7s-7 -10.334 -7 -17.001l1 -88h-56c-10 -0.666992 -17.333 -5.33398 -22 -14.001c-4 -10 -2.66699 -18.667 4 -26l89 -96
c4.66699 -5.33301 10.667 -8 18 -8s13.333 2.66699 18 8l87 96c6.66699 8 8 16.667 4 26c-4.66699 8.66699 -12 13.334 -22 14.001v0zM256.001 448.001c-48 -0.666992 -91 -12.334 -129 -35.001v0c-38.667 -22.667 -69.334 -53.334 -92.001 -92.001v0
c-22.667 -38 -34.334 -81 -35.001 -129c0.666992 -48 12.334 -91 35.001 -129c22.667 -38.667 53.334 -69.334 92.001 -92.001c38 -22.667 81 -34.334 129 -35.001c48 0.666992 91 12.334 129 35.001c38.667 22.667 69.334 53.334 92.001 92.001
c22.667 38 34.334 81 35.001 129c-0.666992 48 -12.334 91 -35.001 129c-22.667 38.667 -53.334 69.334 -92.001 92.001c-38 22.667 -81 34.334 -129 35.001v0zM256.001 -15.999c-58.667 1.33301 -107.667 21.666 -147 60.999v0c-39.333 39.333 -59.666 88.333 -60.999 147
c1.33301 58.667 21.666 107.667 60.999 147s88.333 59.666 147 60.999c58.667 -1.33301 107.667 -21.666 147 -60.999s59.666 -88.333 60.999 -147c-1.33301 -58.667 -21.666 -107.667 -60.999 -147s-88.333 -59.666 -147 -60.999v0z" />
    <glyph glyph-name="circle-down" unicode="&#xf01a;" 
d="M344 208l-55.999 0.000976562l-1 88c-1.33301 14.667 -9.33301 22.667 -24 24h-16c-6.66699 0 -12.334 -2.33301 -17.001 -7s-7 -10.334 -7 -17.001l1 -88h-56c-10 -0.666992 -17.333 -5.33398 -22 -14.001c-4 -10 -2.66699 -18.667 4 -26l89 -96
c4.66699 -5.33301 10.667 -8 18 -8s13.333 2.66699 18 8l87 96c6.66699 8 8 16.667 4 26c-4.66699 8.66699 -12 13.334 -22 14.001v0zM256.001 448.001c-48 -0.666992 -91 -12.334 -129 -35.001v0c-38.667 -22.667 -69.334 -53.334 -92.001 -92.001v0
c-22.667 -38 -34.334 -81 -35.001 -129c0.666992 -48 12.334 -91 35.001 -129c22.667 -38.667 53.334 -69.334 92.001 -92.001c38 -22.667 81 -34.334 129 -35.001c48 0.666992 91 12.334 129 35.001c38.667 22.667 69.334 53.334 92.001 92.001
c22.667 38 34.334 81 35.001 129c-0.666992 48 -12.334 91 -35.001 129c-22.667 38.667 -53.334 69.334 -92.001 92.001c-38 22.667 -81 34.334 -129 35.001v0zM256.001 -15.999c-58.667 1.33301 -107.667 21.666 -147 60.999v0c-39.333 39.333 -59.666 88.333 -60.999 147
c1.33301 58.667 21.666 107.667 60.999 147s88.333 59.666 147 60.999c58.667 -1.33301 107.667 -21.666 147 -60.999s59.666 -88.333 60.999 -147c-1.33301 -58.667 -21.666 -107.667 -60.999 -147s-88.333 -59.666 -147 -60.999v0z" />
    <glyph glyph-name="circle-up" unicode="&#xf35b;" 
d="M273 312c-4.66699 5.33301 -10.667 8 -18 8c-8 0 -13.667 -2.66699 -17 -8l-88 -96c-6.66699 -8 -8 -16.667 -4 -26c4.66699 -8.66699 11.667 -13.334 21 -14.001h56l1 -88c1.33301 -14.667 9.33301 -22.667 24 -24h16c14 1.33301 21.667 9.33301 23 24v88h56
c10 0.666992 17.333 5.33398 22 14.001c4 10 2.66699 18.667 -4 26l-88 96v0zM256 448c-48 -0.666992 -91 -12.334 -129 -35.001v0c-38.667 -22.667 -69.334 -53.334 -92.001 -92.001v0c-22.667 -38 -34.334 -81 -35.001 -129c0.666992 -48 12.334 -91 35.001 -129
c22.667 -38.667 53.334 -69.334 92.001 -92.001c38 -22.667 81 -34.334 129 -35.001c48 0.666992 91 12.334 129 35.001c38.667 22.667 69.334 53.334 92.001 92.001c22.667 38 34.334 81 35.001 129c-0.666992 48 -12.334 91 -35.001 129
c-22.667 38.667 -53.334 69.334 -92.001 92.001c-38 22.667 -81 34.334 -129 35.001v0zM256 -16c-58.667 1.33301 -107.667 21.666 -147 60.999v0c-39.333 39.333 -59.666 88.333 -60.999 147c1.33301 58.667 21.666 107.667 60.999 147s88.333 59.666 147 60.999
c58.667 -1.33301 107.667 -21.666 147 -60.999s59.666 -88.333 60.999 -147c-1.33301 -58.667 -21.666 -107.667 -60.999 -147s-88.333 -59.666 -147 -60.999v0z" />
    <glyph glyph-name="circle-up" unicode="&#xf01b;" 
d="M273 312c-4.66699 5.33301 -10.667 8 -18 8c-8 0 -13.667 -2.66699 -17 -8l-88 -96c-6.66699 -8 -8 -16.667 -4 -26c4.66699 -8.66699 11.667 -13.334 21 -14.001h56l1 -88c1.33301 -14.667 9.33301 -22.667 24 -24h16c14 1.33301 21.667 9.33301 23 24v88h56
c10 0.666992 17.333 5.33398 22 14.001c4 10 2.66699 18.667 -4 26l-88 96v0zM256 448c-48 -0.666992 -91 -12.334 -129 -35.001v0c-38.667 -22.667 -69.334 -53.334 -92.001 -92.001v0c-22.667 -38 -34.334 -81 -35.001 -129c0.666992 -48 12.334 -91 35.001 -129
c22.667 -38.667 53.334 -69.334 92.001 -92.001c38 -22.667 81 -34.334 129 -35.001c48 0.666992 91 12.334 129 35.001c38.667 22.667 69.334 53.334 92.001 92.001c22.667 38 34.334 81 35.001 129c-0.666992 48 -12.334 91 -35.001 129
c-22.667 38.667 -53.334 69.334 -92.001 92.001c-38 22.667 -81 34.334 -129 35.001v0zM256 -16c-58.667 1.33301 -107.667 21.666 -147 60.999v0c-39.333 39.333 -59.666 88.333 -60.999 147c1.33301 58.667 21.666 107.667 60.999 147s88.333 59.666 147 60.999
c58.667 -1.33301 107.667 -21.666 147 -60.999s59.666 -88.333 60.999 -147c-1.33301 -58.667 -21.666 -107.667 -60.999 -147s-88.333 -59.666 -147 -60.999v0z" />
    <glyph glyph-name="circle-play" unicode="&#xf144;" 
d="M188 301c8 4.66699 16.333 4.33301 25 -1l144 -88c7.33301 -4.66699 11 -11.334 11 -20.001s-3.66699 -15.667 -11 -21l-144 -88c-8.66699 -4 -17 -4 -25 0c-8 4.66699 -12 11.667 -12 21v177c0 8.66699 4 15.334 12 20.001v0v0zM512 191.999
c-0.666992 -48 -12.334 -91 -35.001 -129v0c-22.667 -38.667 -53.334 -69.334 -92.001 -92.001v0c-38 -22.667 -81 -34.334 -129 -35.001c-48 0.666992 -91 12.334 -129 35.001c-38.667 22.667 -69.334 53.334 -92.001 92.001c-22.667 38 -34.334 81 -35.001 129
c0.666992 48 12.334 91 35.001 129c22.667 38.667 53.334 69.334 92.001 92.001c38 22.667 81 34.334 129 35.001c48 -0.666992 91 -12.334 129 -35.001c38.667 -22.667 69.334 -53.334 92.001 -92.001c22.667 -38 34.334 -81 35.001 -129v0zM256 399.999
c-58.667 -1.33301 -107.667 -21.666 -147 -60.999v0c-39.333 -39.333 -59.666 -88.333 -60.999 -147c1.33301 -58.667 21.666 -107.667 60.999 -147s88.333 -59.666 147 -60.999c58.667 1.33301 107.667 21.666 147 60.999s59.666 88.333 60.999 147
c-1.33301 58.667 -21.666 107.667 -60.999 147s-88.333 59.666 -147 60.999v0z" />
    <glyph glyph-name="circle-play" unicode="&#xf01d;" 
d="M188 301c8 4.66699 16.333 4.33301 25 -1l144 -88c7.33301 -4.66699 11 -11.334 11 -20.001s-3.66699 -15.667 -11 -21l-144 -88c-8.66699 -4 -17 -4 -25 0c-8 4.66699 -12 11.667 -12 21v177c0 8.66699 4 15.334 12 20.001v0v0zM512 191.999
c-0.666992 -48 -12.334 -91 -35.001 -129v0c-22.667 -38.667 -53.334 -69.334 -92.001 -92.001v0c-38 -22.667 -81 -34.334 -129 -35.001c-48 0.666992 -91 12.334 -129 35.001c-38.667 22.667 -69.334 53.334 -92.001 92.001c-22.667 38 -34.334 81 -35.001 129
c0.666992 48 12.334 91 35.001 129c22.667 38.667 53.334 69.334 92.001 92.001c38 22.667 81 34.334 129 35.001c48 -0.666992 91 -12.334 129 -35.001c38.667 -22.667 69.334 -53.334 92.001 -92.001c22.667 -38 34.334 -81 35.001 -129v0zM256 399.999
c-58.667 -1.33301 -107.667 -21.666 -147 -60.999v0c-39.333 -39.333 -59.666 -88.333 -60.999 -147c1.33301 -58.667 21.666 -107.667 60.999 -147s88.333 -59.666 147 -60.999c58.667 1.33301 107.667 21.666 147 60.999s59.666 88.333 60.999 147
c-1.33301 58.667 -21.666 107.667 -60.999 147s-88.333 59.666 -147 60.999v0z" />
    <glyph glyph-name="rectangle-list" unicode="&#xf022;" horiz-adv-x="576" 
d="M128 256c-9.33301 0 -17 3 -23 9v0c-6 6 -9 13.667 -9 23s3 17 9 23s13.667 9 23 9s17 -3 23 -9s9 -13.667 9 -23s-3 -17 -9 -23s-13.667 -9 -23 -9v0zM200 288c1.33301 14.667 9.33301 22.667 24 24h224c14.667 -1.33301 22.667 -9.33301 24 -24
c-1.33301 -14.667 -9.33301 -22.667 -24 -24h-224c-14.667 1.33301 -22.667 9.33301 -24 24v0zM200 192c1.33301 14.667 9.33301 22.667 24 24h224c14.667 -1.33301 22.667 -9.33301 24 -24c-1.33301 -14.667 -9.33301 -22.667 -24 -24h-224
c-14.667 1.33301 -22.667 9.33301 -24 24v0zM200 96c1.33301 14.667 9.33301 22.667 24 24h224c14.667 -1.33301 22.667 -9.33301 24 -24c-1.33301 -14.667 -9.33301 -22.667 -24 -24h-224c-14.667 1.33301 -22.667 9.33301 -24 24v0zM128 224c9.33301 0 17 -3 23 -9v0
c6 -6 9 -13.667 9 -23s-3 -17 -9 -23s-13.667 -9 -23 -9s-17 3 -23 9s-9 13.667 -9 23s3 17 9 23s13.667 9 23 9v0zM128 64c-9.33301 0 -17 3 -23 9v0c-6 6 -9 13.667 -9 23s3 17 9 23s13.667 9 23 9s17 -3 23 -9s9 -13.667 9 -23s-3 -17 -9 -23s-13.667 -9 -23 -9v0zM0 352
c0.666992 18 7 33 19 45v0c12 12 27 18.333 45 19h448c18 -0.666992 33 -7 45 -19s18.333 -27 19 -45v-320c-0.666992 -18 -7 -33 -19 -45s-27 -18.333 -45 -19h-448c-18 0.666992 -33 7 -45 19s-18.333 27 -19 45v320v0zM48 352v-320c0.666992 -10 6 -15.333 16 -16h448
c10 0.666992 15.333 6 16 16v320c-0.666992 10 -6 15.333 -16 16h-448c-10 -0.666992 -15.333 -6 -16 -16v0z" />
    <glyph glyph-name="flag" unicode="&#x1f3f4;" 
d="M476 448c-6 0 -12.333 -1.33496 -19 -4.00195c-44.667 -20 -80.667 -29.333 -108 -28c-28 1.33301 -53.333 6.33301 -76 15c-24 9.33301 -53.333 15 -88 17c-33.333 1.33301 -79 -9.33398 -137 -32.001v8c-1.33301 14.667 -9.33301 22.667 -24 24
c-14.667 -1.33301 -22.667 -9.33301 -24 -24v-464c1.33301 -14.667 9.33301 -22.667 24 -24c14.667 1.33301 22.667 9.33301 24 24v104c52.667 22.667 97 33.334 133 32.001s69 -6.66602 99 -15.999c30.667 -9.33301 63.667 -14.666 99 -15.999
c32 -0.666992 69.333 7 112 23c13.333 6 20.333 15.667 21 29v301c0 10 -3.66699 17.667 -11 23c-6.66699 5.33301 -15 8 -25 8v0zM464 127.998c-30 -10.667 -58.334 -16 -85.001 -16c-30 1.33301 -59 6.33301 -87 15v0v0c-32 9.33301 -69 15 -111 17
c-42 0 -86.333 -9.33301 -133 -28v248l18 7c47.333 19.333 87 29 119 29c26.667 -1.33301 51.334 -6.33301 74.001 -15v0v0c24.667 -10 54.667 -15.667 90 -17c34.667 0 73 8.66699 115 26v-266v0z" />
    <glyph glyph-name="flag" unicode="&#xf11d;" 
d="M476 448c-6 0 -12.333 -1.33496 -19 -4.00195c-44.667 -20 -80.667 -29.333 -108 -28c-28 1.33301 -53.333 6.33301 -76 15c-24 9.33301 -53.333 15 -88 17c-33.333 1.33301 -79 -9.33398 -137 -32.001v8c-1.33301 14.667 -9.33301 22.667 -24 24
c-14.667 -1.33301 -22.667 -9.33301 -24 -24v-464c1.33301 -14.667 9.33301 -22.667 24 -24c14.667 1.33301 22.667 9.33301 24 24v104c52.667 22.667 97 33.334 133 32.001s69 -6.66602 99 -15.999c30.667 -9.33301 63.667 -14.666 99 -15.999
c32 -0.666992 69.333 7 112 23c13.333 6 20.333 15.667 21 29v301c0 10 -3.66699 17.667 -11 23c-6.66699 5.33301 -15 8 -25 8v0zM464 127.998c-30 -10.667 -58.334 -16 -85.001 -16c-30 1.33301 -59 6.33301 -87 15v0v0c-32 9.33301 -69 15 -111 17
c-42 0 -86.333 -9.33301 -133 -28v248l18 7c47.333 19.333 87 29 119 29c26.667 -1.33301 51.334 -6.33301 74.001 -15v0v0c24.667 -10 54.667 -15.667 90 -17c34.667 0 73 8.66699 115 26v-266v0z" />
    <glyph glyph-name="flag" unicode="&#xf024;" 
d="M476 448c-6 0 -12.333 -1.33496 -19 -4.00195c-44.667 -20 -80.667 -29.333 -108 -28c-28 1.33301 -53.333 6.33301 -76 15c-24 9.33301 -53.333 15 -88 17c-33.333 1.33301 -79 -9.33398 -137 -32.001v8c-1.33301 14.667 -9.33301 22.667 -24 24
c-14.667 -1.33301 -22.667 -9.33301 -24 -24v-464c1.33301 -14.667 9.33301 -22.667 24 -24c14.667 1.33301 22.667 9.33301 24 24v104c52.667 22.667 97 33.334 133 32.001s69 -6.66602 99 -15.999c30.667 -9.33301 63.667 -14.666 99 -15.999
c32 -0.666992 69.333 7 112 23c13.333 6 20.333 15.667 21 29v301c0 10 -3.66699 17.667 -11 23c-6.66699 5.33301 -15 8 -25 8v0zM464 127.998c-30 -10.667 -58.334 -16 -85.001 -16c-30 1.33301 -59 6.33301 -87 15v0v0c-32 9.33301 -69 15 -111 17
c-42 0 -86.333 -9.33301 -133 -28v248l18 7c47.333 19.333 87 29 119 29c26.667 -1.33301 51.334 -6.33301 74.001 -15v0v0c24.667 -10 54.667 -15.667 90 -17c34.667 0 73 8.66699 115 26v-266v0z" />
    <glyph glyph-name="bookmark" unicode="&#x1f516;" horiz-adv-x="384" 
d="M336 448h-288c-13.333 -0.666992 -24.666 -5.33398 -33.999 -14.001c-8.66699 -9.33301 -13.334 -20.666 -14.001 -33.999v-432c0.666992 -12.667 6 -22 16 -28c10 -5.33301 20.667 -5.33301 32 0l144 84l144 -84c11.333 -5.33301 22 -5 32 1
c10 5.33301 15.333 14.333 16 27v432c-0.666992 13.333 -5.33398 24.666 -14.001 33.999c-9.33301 8.66699 -20.666 13.334 -33.999 14.001v0zM336 -4l-144.001 84l-144 -84v398c0.666992 4 2.33398 6 5.00098 6h276c4.66699 0 7 -2 7 -6v-398v0z" />
    <glyph glyph-name="bookmark" unicode="&#xf097;" horiz-adv-x="384" 
d="M336 448h-288c-13.333 -0.666992 -24.666 -5.33398 -33.999 -14.001c-8.66699 -9.33301 -13.334 -20.666 -14.001 -33.999v-432c0.666992 -12.667 6 -22 16 -28c10 -5.33301 20.667 -5.33301 32 0l144 84l144 -84c11.333 -5.33301 22 -5 32 1
c10 5.33301 15.333 14.333 16 27v432c-0.666992 13.333 -5.33398 24.666 -14.001 33.999c-9.33301 8.66699 -20.666 13.334 -33.999 14.001v0zM336 -4l-144.001 84l-144 -84v398c0.666992 4 2.33398 6 5.00098 6h276c4.66699 0 7 -2 7 -6v-398v0z" />
    <glyph glyph-name="bookmark" unicode="&#xf02e;" horiz-adv-x="384" 
d="M336 448h-288c-13.333 -0.666992 -24.666 -5.33398 -33.999 -14.001c-8.66699 -9.33301 -13.334 -20.666 -14.001 -33.999v-432c0.666992 -12.667 6 -22 16 -28c10 -5.33301 20.667 -5.33301 32 0l144 84l144 -84c11.333 -5.33301 22 -5 32 1
c10 5.33301 15.333 14.333 16 27v432c-0.666992 13.333 -5.33398 24.666 -14.001 33.999c-9.33301 8.66699 -20.666 13.334 -33.999 14.001v0zM336 -4l-144.001 84l-144 -84v398c0.666992 4 2.33398 6 5.00098 6h276c4.66699 0 7 -2 7 -6v-398v0z" />
    <glyph glyph-name="image" unicode="&#xf03e;" 
d="M152 328c-13.333 -0.666992 -24.666 -5.33398 -33.999 -14.001v0c-8.66699 -9.33301 -13.334 -20.666 -14.001 -33.999c0.666992 -13.333 5.33398 -24.666 14.001 -33.999c9.33301 -8.66699 20.666 -13.334 33.999 -14.001c13.333 0.666992 24.666 5.33398 33.999 14.001
c8.66699 9.33301 13.334 20.666 14.001 33.999c-0.666992 13.333 -5.33398 24.666 -14.001 33.999c-9.33301 8.66699 -20.666 13.334 -33.999 14.001v0zM447 416h-384c-17.333 -0.666992 -32 -7 -44 -19s-18.333 -27 -19 -45v-320c0.666992 -18 7 -33 19 -45
s26.667 -18.333 44 -19h384c18 0.666992 33 7 45 19s18.333 27 19 45v320c-0.666992 18 -6.66699 33 -18 45c-12 12 -27.333 18.333 -46 19v0zM463 39l-136.999 186c-2.66699 4.66699 -7.33398 7 -14.001 7s-11.667 -2.33301 -15 -7l-107 -144l-37 46
c-3.33301 4 -8.33301 6 -15 6c-6 0 -10.667 -2 -14 -6l-76 -94v0v0v319c0.666992 10 6 15.333 16 16h384c10 -0.666992 15.333 -6 16 -16v-313h-1z" />
    <glyph glyph-name="pen-to-square" unicode="&#xf044;" 
d="M373 423c14.667 14 31.667 21.001 51 21.001v0c19.333 0 36.333 -7 51 -21l12 -12c14 -14.667 21 -31.667 21 -51s-7 -36.333 -21 -51l-197 -197c-8.66699 -8.66699 -19 -15 -31 -19l-100 -28c-9.33301 -2.66699 -17.333 -0.333984 -24 6.99902c-6 6 -8 13.667 -6 23
l29 100c3.33301 12 9.33301 22.333 18 31l197 197v0zM440 389.001c-10.667 9.33301 -21.667 9.33301 -33 0l-29 -29l46 -46l29 30c9.33301 10.667 9.33301 21.667 0 33l-13 12v0zM204 181.001l-17 -58l58 17c4 0.666992 7.66699 2.66699 11 6l134 134l-46 46l-134 -134
c-3.33301 -3.33301 -5.33301 -7 -6 -11v0zM200 384.001c14.667 -1.33301 22.6699 -9.33594 24.0029 -24.0029c-1.33301 -14.667 -9.33301 -22.667 -24 -24h-112c-11.333 0 -20.666 -4 -27.999 -12c-8 -7.33301 -12 -16.666 -12 -27.999v-272c0 -11.333 4 -20.666 12 -27.999
c7.33301 -8 16.666 -12 27.999 -12h272c11.333 0 20.666 4 27.999 12c8 7.33301 12 16.666 12 27.999v112c1.33301 14.667 9.33301 22.667 24 24c14.667 -1.33301 22.667 -9.33301 24 -24v-112c-0.666992 -24.667 -9.33398 -45.334 -26.001 -62.001
s-37.334 -25.334 -62.001 -26.001h-272c-24.667 0.666992 -45.334 9.33398 -62.001 26.001s-25.334 37.334 -26.001 62.001v272c0.666992 24.667 9.33398 45.334 26.001 62.001s37.334 25.334 62.001 26.001h112v0z" />
    <glyph glyph-name="share-from-square" unicode="&#xf14d;" horiz-adv-x="576" 
d="M569 305l-144 135.001c-12 9.33301 -23.333 9.33301 -34 0c-9.33301 -12 -9 -23.333 1 -34l100 -95h-164c-41.333 1.33301 -77 -12.667 -107 -42c-29.333 -30 -44.333 -66.333 -45 -109v-87c1.33301 -14.667 9.33301 -22.334 24 -23.001c14.667 0.666992 22.667 8 24 22
v88c0.666992 29.333 11 54 31 74c19.333 20 43.666 30 72.999 30h164l-100 -95c-10 -10.667 -10.333 -21.667 -1 -33c4.66699 -4.66699 10.334 -7.33398 17.001 -8.00098c6 0 11.333 2.33301 16 7l144 135c5.33301 5.33301 8 11.333 8 18s-2.33301 12.334 -7 17.001v0z
M360 64.001c-14.667 -1.33301 -22.666 -9 -23.999 -23v-47c-0.666992 -4.66699 -3.33398 -7 -8.00098 -7h-272c-4.66699 0.666992 -7.33398 3 -8.00098 7v270c0.666992 4.66699 3.33398 7 8.00098 7h56c14.667 1.33301 22.667 9 24 23c-1.33301 14 -9.33301 21.667 -24 23
h-56c-16 0 -29.333 -5.33301 -40 -16c-10 -10.667 -15.333 -23.667 -16 -39v-271c0.666992 -15.333 6 -28.333 16 -39c10.667 -10 24 -15.333 40 -16h272c16 0.666992 29.333 6 40 16c10 10.667 15.333 23.667 16 39v47c-1.33301 16 -9.33301 24.667 -24 26v0z" />
    <glyph glyph-name="share-from-square" unicode="&#xf045;" horiz-adv-x="576" 
d="M569 305l-144 135.001c-12 9.33301 -23.333 9.33301 -34 0c-9.33301 -12 -9 -23.333 1 -34l100 -95h-164c-41.333 1.33301 -77 -12.667 -107 -42c-29.333 -30 -44.333 -66.333 -45 -109v-87c1.33301 -14.667 9.33301 -22.334 24 -23.001c14.667 0.666992 22.667 8 24 22
v88c0.666992 29.333 11 54 31 74c19.333 20 43.666 30 72.999 30h164l-100 -95c-10 -10.667 -10.333 -21.667 -1 -33c4.66699 -4.66699 10.334 -7.33398 17.001 -8.00098c6 0 11.333 2.33301 16 7l144 135c5.33301 5.33301 8 11.333 8 18s-2.33301 12.334 -7 17.001v0z
M360 64.001c-14.667 -1.33301 -22.666 -9 -23.999 -23v-47c-0.666992 -4.66699 -3.33398 -7 -8.00098 -7h-272c-4.66699 0.666992 -7.33398 3 -8.00098 7v270c0.666992 4.66699 3.33398 7 8.00098 7h56c14.667 1.33301 22.667 9 24 23c-1.33301 14 -9.33301 21.667 -24 23
h-56c-16 0 -29.333 -5.33301 -40 -16c-10 -10.667 -15.333 -23.667 -16 -39v-271c0.666992 -15.333 6 -28.333 16 -39c10.667 -10 24 -15.333 40 -16h272c16 0.666992 29.333 6 40 16c10 10.667 15.333 23.667 16 39v47c-1.33301 16 -9.33301 24.667 -24 26v0z" />
    <glyph glyph-name="circle-xmark" unicode="&#xf05c;" 
d="M175 273c11.333 9.33301 22.333 9.33301 33 0l47 -47l48 47c11.333 9.33301 22.333 9.33301 33 0c10 -11.333 10 -22.333 0 -33l-46 -47l46 -48c10 -11.333 10 -22.333 0 -33c-10.667 -10 -21.667 -10 -33 0l-48 46l-47 -46c-10.667 -10 -21.667 -10 -33 0
c-9.33301 10.667 -9.33301 21.667 0 33l47 48l-47 47c-9.33301 10.667 -9.33301 21.667 0 33v0v0zM512 192c-0.666992 -48 -12.334 -91 -35.001 -129v0c-22.667 -38.667 -53.334 -69.334 -92.001 -92.001v0c-38 -22.667 -81 -34.334 -129 -35.001
c-48 0.666992 -91 12.334 -129 35.001c-38.667 22.667 -69.334 53.334 -92.001 92.001c-22.667 38 -34.334 81 -35.001 129c0.666992 48 12.334 91 35.001 129c22.667 38.667 53.334 69.334 92.001 92.001c38 22.667 81 34.334 129 35.001
c48 -0.666992 91 -12.334 129 -35.001c38.667 -22.667 69.334 -53.334 92.001 -92.001c22.667 -38 34.334 -81 35.001 -129v0zM256 400c-58.667 -1.33301 -107.667 -21.666 -147 -60.999v0c-39.333 -39.333 -59.666 -88.333 -60.999 -147
c1.33301 -58.667 21.666 -107.667 60.999 -147s88.333 -59.666 147 -60.999c58.667 1.33301 107.667 21.666 147 60.999s59.666 88.333 60.999 147c-1.33301 58.667 -21.666 107.667 -60.999 147s-88.333 59.666 -147 60.999v0z" />
    <glyph glyph-name="circle-xmark" unicode="&#xf057;" 
d="M175 273c11.333 9.33301 22.333 9.33301 33 0l47 -47l48 47c11.333 9.33301 22.333 9.33301 33 0c10 -11.333 10 -22.333 0 -33l-46 -47l46 -48c10 -11.333 10 -22.333 0 -33c-10.667 -10 -21.667 -10 -33 0l-48 46l-47 -46c-10.667 -10 -21.667 -10 -33 0
c-9.33301 10.667 -9.33301 21.667 0 33l47 48l-47 47c-9.33301 10.667 -9.33301 21.667 0 33v0v0zM512 192c-0.666992 -48 -12.334 -91 -35.001 -129v0c-22.667 -38.667 -53.334 -69.334 -92.001 -92.001v0c-38 -22.667 -81 -34.334 -129 -35.001
c-48 0.666992 -91 12.334 -129 35.001c-38.667 22.667 -69.334 53.334 -92.001 92.001c-22.667 38 -34.334 81 -35.001 129c0.666992 48 12.334 91 35.001 129c22.667 38.667 53.334 69.334 92.001 92.001c38 22.667 81 34.334 129 35.001
c48 -0.666992 91 -12.334 129 -35.001c38.667 -22.667 69.334 -53.334 92.001 -92.001c22.667 -38 34.334 -81 35.001 -129v0zM256 400c-58.667 -1.33301 -107.667 -21.666 -147 -60.999v0c-39.333 -39.333 -59.666 -88.333 -60.999 -147
c1.33301 -58.667 21.666 -107.667 60.999 -147s88.333 -59.666 147 -60.999c58.667 1.33301 107.667 21.666 147 60.999s59.666 88.333 60.999 147c-1.33301 58.667 -21.666 107.667 -60.999 147s-88.333 59.666 -147 60.999v0z" />
    <glyph glyph-name="circle-check" unicode="&#xf05d;" 
d="M244 108c-6 -5.33301 -12.667 -8 -20 -8v0c-7.33301 0 -14 2.66699 -20 8l-64 64c-5.33301 6 -8 12.667 -8 20s2.66699 14 8 20c6 5.33301 12.667 8 20 8s14 -2.66699 20 -8l44 -44l108 108c6 5.33301 12.667 8 20 8s14 -2.66699 20 -8c5.33301 -6 8 -12.667 8 -20
s-2.66699 -14 -8 -20l-128 -128v0zM512 192c-0.666992 -48 -12.334 -91 -35.001 -129v0c-22.667 -38.667 -53.334 -69.334 -92.001 -92.001v0c-38 -22.667 -81 -34.334 -129 -35.001c-48 0.666992 -91 12.334 -129 35.001c-38.667 22.667 -69.334 53.334 -92.001 92.001
c-22.667 38 -34.334 81 -35.001 129c0.666992 48 12.334 91 35.001 129c22.667 38.667 53.334 69.334 92.001 92.001c38 22.667 81 34.334 129 35.001c48 -0.666992 91 -12.334 129 -35.001c38.667 -22.667 69.334 -53.334 92.001 -92.001
c22.667 -38 34.334 -81 35.001 -129v0zM256 400c-58.667 -1.33301 -107.667 -21.666 -147 -60.999v0c-39.333 -39.333 -59.666 -88.333 -60.999 -147c1.33301 -58.667 21.666 -107.667 60.999 -147s88.333 -59.666 147 -60.999c58.667 1.33301 107.667 21.666 147 60.999
s59.666 88.333 60.999 147c-1.33301 58.667 -21.666 107.667 -60.999 147s-88.333 59.666 -147 60.999v0z" />
    <glyph glyph-name="circle-check" unicode="&#xf058;" 
d="M244 108c-6 -5.33301 -12.667 -8 -20 -8v0c-7.33301 0 -14 2.66699 -20 8l-64 64c-5.33301 6 -8 12.667 -8 20s2.66699 14 8 20c6 5.33301 12.667 8 20 8s14 -2.66699 20 -8l44 -44l108 108c6 5.33301 12.667 8 20 8s14 -2.66699 20 -8c5.33301 -6 8 -12.667 8 -20
s-2.66699 -14 -8 -20l-128 -128v0zM512 192c-0.666992 -48 -12.334 -91 -35.001 -129v0c-22.667 -38.667 -53.334 -69.334 -92.001 -92.001v0c-38 -22.667 -81 -34.334 -129 -35.001c-48 0.666992 -91 12.334 -129 35.001c-38.667 22.667 -69.334 53.334 -92.001 92.001
c-22.667 38 -34.334 81 -35.001 129c0.666992 48 12.334 91 35.001 129c22.667 38.667 53.334 69.334 92.001 92.001c38 22.667 81 34.334 129 35.001c48 -0.666992 91 -12.334 129 -35.001c38.667 -22.667 69.334 -53.334 92.001 -92.001
c22.667 -38 34.334 -81 35.001 -129v0zM256 400c-58.667 -1.33301 -107.667 -21.666 -147 -60.999v0c-39.333 -39.333 -59.666 -88.333 -60.999 -147c1.33301 -58.667 21.666 -107.667 60.999 -147s88.333 -59.666 147 -60.999c58.667 1.33301 107.667 21.666 147 60.999
s59.666 88.333 60.999 147c-1.33301 58.667 -21.666 107.667 -60.999 147s-88.333 59.666 -147 60.999v0z" />
    <glyph glyph-name="circle-question" unicode="&#xf29c;" 
d="M256 448c-48 -0.666992 -91 -12.334 -129 -35.001v0c-38.667 -22.667 -69.334 -53.334 -92.001 -92.001v0c-22.667 -38 -34.334 -81 -35.001 -129c0.666992 -48 12.334 -91 35.001 -129c22.667 -38.667 53.334 -69.334 92.001 -92.001c38 -22.667 81 -34.334 129 -35.001
c48 0.666992 91 12.334 129 35.001c38.667 22.667 69.334 53.334 92.001 92.001c22.667 38 34.334 81 35.001 129c-0.666992 48 -12.334 91 -35.001 129c-22.667 38.667 -53.334 69.334 -92.001 92.001c-38 22.667 -81 34.334 -129 35.001v0zM256 -16
c-58.667 1.33301 -107.667 21.666 -147 60.999v0c-39.333 39.333 -59.666 88.333 -60.999 147c1.33301 58.667 21.666 107.667 60.999 147s88.333 59.666 147 60.999c58.667 -1.33301 107.667 -21.666 147 -60.999s59.666 -88.333 60.999 -147
c-1.33301 -58.667 -21.666 -107.667 -60.999 -147s-88.333 -59.666 -147 -60.999v0zM256 112c-9.33301 0 -17 -3 -23 -9v0c-6 -6 -9 -13.667 -9 -23c1.33301 -20 12 -30.667 32 -32c8.66699 0 16 3 22 9c6.66699 6 10 13.667 10 23s-3.33301 17 -10 23c-6 6 -13.333 9 -22 9
v0zM289 320h-50.998c-20 -0.666992 -36.667 -7.33398 -50 -20.001c-12.667 -13.333 -19.334 -30 -20.001 -50c1.33301 -14.667 9.33301 -22.667 24 -24c14.667 1.33301 22.667 9.33301 24 24c1.33301 13.333 8.33301 20.666 21 21.999h51
c14.667 -1.33301 22.667 -8.66602 24 -21.999c0 -8 -3.66699 -14 -11 -18l-57 -35c-8 -5.33301 -12 -12.333 -12 -21v-16c1.33301 -14.667 9.33301 -22.667 24 -24c14.667 1.33301 22.667 9.33301 24 24v2l45 28c22 14.667 33.333 34.667 34 60c0 20 -6.66699 36.667 -20 50
c-12.667 12.667 -29.334 19.334 -50.001 20.001v0z" />
    <glyph glyph-name="circle-question" unicode="&#xf059;" 
d="M256 448c-48 -0.666992 -91 -12.334 -129 -35.001v0c-38.667 -22.667 -69.334 -53.334 -92.001 -92.001v0c-22.667 -38 -34.334 -81 -35.001 -129c0.666992 -48 12.334 -91 35.001 -129c22.667 -38.667 53.334 -69.334 92.001 -92.001c38 -22.667 81 -34.334 129 -35.001
c48 0.666992 91 12.334 129 35.001c38.667 22.667 69.334 53.334 92.001 92.001c22.667 38 34.334 81 35.001 129c-0.666992 48 -12.334 91 -35.001 129c-22.667 38.667 -53.334 69.334 -92.001 92.001c-38 22.667 -81 34.334 -129 35.001v0zM256 -16
c-58.667 1.33301 -107.667 21.666 -147 60.999v0c-39.333 39.333 -59.666 88.333 -60.999 147c1.33301 58.667 21.666 107.667 60.999 147s88.333 59.666 147 60.999c58.667 -1.33301 107.667 -21.666 147 -60.999s59.666 -88.333 60.999 -147
c-1.33301 -58.667 -21.666 -107.667 -60.999 -147s-88.333 -59.666 -147 -60.999v0zM256 112c-9.33301 0 -17 -3 -23 -9v0c-6 -6 -9 -13.667 -9 -23c1.33301 -20 12 -30.667 32 -32c8.66699 0 16 3 22 9c6.66699 6 10 13.667 10 23s-3.33301 17 -10 23c-6 6 -13.333 9 -22 9
v0zM289 320h-50.998c-20 -0.666992 -36.667 -7.33398 -50 -20.001c-12.667 -13.333 -19.334 -30 -20.001 -50c1.33301 -14.667 9.33301 -22.667 24 -24c14.667 1.33301 22.667 9.33301 24 24c1.33301 13.333 8.33301 20.666 21 21.999h51
c14.667 -1.33301 22.667 -8.66602 24 -21.999c0 -8 -3.66699 -14 -11 -18l-57 -35c-8 -5.33301 -12 -12.333 -12 -21v-16c1.33301 -14.667 9.33301 -22.667 24 -24c14.667 1.33301 22.667 9.33301 24 24v2l45 28c22 14.667 33.333 34.667 34 60c0 20 -6.66699 36.667 -20 50
c-12.667 12.667 -29.334 19.334 -50.001 20.001v0z" />
    <glyph glyph-name="eye" unicode="&#x1f441;" horiz-adv-x="576" 
d="M160 192c0.666992 36 13 66.333 37 91v0c24.667 24 55 36.333 91 37c36 -0.666992 66.333 -13 91 -37c24 -24.667 36.333 -55 37 -91c-0.666992 -36 -13 -66.333 -37 -91c-24.667 -24 -55 -36.333 -91 -37c-36 0.666992 -66.333 13 -91 37c-24 24.667 -36.333 55 -37 91
v0zM288 112c22.667 0.666992 41.665 8.33105 56.998 22.998v0c14.667 15.333 22.334 34.333 23.001 57c-0.666992 22.667 -8.33398 41.667 -23.001 57c-15.333 14.667 -34.333 22.334 -57 23.001h-1h-2c2 -5.33301 3 -10.666 3 -15.999c-0.666992 -18 -7 -33 -19 -45
s-27 -18.333 -45 -19c-5.33301 0 -10.666 1 -15.999 3v-2v0c0.666992 -23.333 8.33398 -42.333 23.001 -57c15.333 -15.333 34.333 -23.333 57 -24v0v0zM94.998 334.997c24 22.667 52 41.667 84 57v0c32 15.333 68.333 23.333 109 24c40.667 -0.666992 77 -8.66699 109 -24
s60 -34.333 84 -57c23.333 -22 42.666 -44.667 57.999 -68s27 -44.333 35 -63c2.66699 -8 2.66699 -16 0 -24c-8 -18.667 -19.667 -39.667 -35 -63c-15.333 -22.667 -34.666 -45.334 -57.999 -68.001c-24 -22.667 -52 -41.667 -84 -57s-68.333 -23.333 -109 -24
c-40.667 0.666992 -77 8.66699 -109 24s-60 34.333 -84 57c-23.333 22.667 -42.666 45.334 -57.999 68.001c-15.333 23.333 -27 44.333 -35 63c-2.66699 8 -2.66699 16 0 24c8 18.667 19.667 39.667 35 63s34.666 46 57.999 68v0v0zM287.998 367.997
c-32.667 -0.666992 -62.334 -7.33398 -89.001 -20.001v0c-26.667 -12 -50.334 -28 -71.001 -48c-19.333 -18 -35.666 -36.667 -48.999 -56c-12.667 -18.667 -22.667 -36 -30 -52c7.33301 -15.333 17.333 -32.666 30 -51.999c13.333 -19.333 29.666 -38 48.999 -56
c20.667 -20 44.334 -36 71.001 -48c26.667 -12.667 56.334 -19.334 89.001 -20.001c32.667 0.666992 62.334 7.33398 89.001 20.001c26.667 12 50.334 28 71.001 48c19.333 18 35.333 36.667 48 56c13.333 19.333 23.666 36.666 30.999 51.999
c-7.33301 16 -17.666 33.333 -30.999 52c-12.667 19.333 -28.667 38 -48 56c-20.667 20 -44.334 36 -71.001 48c-26.667 12.667 -56.334 19.334 -89.001 20.001v0v0z" />
    <glyph glyph-name="eye" unicode="&#xf06e;" horiz-adv-x="576" 
d="M160 192c0.666992 36 13 66.333 37 91v0c24.667 24 55 36.333 91 37c36 -0.666992 66.333 -13 91 -37c24 -24.667 36.333 -55 37 -91c-0.666992 -36 -13 -66.333 -37 -91c-24.667 -24 -55 -36.333 -91 -37c-36 0.666992 -66.333 13 -91 37c-24 24.667 -36.333 55 -37 91
v0zM288 112c22.667 0.666992 41.665 8.33105 56.998 22.998v0c14.667 15.333 22.334 34.333 23.001 57c-0.666992 22.667 -8.33398 41.667 -23.001 57c-15.333 14.667 -34.333 22.334 -57 23.001h-1h-2c2 -5.33301 3 -10.666 3 -15.999c-0.666992 -18 -7 -33 -19 -45
s-27 -18.333 -45 -19c-5.33301 0 -10.666 1 -15.999 3v-2v0c0.666992 -23.333 8.33398 -42.333 23.001 -57c15.333 -15.333 34.333 -23.333 57 -24v0v0zM94.998 334.997c24 22.667 52 41.667 84 57v0c32 15.333 68.333 23.333 109 24c40.667 -0.666992 77 -8.66699 109 -24
s60 -34.333 84 -57c23.333 -22 42.666 -44.667 57.999 -68s27 -44.333 35 -63c2.66699 -8 2.66699 -16 0 -24c-8 -18.667 -19.667 -39.667 -35 -63c-15.333 -22.667 -34.666 -45.334 -57.999 -68.001c-24 -22.667 -52 -41.667 -84 -57s-68.333 -23.333 -109 -24
c-40.667 0.666992 -77 8.66699 -109 24s-60 34.333 -84 57c-23.333 22.667 -42.666 45.334 -57.999 68.001c-15.333 23.333 -27 44.333 -35 63c-2.66699 8 -2.66699 16 0 24c8 18.667 19.667 39.667 35 63s34.666 46 57.999 68v0v0zM287.998 367.997
c-32.667 -0.666992 -62.334 -7.33398 -89.001 -20.001v0c-26.667 -12 -50.334 -28 -71.001 -48c-19.333 -18 -35.666 -36.667 -48.999 -56c-12.667 -18.667 -22.667 -36 -30 -52c7.33301 -15.333 17.333 -32.666 30 -51.999c13.333 -19.333 29.666 -38 48.999 -56
c20.667 -20 44.334 -36 71.001 -48c26.667 -12.667 56.334 -19.334 89.001 -20.001c32.667 0.666992 62.334 7.33398 89.001 20.001c26.667 12 50.334 28 71.001 48c19.333 18 35.333 36.667 48 56c13.333 19.333 23.666 36.666 30.999 51.999
c-7.33301 16 -17.666 33.333 -30.999 52c-12.667 19.333 -28.667 38 -48 56c-20.667 20 -44.334 36 -71.001 48c-26.667 12.667 -56.334 19.334 -89.001 20.001v0v0z" />
    <glyph glyph-name="eye-slash" unicode="&#xf070;" horiz-adv-x="640" 
d="M151 355c22 18 46.999 32.667 74.999 44v0c28.667 10.667 60 16.334 94 17.001c40.667 -0.666992 77 -8.66699 109 -24s60 -34.333 84 -57c23.333 -22 42.666 -44.667 57.999 -68s27 -44.333 35 -63c2.66699 -8 2.66699 -16 0 -24
c-7.33301 -16.667 -17.666 -35.334 -30.999 -56.001c-13.333 -21.333 -29.666 -42.333 -48.999 -63l105 -82c10.667 -10 12 -21.333 4 -34c-10 -10.667 -21.333 -12 -34 -4l-592 464c-10.667 10 -12 21.333 -4 34c10 10.667 21.333 12 34 4l112 -88v0zM189.999 324
l46.001 -36.002c23.333 20.667 51.333 31.334 84 32.001c36 -0.666992 66.333 -13 91 -37c24 -24.667 36.333 -55 37 -91c0 -21.333 -4.66699 -41 -14 -59l54 -42c16.667 17.333 31 35 43 53s21.333 34 28 48c-7.33301 16 -17.666 33.333 -30.999 52
c-12.667 19.333 -28.667 38 -48 56c-20.667 20 -44.334 36.333 -71.001 49s-56.334 19.334 -89.001 20.001c-50.667 -2 -94 -17 -130 -45v0v0zM395 163.998c3.33301 8.66699 5.00195 18.333 5.00195 29c-0.666992 22 -8.33398 40.667 -23.001 56
c-15.333 15.333 -34.333 23.333 -57 24h-1c-0.666992 -0.666992 -1.33398 -1 -2.00098 -1c2 -5.33301 3 -10.333 3 -15c0 -11.333 -2.33301 -21 -7 -29l82 -64v0zM404.002 32.9971l41.998 -33.001c-36 -20 -78 -30.667 -126 -32c-40.667 0.666992 -77 8.66699 -109 24
s-60 34.333 -84 57c-23.333 22.667 -42.666 45.334 -57.999 68.001c-15.333 23.333 -27 44.333 -35 63c-2.66699 8 -2.66699 16 0 24c10 24 26.333 51.333 49 82l38 -29c-18.667 -24 -32 -45.333 -40 -64c7.33301 -16 17.333 -33.667 30 -53
c13.333 -19.333 29.666 -38 48.999 -56c20.667 -20 44.334 -36 71.001 -48c26.667 -12.667 56.334 -19.334 89.001 -20.001c30.667 0.666992 58.667 6.33398 84 17.001v0v0zM192 192.996v6.99902l56 -44c11.333 -22 29.333 -35.667 54 -41l56 -45
c-12 -3.33301 -25 -5.33301 -39 -6c-36 0.666992 -66 13.334 -90 38.001c-24 24 -36.667 54.333 -38 91h1v0z" />
    <glyph glyph-name="calendar-days" unicode="&#xf073;" horiz-adv-x="448" 
d="M152 384h144v40c1.33301 14.667 9.33301 22.667 24 24c14.667 -1.33301 22.667 -9.33301 24 -24v-40h40c18 -0.666992 33 -7 45 -19s18.333 -27 19 -45v-320c-0.666992 -18 -7 -33 -19 -45s-27 -18.333 -45 -19h-320c-18 0.666992 -33 7 -45 19s-18.333 27 -19 45v320
c0.666992 18 7 33 19 45s27 18.333 45 19h40v40c1.33301 14.667 9.33301 22.667 24 24c14.667 -1.33301 22.667 -9.33301 24 -24v-40v0zM48 200h80v56h-80v-56v0zM48 152v-64h80v64h-80v0zM176 152v-64h96v64h-96v0zM320 152v-64h80v64h-80v0zM400 256h-80v-56h80v56v0z
M400 40h-80v-56h64c10 0.666992 15.333 6 16 16v40v0zM272 40h-96v-56h96v56v0zM128 40h-80v-40c0.666992 -10 6 -15.333 16 -16h64v56v0zM272 256h-96v-56h96v56v0z" />
    <glyph glyph-name="comment" unicode="&#x1f5e9;" 
d="M256 416c-48 -0.666992 -90.9951 -10 -128.995 -28v0c-38.667 -18.667 -69.334 -43.667 -92.001 -75v0c-22.667 -31.333 -34.334 -66.333 -35.001 -105c1.33301 -48.667 19 -90.667 53 -126c-8.66699 -20.667 -18.334 -37.667 -29.001 -51
c-10.667 -14 -16.334 -21.333 -17.001 -22c-7.33301 -8 -9 -16.667 -5 -26c4.66699 -9.33301 12 -14.333 22 -15c30.667 0.666992 57.667 5.66699 81 15c23.333 10 42.666 20.333 57.999 31c28.667 -9.33301 59.667 -14 93 -14c47.333 0.666992 90.333 10 129 28
c38 18.667 68.333 43.667 91 75s34.334 66.333 35.001 105c-0.666992 38.667 -12.334 73.667 -35.001 105s-53 56.333 -91 75c-38.667 18 -81.667 27.333 -129 28v0zM256.005 48c-26.667 0 -52.666 4.00098 -77.999 12.001l-23 7l-20 -14
c-14 -10.667 -33 -20.334 -57 -29.001c7.33301 12.667 14 26.334 20 41.001l10 28l-20 22c-9.33301 9.33301 -18.333 22 -27 38c-8 15.333 -12.333 33.666 -13 54.999c1.33301 45.333 21.666 83 60.999 113s88.333 45.667 147 47c58.667 -1.33301 107.667 -17 147 -47
s59.666 -67.667 60.999 -113c-1.33301 -45.333 -21.666 -83 -60.999 -113s-88.333 -45.667 -147 -47v0z" />
    <glyph glyph-name="comment" unicode="&#xf0e5;" 
d="M256 416c-48 -0.666992 -90.9951 -10 -128.995 -28v0c-38.667 -18.667 -69.334 -43.667 -92.001 -75v0c-22.667 -31.333 -34.334 -66.333 -35.001 -105c1.33301 -48.667 19 -90.667 53 -126c-8.66699 -20.667 -18.334 -37.667 -29.001 -51
c-10.667 -14 -16.334 -21.333 -17.001 -22c-7.33301 -8 -9 -16.667 -5 -26c4.66699 -9.33301 12 -14.333 22 -15c30.667 0.666992 57.667 5.66699 81 15c23.333 10 42.666 20.333 57.999 31c28.667 -9.33301 59.667 -14 93 -14c47.333 0.666992 90.333 10 129 28
c38 18.667 68.333 43.667 91 75s34.334 66.333 35.001 105c-0.666992 38.667 -12.334 73.667 -35.001 105s-53 56.333 -91 75c-38.667 18 -81.667 27.333 -129 28v0zM256.005 48c-26.667 0 -52.666 4.00098 -77.999 12.001l-23 7l-20 -14
c-14 -10.667 -33 -20.334 -57 -29.001c7.33301 12.667 14 26.334 20 41.001l10 28l-20 22c-9.33301 9.33301 -18.333 22 -27 38c-8 15.333 -12.333 33.666 -13 54.999c1.33301 45.333 21.666 83 60.999 113s88.333 45.667 147 47c58.667 -1.33301 107.667 -17 147 -47
s59.666 -67.667 60.999 -113c-1.33301 -45.333 -21.666 -83 -60.999 -113s-88.333 -45.667 -147 -47v0z" />
    <glyph glyph-name="comment" unicode="&#xf075;" 
d="M256 416c-48 -0.666992 -90.9951 -10 -128.995 -28v0c-38.667 -18.667 -69.334 -43.667 -92.001 -75v0c-22.667 -31.333 -34.334 -66.333 -35.001 -105c1.33301 -48.667 19 -90.667 53 -126c-8.66699 -20.667 -18.334 -37.667 -29.001 -51
c-10.667 -14 -16.334 -21.333 -17.001 -22c-7.33301 -8 -9 -16.667 -5 -26c4.66699 -9.33301 12 -14.333 22 -15c30.667 0.666992 57.667 5.66699 81 15c23.333 10 42.666 20.333 57.999 31c28.667 -9.33301 59.667 -14 93 -14c47.333 0.666992 90.333 10 129 28
c38 18.667 68.333 43.667 91 75s34.334 66.333 35.001 105c-0.666992 38.667 -12.334 73.667 -35.001 105s-53 56.333 -91 75c-38.667 18 -81.667 27.333 -129 28v0zM256.005 48c-26.667 0 -52.666 4.00098 -77.999 12.001l-23 7l-20 -14
c-14 -10.667 -33 -20.334 -57 -29.001c7.33301 12.667 14 26.334 20 41.001l10 28l-20 22c-9.33301 9.33301 -18.333 22 -27 38c-8 15.333 -12.333 33.666 -13 54.999c1.33301 45.333 21.666 83 60.999 113s88.333 45.667 147 47c58.667 -1.33301 107.667 -17 147 -47
s59.666 -67.667 60.999 -113c-1.33301 -45.333 -21.666 -83 -60.999 -113s-88.333 -45.667 -147 -47v0z" />
    <glyph glyph-name="folder" unicode="&#x1f5bf;" 
d="M447 352h-172l-48 45c-12.667 12.667 -27.667 19 -45 19h-119c-18 -0.666992 -33 -7 -45 -19s-18.333 -27 -19 -45v-320c0.666992 -18 7 -33 19 -45s27 -18.333 45 -19h384c18 0.666992 33 7 45 19s18.333 27 19 45v256c-0.666992 18 -6.66699 33 -18 45
c-12 12 -27.333 18.333 -46 19v0zM463 32c-0.666992 -10 -6 -15.333 -16 -16h-384c-10 0.666992 -15.333 6 -16 16v320c0.666992 10 6 15.333 16 16h118c4 0 7.66699 -1.66699 11 -5l63 -59h192c10 -0.666992 15.333 -6 16 -16v-256v0z" />
    <glyph glyph-name="folder" unicode="&#x1f4c1;" 
d="M447 352h-172l-48 45c-12.667 12.667 -27.667 19 -45 19h-119c-18 -0.666992 -33 -7 -45 -19s-18.333 -27 -19 -45v-320c0.666992 -18 7 -33 19 -45s27 -18.333 45 -19h384c18 0.666992 33 7 45 19s18.333 27 19 45v256c-0.666992 18 -6.66699 33 -18 45
c-12 12 -27.333 18.333 -46 19v0zM463 32c-0.666992 -10 -6 -15.333 -16 -16h-384c-10 0.666992 -15.333 6 -16 16v320c0.666992 10 6 15.333 16 16h118c4 0 7.66699 -1.66699 11 -5l63 -59h192c10 -0.666992 15.333 -6 16 -16v-256v0z" />
    <glyph glyph-name="folder" unicode="&#xf114;" 
d="M447 352h-172l-48 45c-12.667 12.667 -27.667 19 -45 19h-119c-18 -0.666992 -33 -7 -45 -19s-18.333 -27 -19 -45v-320c0.666992 -18 7 -33 19 -45s27 -18.333 45 -19h384c18 0.666992 33 7 45 19s18.333 27 19 45v256c-0.666992 18 -6.66699 33 -18 45
c-12 12 -27.333 18.333 -46 19v0zM463 32c-0.666992 -10 -6 -15.333 -16 -16h-384c-10 0.666992 -15.333 6 -16 16v320c0.666992 10 6 15.333 16 16h118c4 0 7.66699 -1.66699 11 -5l63 -59h192c10 -0.666992 15.333 -6 16 -16v-256v0z" />
    <glyph glyph-name="folder" unicode="&#xf07b;" 
d="M447 352h-172l-48 45c-12.667 12.667 -27.667 19 -45 19h-119c-18 -0.666992 -33 -7 -45 -19s-18.333 -27 -19 -45v-320c0.666992 -18 7 -33 19 -45s27 -18.333 45 -19h384c18 0.666992 33 7 45 19s18.333 27 19 45v256c-0.666992 18 -6.66699 33 -18 45
c-12 12 -27.333 18.333 -46 19v0zM463 32c-0.666992 -10 -6 -15.333 -16 -16h-384c-10 0.666992 -15.333 6 -16 16v320c0.666992 10 6 15.333 16 16h118c4 0 7.66699 -1.66699 11 -5l63 -59h192c10 -0.666992 15.333 -6 16 -16v-256v0z" />
    <glyph glyph-name="folder-open" unicode="&#x1f5c1;" horiz-adv-x="576" 
d="M573 178l-96 -192.001c-6 -11.333 -16 -17.333 -30 -18h-383c-18 0.666992 -33 7 -45 19s-18.333 27 -19 45v320c0.666992 18 7 33 19 45s27 18.333 45 19h118c17.333 0 32.333 -6.33301 45 -19l49 -45h140c18 -0.666992 33 -7 45 -19s18.333 -27 19 -45v-32h-48v32
c-0.666992 10 -6 15.333 -16 16h-160l-63 59c-3.33301 3.33301 -7 5 -11 5h-118c-10 -0.666992 -15.333 -6 -16 -16v-288l71 142c6 11.333 15.667 17.333 29 18h396c12 -0.666992 21 -5.66699 27 -15s6.66699 -19.666 2 -30.999v0z" />
    <glyph glyph-name="folder-open" unicode="&#x1f4c2;" horiz-adv-x="576" 
d="M573 178l-96 -192.001c-6 -11.333 -16 -17.333 -30 -18h-383c-18 0.666992 -33 7 -45 19s-18.333 27 -19 45v320c0.666992 18 7 33 19 45s27 18.333 45 19h118c17.333 0 32.333 -6.33301 45 -19l49 -45h140c18 -0.666992 33 -7 45 -19s18.333 -27 19 -45v-32h-48v32
c-0.666992 10 -6 15.333 -16 16h-160l-63 59c-3.33301 3.33301 -7 5 -11 5h-118c-10 -0.666992 -15.333 -6 -16 -16v-288l71 142c6 11.333 15.667 17.333 29 18h396c12 -0.666992 21 -5.66699 27 -15s6.66699 -19.666 2 -30.999v0z" />
    <glyph glyph-name="folder-open" unicode="&#xf115;" horiz-adv-x="576" 
d="M573 178l-96 -192.001c-6 -11.333 -16 -17.333 -30 -18h-383c-18 0.666992 -33 7 -45 19s-18.333 27 -19 45v320c0.666992 18 7 33 19 45s27 18.333 45 19h118c17.333 0 32.333 -6.33301 45 -19l49 -45h140c18 -0.666992 33 -7 45 -19s18.333 -27 19 -45v-32h-48v32
c-0.666992 10 -6 15.333 -16 16h-160l-63 59c-3.33301 3.33301 -7 5 -11 5h-118c-10 -0.666992 -15.333 -6 -16 -16v-288l71 142c6 11.333 15.667 17.333 29 18h396c12 -0.666992 21 -5.66699 27 -15s6.66699 -19.666 2 -30.999v0z" />
    <glyph glyph-name="folder-open" unicode="&#xf07c;" horiz-adv-x="576" 
d="M573 178l-96 -192.001c-6 -11.333 -16 -17.333 -30 -18h-383c-18 0.666992 -33 7 -45 19s-18.333 27 -19 45v320c0.666992 18 7 33 19 45s27 18.333 45 19h118c17.333 0 32.333 -6.33301 45 -19l49 -45h140c18 -0.666992 33 -7 45 -19s18.333 -27 19 -45v-32h-48v32
c-0.666992 10 -6 15.333 -16 16h-160l-63 59c-3.33301 3.33301 -7 5 -11 5h-118c-10 -0.666992 -15.333 -6 -16 -16v-288l71 142c6 11.333 15.667 17.333 29 18h396c12 -0.666992 21 -5.66699 27 -15s6.66699 -19.666 2 -30.999v0z" />
    <glyph glyph-name="chart-bar" unicode="&#xf080;" 
d="M24 416c14.667 -1.33301 22.667 -9.33301 24 -24v-352c1.33301 -14.667 9.33301 -22.667 24 -24h416c14.667 -1.33301 22.667 -9.33301 24 -24c-1.33301 -14.667 -9.33301 -22.667 -24 -24h-416c-20.667 0.666992 -37.667 7.66699 -51 21s-20.333 30.333 -21 51v352
c1.33301 14.667 9.33301 22.667 24 24v0zM128 312c1.33301 14.667 9.33301 22.667 24 24h208c14.667 -1.33301 22.667 -9.33301 24 -24c-1.33301 -14.667 -9.33301 -22.667 -24 -24h-208c-14.667 1.33301 -22.667 9.33301 -24 24v0zM296 240
c14.667 -1.33301 22.667 -9.33301 24 -24c-1.33301 -14.667 -9.33301 -22.667 -24 -24h-144c-14.667 1.33301 -22.667 9.33301 -24 24c1.33301 14.667 9.33301 22.667 24 24h144v0zM424 144c14.667 -1.33301 22.667 -9.33301 24 -24
c-1.33301 -14.667 -9.33301 -22.667 -24 -24h-272c-14.667 1.33301 -22.667 9.33301 -24 24c1.33301 14.667 9.33301 22.667 24 24h272v0z" />
    <glyph glyph-name="comments" unicode="&#x1f5ea;" horiz-adv-x="640" 
d="M208 448c58.667 -1.33301 107.667 -18.668 147 -52.001v0c39.333 -32.667 59.666 -74 60.999 -124c-1.33301 -50 -21.666 -91.333 -60.999 -124c-39.333 -33.333 -88.333 -50.666 -147 -51.999c-18.667 0 -36.667 2 -54 6c-15.333 -10 -34 -18.667 -56 -26
c-21.333 -7.33301 -45.666 -11.333 -72.999 -12c-10.667 0.666992 -18.334 5.66699 -23.001 15c-4 10 -2.33301 19 5 27c0.666992 0.666992 5 6 13 16c8.66699 10.667 17.334 24 26.001 40c-30 30.667 -45.333 67.334 -46 110.001c1.33301 50 21.666 91.333 60.999 124
c39.333 33.333 88.333 50.666 147 51.999v0zM165 149.998c14.667 -4 29 -6.00098 43 -6.00098c45.333 0.666992 83 13.334 113 38.001c30 24 45.667 54 47 90c-1.33301 36 -17 66 -47 90c-30 24.667 -67.667 37.334 -113 38.001c-45.333 -0.666992 -83 -13.334 -113 -38.001
c-30 -24 -45.667 -54 -47 -90c0.666992 -17.333 4.33398 -32.666 11.001 -45.999c6.66699 -12.667 14 -23 22 -31l23 -25l-16 -30l-4 -8c-2.66699 -4 -5 -8.33301 -7 -13c17.333 5.33301 34.666 13.666 51.999 24.999l16 9l20 -3v0zM442 319.997
c56 -3.33301 102.666 -21.3311 139.999 -53.998v0c37.333 -32.667 56.666 -73.334 57.999 -122.001c-0.666992 -42.667 -16 -79.334 -46 -110.001c8.66699 -16 17.334 -29.333 26.001 -40c8 -10 12.333 -15.333 13 -16c7.33301 -8 8.66602 -17 3.99902 -27
c-4 -9.33301 -11.333 -14.333 -22 -15c-27.333 0.666992 -51.666 4.66699 -72.999 12c-22 7.33301 -40.667 16 -56 26c-17.333 -4 -35.333 -6 -54 -6c-41.333 0.666992 -78.333 9.66699 -111 27c-33.333 18 -58.666 41.667 -75.999 71c17.333 2.66699 34 6.66699 50 12
c14 -18.667 33 -33.667 57 -45s50.667 -17 80 -17c14 0 28.333 2 43 6l20 3l16 -9c17.333 -11.333 35 -19.666 53 -24.999c-2.66699 4 -5.33398 8.33301 -8.00098 13l-4 8l-16 30l23 25c8 8 15.333 18.333 22 31c6.66699 13.333 10.334 28.666 11.001 45.999
c-0.666992 34 -14.667 62.667 -42 86c-26.667 23.333 -61 37 -103 41l1 1c0 16.667 -2 32.667 -6 48v0v0z" />
    <glyph glyph-name="comments" unicode="&#xf0e6;" horiz-adv-x="640" 
d="M208 448c58.667 -1.33301 107.667 -18.668 147 -52.001v0c39.333 -32.667 59.666 -74 60.999 -124c-1.33301 -50 -21.666 -91.333 -60.999 -124c-39.333 -33.333 -88.333 -50.666 -147 -51.999c-18.667 0 -36.667 2 -54 6c-15.333 -10 -34 -18.667 -56 -26
c-21.333 -7.33301 -45.666 -11.333 -72.999 -12c-10.667 0.666992 -18.334 5.66699 -23.001 15c-4 10 -2.33301 19 5 27c0.666992 0.666992 5 6 13 16c8.66699 10.667 17.334 24 26.001 40c-30 30.667 -45.333 67.334 -46 110.001c1.33301 50 21.666 91.333 60.999 124
c39.333 33.333 88.333 50.666 147 51.999v0zM165 149.998c14.667 -4 29 -6.00098 43 -6.00098c45.333 0.666992 83 13.334 113 38.001c30 24 45.667 54 47 90c-1.33301 36 -17 66 -47 90c-30 24.667 -67.667 37.334 -113 38.001c-45.333 -0.666992 -83 -13.334 -113 -38.001
c-30 -24 -45.667 -54 -47 -90c0.666992 -17.333 4.33398 -32.666 11.001 -45.999c6.66699 -12.667 14 -23 22 -31l23 -25l-16 -30l-4 -8c-2.66699 -4 -5 -8.33301 -7 -13c17.333 5.33301 34.666 13.666 51.999 24.999l16 9l20 -3v0zM442 319.997
c56 -3.33301 102.666 -21.3311 139.999 -53.998v0c37.333 -32.667 56.666 -73.334 57.999 -122.001c-0.666992 -42.667 -16 -79.334 -46 -110.001c8.66699 -16 17.334 -29.333 26.001 -40c8 -10 12.333 -15.333 13 -16c7.33301 -8 8.66602 -17 3.99902 -27
c-4 -9.33301 -11.333 -14.333 -22 -15c-27.333 0.666992 -51.666 4.66699 -72.999 12c-22 7.33301 -40.667 16 -56 26c-17.333 -4 -35.333 -6 -54 -6c-41.333 0.666992 -78.333 9.66699 -111 27c-33.333 18 -58.666 41.667 -75.999 71c17.333 2.66699 34 6.66699 50 12
c14 -18.667 33 -33.667 57 -45s50.667 -17 80 -17c14 0 28.333 2 43 6l20 3l16 -9c17.333 -11.333 35 -19.666 53 -24.999c-2.66699 4 -5.33398 8.33301 -8.00098 13l-4 8l-16 30l23 25c8 8 15.333 18.333 22 31c6.66699 13.333 10.334 28.666 11.001 45.999
c-0.666992 34 -14.667 62.667 -42 86c-26.667 23.333 -61 37 -103 41l1 1c0 16.667 -2 32.667 -6 48v0v0z" />
    <glyph glyph-name="comments" unicode="&#xf086;" horiz-adv-x="640" 
d="M208 448c58.667 -1.33301 107.667 -18.668 147 -52.001v0c39.333 -32.667 59.666 -74 60.999 -124c-1.33301 -50 -21.666 -91.333 -60.999 -124c-39.333 -33.333 -88.333 -50.666 -147 -51.999c-18.667 0 -36.667 2 -54 6c-15.333 -10 -34 -18.667 -56 -26
c-21.333 -7.33301 -45.666 -11.333 -72.999 -12c-10.667 0.666992 -18.334 5.66699 -23.001 15c-4 10 -2.33301 19 5 27c0.666992 0.666992 5 6 13 16c8.66699 10.667 17.334 24 26.001 40c-30 30.667 -45.333 67.334 -46 110.001c1.33301 50 21.666 91.333 60.999 124
c39.333 33.333 88.333 50.666 147 51.999v0zM165 149.998c14.667 -4 29 -6.00098 43 -6.00098c45.333 0.666992 83 13.334 113 38.001c30 24 45.667 54 47 90c-1.33301 36 -17 66 -47 90c-30 24.667 -67.667 37.334 -113 38.001c-45.333 -0.666992 -83 -13.334 -113 -38.001
c-30 -24 -45.667 -54 -47 -90c0.666992 -17.333 4.33398 -32.666 11.001 -45.999c6.66699 -12.667 14 -23 22 -31l23 -25l-16 -30l-4 -8c-2.66699 -4 -5 -8.33301 -7 -13c17.333 5.33301 34.666 13.666 51.999 24.999l16 9l20 -3v0zM442 319.997
c56 -3.33301 102.666 -21.3311 139.999 -53.998v0c37.333 -32.667 56.666 -73.334 57.999 -122.001c-0.666992 -42.667 -16 -79.334 -46 -110.001c8.66699 -16 17.334 -29.333 26.001 -40c8 -10 12.333 -15.333 13 -16c7.33301 -8 8.66602 -17 3.99902 -27
c-4 -9.33301 -11.333 -14.333 -22 -15c-27.333 0.666992 -51.666 4.66699 -72.999 12c-22 7.33301 -40.667 16 -56 26c-17.333 -4 -35.333 -6 -54 -6c-41.333 0.666992 -78.333 9.66699 -111 27c-33.333 18 -58.666 41.667 -75.999 71c17.333 2.66699 34 6.66699 50 12
c14 -18.667 33 -33.667 57 -45s50.667 -17 80 -17c14 0 28.333 2 43 6l20 3l16 -9c17.333 -11.333 35 -19.666 53 -24.999c-2.66699 4 -5.33398 8.33301 -8.00098 13l-4 8l-16 30l23 25c8 8 15.333 18.333 22 31c6.66699 13.333 10.334 28.666 11.001 45.999
c-0.666992 34 -14.667 62.667 -42 86c-26.667 23.333 -61 37 -103 41l1 1c0 16.667 -2 32.667 -6 48v0v0z" />
    <glyph glyph-name="thumbs-up" unicode="&#x1f44d;" 
d="M96 257l-64 -0.000976562c-9.33301 0 -17 -3 -23 -9s-9 -13.333 -9 -22v-223c0 -9.33301 3 -16.666 9 -21.999c6 -6 13.667 -9 23 -9h64c9.33301 0 17 3 23 9s9 13.333 9 22v222c0 8.66699 -3 16 -9 22s-13.667 9.33301 -23 10v0zM512 220.999
c-0.666992 18.667 -7.33496 34.334 -20.002 47.001v0c-12.667 12.667 -28.334 19.334 -47.001 20.001h-100c10 26 15 45.667 15 59c0 18 -6.33301 33.667 -19 47c-12 14 -29 21.333 -51 22c-22.667 -0.666992 -38.667 -7 -48 -19c-10 -12.667 -17.333 -26 -22 -40v0
c-9.33301 -22.667 -18 -39 -26 -49c-8 -10.667 -15 -18 -21 -22c-8.66699 -5.33301 -13 -12.666 -13 -21.999c1.33301 -14.667 9.33301 -22.667 24 -24c5.33301 0 10.333 1.66699 15 5c20.667 17.333 35.667 34 45 50c9.33301 16.667 16 31 20 43
c3.33301 9.33301 6.66602 16.666 9.99902 21.999s8.66602 8 15.999 8c8 -0.666992 13.667 -3 17 -7c3.33301 -4.66699 5 -9.33398 5 -14.001c0 -4 -2 -12.667 -6 -26c-4 -14 -10.667 -29 -20 -45c-2 -4 -3 -8 -3 -12c2 -14.667 10 -22.334 24 -23.001h138
c11.333 -2 17.666 -8.66699 18.999 -20c-0.666992 -10.667 -6.66699 -17 -18 -19c-13.333 -2 -20.666 -10 -21.999 -24c0.666992 -7.33301 2.66699 -12.666 6 -15.999c3.33301 -2.66699 5 -7 5 -13c-1.33301 -10.667 -6.66602 -17 -15.999 -19
c-4.66699 -1.33301 -9 -3.66602 -13 -6.99902c-3.33301 -2.66699 -5.33301 -8 -6 -16c0.666992 -5.33301 2 -9.33301 4 -12c1.33301 -2.66699 2.33301 -6 3 -10c-1.33301 -9.33301 -6 -15.333 -14 -18c-9.33301 -2.66699 -14.666 -10.334 -15.999 -23.001
c0 -2 0.333008 -3.66699 1 -5v-4c-1.33301 -11.333 -7.66602 -17.666 -18.999 -18.999h-52c-26.667 0 -50.667 8 -72 24l-37 27c-4 3.33301 -8.66699 5 -14 5c-14.667 -1.33301 -22.667 -9.33301 -24 -24c0 -7.33301 3.33301 -13.666 10 -18.999l36 -28
c30 -21.333 63.667 -32.333 101 -33h52c18 0.666992 33.333 6.66699 46 18c12 12 19 26.667 21 44c18.667 13.333 28.334 31.666 29.001 54.999c0 3.33301 -0.333008 6.33301 -1 9c18.667 13.333 28.334 31.666 29.001 54.999c0 5.33301 -0.333008 10.666 -1 15.999
c19.333 13.333 29.333 32 30 56v0z" />
    <glyph glyph-name="thumbs-up" unicode="&#xf164;" 
d="M96 257l-64 -0.000976562c-9.33301 0 -17 -3 -23 -9s-9 -13.333 -9 -22v-223c0 -9.33301 3 -16.666 9 -21.999c6 -6 13.667 -9 23 -9h64c9.33301 0 17 3 23 9s9 13.333 9 22v222c0 8.66699 -3 16 -9 22s-13.667 9.33301 -23 10v0zM512 220.999
c-0.666992 18.667 -7.33496 34.334 -20.002 47.001v0c-12.667 12.667 -28.334 19.334 -47.001 20.001h-100c10 26 15 45.667 15 59c0 18 -6.33301 33.667 -19 47c-12 14 -29 21.333 -51 22c-22.667 -0.666992 -38.667 -7 -48 -19c-10 -12.667 -17.333 -26 -22 -40v0
c-9.33301 -22.667 -18 -39 -26 -49c-8 -10.667 -15 -18 -21 -22c-8.66699 -5.33301 -13 -12.666 -13 -21.999c1.33301 -14.667 9.33301 -22.667 24 -24c5.33301 0 10.333 1.66699 15 5c20.667 17.333 35.667 34 45 50c9.33301 16.667 16 31 20 43
c3.33301 9.33301 6.66602 16.666 9.99902 21.999s8.66602 8 15.999 8c8 -0.666992 13.667 -3 17 -7c3.33301 -4.66699 5 -9.33398 5 -14.001c0 -4 -2 -12.667 -6 -26c-4 -14 -10.667 -29 -20 -45c-2 -4 -3 -8 -3 -12c2 -14.667 10 -22.334 24 -23.001h138
c11.333 -2 17.666 -8.66699 18.999 -20c-0.666992 -10.667 -6.66699 -17 -18 -19c-13.333 -2 -20.666 -10 -21.999 -24c0.666992 -7.33301 2.66699 -12.666 6 -15.999c3.33301 -2.66699 5 -7 5 -13c-1.33301 -10.667 -6.66602 -17 -15.999 -19
c-4.66699 -1.33301 -9 -3.66602 -13 -6.99902c-3.33301 -2.66699 -5.33301 -8 -6 -16c0.666992 -5.33301 2 -9.33301 4 -12c1.33301 -2.66699 2.33301 -6 3 -10c-1.33301 -9.33301 -6 -15.333 -14 -18c-9.33301 -2.66699 -14.666 -10.334 -15.999 -23.001
c0 -2 0.333008 -3.66699 1 -5v-4c-1.33301 -11.333 -7.66602 -17.666 -18.999 -18.999h-52c-26.667 0 -50.667 8 -72 24l-37 27c-4 3.33301 -8.66699 5 -14 5c-14.667 -1.33301 -22.667 -9.33301 -24 -24c0 -7.33301 3.33301 -13.666 10 -18.999l36 -28
c30 -21.333 63.667 -32.333 101 -33h52c18 0.666992 33.333 6.66699 46 18c12 12 19 26.667 21 44c18.667 13.333 28.334 31.666 29.001 54.999c0 3.33301 -0.333008 6.33301 -1 9c18.667 13.333 28.334 31.666 29.001 54.999c0 5.33301 -0.333008 10.666 -1 15.999
c19.333 13.333 29.333 32 30 56v0z" />
    <glyph glyph-name="thumbs-up" unicode="&#xf087;" 
d="M96 257l-64 -0.000976562c-9.33301 0 -17 -3 -23 -9s-9 -13.333 -9 -22v-223c0 -9.33301 3 -16.666 9 -21.999c6 -6 13.667 -9 23 -9h64c9.33301 0 17 3 23 9s9 13.333 9 22v222c0 8.66699 -3 16 -9 22s-13.667 9.33301 -23 10v0zM512 220.999
c-0.666992 18.667 -7.33496 34.334 -20.002 47.001v0c-12.667 12.667 -28.334 19.334 -47.001 20.001h-100c10 26 15 45.667 15 59c0 18 -6.33301 33.667 -19 47c-12 14 -29 21.333 -51 22c-22.667 -0.666992 -38.667 -7 -48 -19c-10 -12.667 -17.333 -26 -22 -40v0
c-9.33301 -22.667 -18 -39 -26 -49c-8 -10.667 -15 -18 -21 -22c-8.66699 -5.33301 -13 -12.666 -13 -21.999c1.33301 -14.667 9.33301 -22.667 24 -24c5.33301 0 10.333 1.66699 15 5c20.667 17.333 35.667 34 45 50c9.33301 16.667 16 31 20 43
c3.33301 9.33301 6.66602 16.666 9.99902 21.999s8.66602 8 15.999 8c8 -0.666992 13.667 -3 17 -7c3.33301 -4.66699 5 -9.33398 5 -14.001c0 -4 -2 -12.667 -6 -26c-4 -14 -10.667 -29 -20 -45c-2 -4 -3 -8 -3 -12c2 -14.667 10 -22.334 24 -23.001h138
c11.333 -2 17.666 -8.66699 18.999 -20c-0.666992 -10.667 -6.66699 -17 -18 -19c-13.333 -2 -20.666 -10 -21.999 -24c0.666992 -7.33301 2.66699 -12.666 6 -15.999c3.33301 -2.66699 5 -7 5 -13c-1.33301 -10.667 -6.66602 -17 -15.999 -19
c-4.66699 -1.33301 -9 -3.66602 -13 -6.99902c-3.33301 -2.66699 -5.33301 -8 -6 -16c0.666992 -5.33301 2 -9.33301 4 -12c1.33301 -2.66699 2.33301 -6 3 -10c-1.33301 -9.33301 -6 -15.333 -14 -18c-9.33301 -2.66699 -14.666 -10.334 -15.999 -23.001
c0 -2 0.333008 -3.66699 1 -5v-4c-1.33301 -11.333 -7.66602 -17.666 -18.999 -18.999h-52c-26.667 0 -50.667 8 -72 24l-37 27c-4 3.33301 -8.66699 5 -14 5c-14.667 -1.33301 -22.667 -9.33301 -24 -24c0 -7.33301 3.33301 -13.666 10 -18.999l36 -28
c30 -21.333 63.667 -32.333 101 -33h52c18 0.666992 33.333 6.66699 46 18c12 12 19 26.667 21 44c18.667 13.333 28.334 31.666 29.001 54.999c0 3.33301 -0.333008 6.33301 -1 9c18.667 13.333 28.334 31.666 29.001 54.999c0 5.33301 -0.333008 10.666 -1 15.999
c19.333 13.333 29.333 32 30 56v0z" />
    <glyph glyph-name="thumbs-down" unicode="&#x1f44e;" 
d="M128 160v224.001c0 9.33301 -3 16.666 -9 21.999c-6 6 -13.667 9 -23 9h-64c-9.33301 0 -17 -3 -23 -9s-9 -13.333 -9 -22v-223c0 -9.33301 3 -16.666 9 -21.999c6 -6 13.667 -9 23 -9h64c9.33301 -0.666992 17 2 23 8c6 5.33301 9 12.666 9 21.999v0zM482 219.001
c0.666992 5.33301 1.00293 10.667 1.00293 16c-0.666992 23.333 -10.334 41.666 -29.001 54.999c0.666992 2.66699 1 5.66699 1 9c-0.666992 23.333 -10.334 41.666 -29.001 54.999c-2 17.333 -9 32 -21 44c-12.667 11.333 -28 17.333 -46 18h-52
c-37.333 -0.666992 -71 -11.667 -101 -33l-36 -28c-6.66699 -5.33301 -10 -11.666 -10 -18.999c1.33301 -14.667 9.33301 -22.667 24 -24c5.33301 0 10 1.66699 14 5l37 27c21.333 16 45.333 24 72 24h52c11.333 -1.33301 17.666 -7.66602 18.999 -18.999v-4
c-0.666992 -1.33301 -1 -3 -1 -5c1.33301 -12.667 6.66602 -20.334 15.999 -23.001c8 -2.66699 12.667 -8.66699 14 -18c-0.666992 -4 -1.66699 -7.33301 -3 -10c-2 -2.66699 -3.33301 -6.66699 -4 -12c0.666992 -7.33301 3 -13 7 -17s8.33301 -6.33301 13 -7
c9.33301 -2.66699 14.333 -8.66699 15 -18c0 -6 -1.66699 -10.333 -5 -13c-3.33301 -3.33301 -5.33301 -8.66602 -6 -15.999c1.33301 -14 8.66602 -22 21.999 -24c11.333 -1.33301 17.333 -7.33301 18 -18c-1.33301 -11.333 -7.66602 -17.666 -18.999 -18.999h-138
c-14 -1.33301 -22 -9 -24 -23c0 -4 1 -8 3 -12c9.33301 -17.333 16 -32.666 20 -45.999c4 -14 6 -23 6 -27c0 -4.66699 -1.66699 -9.33398 -5 -14.001c-3.33301 -4 -9 -6.33301 -17 -7c-6 -0.666992 -10.333 0.666016 -13 3.99902c-3.33301 2.66699 -7.33301 10.667 -12 24
c-12.667 32 -27 56.667 -43 74c-15.333 17.333 -28 26 -38 26c-14.667 -1.33301 -22.667 -9.33301 -24 -24c0 -7.33301 3 -13.666 9 -18.999c14.667 -12 25.667 -24.667 33 -38c8 -13.333 14.333 -26 19 -38c6 -16.667 13.667 -30 23 -40
c9.33301 -10.667 24.666 -16.334 45.999 -17.001c22 0.666992 39 8 51 22c12.667 13.333 19 29 19 47c0 14 -5 33.667 -15 59h100c18.667 0.666992 34.334 7.33398 47.001 20.001s19.334 28.667 20.001 48c-0.666992 23.333 -10.667 41.666 -30 54.999v0z" />
    <glyph glyph-name="thumbs-down" unicode="&#xf165;" 
d="M128 160v224.001c0 9.33301 -3 16.666 -9 21.999c-6 6 -13.667 9 -23 9h-64c-9.33301 0 -17 -3 -23 -9s-9 -13.333 -9 -22v-223c0 -9.33301 3 -16.666 9 -21.999c6 -6 13.667 -9 23 -9h64c9.33301 -0.666992 17 2 23 8c6 5.33301 9 12.666 9 21.999v0zM482 219.001
c0.666992 5.33301 1.00293 10.667 1.00293 16c-0.666992 23.333 -10.334 41.666 -29.001 54.999c0.666992 2.66699 1 5.66699 1 9c-0.666992 23.333 -10.334 41.666 -29.001 54.999c-2 17.333 -9 32 -21 44c-12.667 11.333 -28 17.333 -46 18h-52
c-37.333 -0.666992 -71 -11.667 -101 -33l-36 -28c-6.66699 -5.33301 -10 -11.666 -10 -18.999c1.33301 -14.667 9.33301 -22.667 24 -24c5.33301 0 10 1.66699 14 5l37 27c21.333 16 45.333 24 72 24h52c11.333 -1.33301 17.666 -7.66602 18.999 -18.999v-4
c-0.666992 -1.33301 -1 -3 -1 -5c1.33301 -12.667 6.66602 -20.334 15.999 -23.001c8 -2.66699 12.667 -8.66699 14 -18c-0.666992 -4 -1.66699 -7.33301 -3 -10c-2 -2.66699 -3.33301 -6.66699 -4 -12c0.666992 -7.33301 3 -13 7 -17s8.33301 -6.33301 13 -7
c9.33301 -2.66699 14.333 -8.66699 15 -18c0 -6 -1.66699 -10.333 -5 -13c-3.33301 -3.33301 -5.33301 -8.66602 -6 -15.999c1.33301 -14 8.66602 -22 21.999 -24c11.333 -1.33301 17.333 -7.33301 18 -18c-1.33301 -11.333 -7.66602 -17.666 -18.999 -18.999h-138
c-14 -1.33301 -22 -9 -24 -23c0 -4 1 -8 3 -12c9.33301 -17.333 16 -32.666 20 -45.999c4 -14 6 -23 6 -27c0 -4.66699 -1.66699 -9.33398 -5 -14.001c-3.33301 -4 -9 -6.33301 -17 -7c-6 -0.666992 -10.333 0.666016 -13 3.99902c-3.33301 2.66699 -7.33301 10.667 -12 24
c-12.667 32 -27 56.667 -43 74c-15.333 17.333 -28 26 -38 26c-14.667 -1.33301 -22.667 -9.33301 -24 -24c0 -7.33301 3 -13.666 9 -18.999c14.667 -12 25.667 -24.667 33 -38c8 -13.333 14.333 -26 19 -38c6 -16.667 13.667 -30 23 -40
c9.33301 -10.667 24.666 -16.334 45.999 -17.001c22 0.666992 39 8 51 22c12.667 13.333 19 29 19 47c0 14 -5 33.667 -15 59h100c18.667 0.666992 34.334 7.33398 47.001 20.001s19.334 28.667 20.001 48c-0.666992 23.333 -10.667 41.666 -30 54.999v0z" />
    <glyph glyph-name="thumbs-down" unicode="&#xf088;" 
d="M128 160v224.001c0 9.33301 -3 16.666 -9 21.999c-6 6 -13.667 9 -23 9h-64c-9.33301 0 -17 -3 -23 -9s-9 -13.333 -9 -22v-223c0 -9.33301 3 -16.666 9 -21.999c6 -6 13.667 -9 23 -9h64c9.33301 -0.666992 17 2 23 8c6 5.33301 9 12.666 9 21.999v0zM482 219.001
c0.666992 5.33301 1.00293 10.667 1.00293 16c-0.666992 23.333 -10.334 41.666 -29.001 54.999c0.666992 2.66699 1 5.66699 1 9c-0.666992 23.333 -10.334 41.666 -29.001 54.999c-2 17.333 -9 32 -21 44c-12.667 11.333 -28 17.333 -46 18h-52
c-37.333 -0.666992 -71 -11.667 -101 -33l-36 -28c-6.66699 -5.33301 -10 -11.666 -10 -18.999c1.33301 -14.667 9.33301 -22.667 24 -24c5.33301 0 10 1.66699 14 5l37 27c21.333 16 45.333 24 72 24h52c11.333 -1.33301 17.666 -7.66602 18.999 -18.999v-4
c-0.666992 -1.33301 -1 -3 -1 -5c1.33301 -12.667 6.66602 -20.334 15.999 -23.001c8 -2.66699 12.667 -8.66699 14 -18c-0.666992 -4 -1.66699 -7.33301 -3 -10c-2 -2.66699 -3.33301 -6.66699 -4 -12c0.666992 -7.33301 3 -13 7 -17s8.33301 -6.33301 13 -7
c9.33301 -2.66699 14.333 -8.66699 15 -18c0 -6 -1.66699 -10.333 -5 -13c-3.33301 -3.33301 -5.33301 -8.66602 -6 -15.999c1.33301 -14 8.66602 -22 21.999 -24c11.333 -1.33301 17.333 -7.33301 18 -18c-1.33301 -11.333 -7.66602 -17.666 -18.999 -18.999h-138
c-14 -1.33301 -22 -9 -24 -23c0 -4 1 -8 3 -12c9.33301 -17.333 16 -32.666 20 -45.999c4 -14 6 -23 6 -27c0 -4.66699 -1.66699 -9.33398 -5 -14.001c-3.33301 -4 -9 -6.33301 -17 -7c-6 -0.666992 -10.333 0.666016 -13 3.99902c-3.33301 2.66699 -7.33301 10.667 -12 24
c-12.667 32 -27 56.667 -43 74c-15.333 17.333 -28 26 -38 26c-14.667 -1.33301 -22.667 -9.33301 -24 -24c0 -7.33301 3 -13.666 9 -18.999c14.667 -12 25.667 -24.667 33 -38c8 -13.333 14.333 -26 19 -38c6 -16.667 13.667 -30 23 -40
c9.33301 -10.667 24.666 -16.334 45.999 -17.001c22 0.666992 39 8 51 22c12.667 13.333 19 29 19 47c0 14 -5 33.667 -15 59h100c18.667 0.666992 34.334 7.33398 47.001 20.001s19.334 28.667 20.001 48c-0.666992 23.333 -10.667 41.666 -30 54.999v0z" />
    <glyph glyph-name="star-half" unicode="&#xf123;" horiz-adv-x="576" 
d="M293 447c12 -3.33301 18.334 -10.999 19.001 -22.999v-385c-0.666992 -9.33301 -5 -16.333 -13 -21l-149 -79c-8 -4 -16 -3.33301 -24 2c-8 6 -11.667 13.667 -11 23l27 156l-111 110c-6.66699 6.66699 -8.66699 14.667 -6 24
c3.33301 9.33301 9.66602 14.666 18.999 15.999l154 23l68 141c6 10.667 15 15 27 13v0v0zM264.001 320.001l-28.999 -59c-3.33301 -7.33301 -9.33301 -12 -18 -14l-118 -17l86 -85c5.33301 -6 7.66602 -13 6.99902 -21l-21 -120l93 50v266v0z" />
    <glyph glyph-name="star-half" unicode="&#xf089;" horiz-adv-x="576" 
d="M293 447c12 -3.33301 18.334 -10.999 19.001 -22.999v-385c-0.666992 -9.33301 -5 -16.333 -13 -21l-149 -79c-8 -4 -16 -3.33301 -24 2c-8 6 -11.667 13.667 -11 23l27 156l-111 110c-6.66699 6.66699 -8.66699 14.667 -6 24
c3.33301 9.33301 9.66602 14.666 18.999 15.999l154 23l68 141c6 10.667 15 15 27 13v0v0zM264.001 320.001l-28.999 -59c-3.33301 -7.33301 -9.33301 -12 -18 -14l-118 -17l86 -85c5.33301 -6 7.66602 -13 6.99902 -21l-21 -120l93 50v266v0z" />
    </font>
</defs>
</svg>
